<?xml version="1.0" encoding="UTF-8" standalone="no"?>
<!DOCTYPE svg PUBLIC "-//W3C//DTD SVG 1.1//EN" "http://www.w3.org/Graphics/SVG/1.1/DTD/svg11.dtd">
<svg version="1.1" xmlns="http://www.w3.org/2000/svg" xmlns:xlink="http://www.w3.org/1999/xlink" preserveAspectRatio="xMidYMid meet" viewBox="0 0 640 640" width="100" height="100"><defs><path d="M319.43 0.27L320.37 0.5L321.45 0.8L322.74 1.18L324.17 1.66L325.76 2.19L327.48 2.78L329.36 3.43L331.41 4.14L333.58 4.94L335.86 5.77L338.32 6.69L340.87 7.64L343.57 8.64L346.38 9.74L349.31 10.86L352.36 12.02L355.49 13.26L358.77 14.53L362.11 15.83L365.57 17.2L369.11 18.62L372.77 20.07L376.49 21.55L380.3 23.09L384.17 24.65L388.15 26.25L392.17 27.88L396.27 29.54L400.43 31.25L404.65 32.97L408.92 34.72L413.26 36.49L417.62 38.3L422.05 40.13L426.5 41.97L430.98 43.83L435.49 45.73L545.93 91.45L592.78 206.2L640 320.53L592.78 434.86L545.93 549.61L433.94 596.14L427.2 598.95L420.7 601.64L414.46 604.25L408.46 606.7L402.71 609.1L397.21 611.35L391.9 613.54L386.84 615.58L382 617.57L377.37 619.43L372.95 621.21L368.73 622.89L364.72 624.49L360.88 625.97L357.25 627.39L353.79 628.72L350.51 629.97L347.41 631.12L344.48 632.19L341.69 633.19L339.09 634.11L336.6 634.97L334.28 635.74L332.08 636.45L330.03 637.07L328.1 637.63L326.31 638.14L324.64 638.58L323.06 638.96L321.6 639.26L320.25 639.53L318.99 639.73L317.82 639.88L316.73 639.97L315.74 640L314.83 640L313.98 639.94L313.19 639.82L312.46 639.7L311.78 639.5L311.28 639.35L310.64 639.11L309.79 638.82L308.82 638.46L307.65 638.02L306.36 637.51L304.9 636.95L303.32 636.33L301.59 635.65L299.68 634.91L297.69 634.08L295.55 633.22L293.27 632.3L290.87 631.36L288.35 630.32L285.74 629.26L282.99 628.13L280.14 626.98L277.19 625.76L274.14 624.52L270.98 623.22L267.75 621.89L264.41 620.53L260.99 619.13L257.5 617.68L253.93 616.2L250.26 614.69L246.54 613.16L242.76 611.59L238.93 610.02L235 608.39L231.05 606.76L227.03 605.08L222.96 603.42L218.86 601.7L214.73 599.99L210.54 598.27L206.35 596.52L202.1 594.75L197.86 592.97L94.04 549.61L47.19 434.86L0 320.15L47.19 206.2L94.04 91.87L202.13 46.11L206.56 44.25L210.98 42.38L215.34 40.52L219.68 38.71L223.96 36.91L228.21 35.13L232.42 33.39L236.55 31.67L240.63 29.98L244.67 28.32L248.62 26.7L252.52 25.1L256.33 23.56L260.08 22.02L263.71 20.54L267.28 19.09L270.77 17.7L274.17 16.34L277.48 15.01L280.67 13.73L283.78 12.52L286.77 11.34L289.64 10.21L292.39 9.15L295.03 8.11L297.55 7.13L299.92 6.22L302.17 5.36L304.31 4.56L306.3 3.82L308.15 3.14L309.82 2.52L311.37 1.95L312.78 1.48L314.01 1.07L315.06 0.71L315.97 0.41L316.7 0.21L317.26 0.06L317.64 0L318.05 0L318.67 0.09L319.43 0.27ZM241.8 124.9L241.27 125.58L240.77 126.29L240.3 126.97L239.84 127.68L239.43 128.39L239.01 129.1L238.63 129.84L238.25 130.61L237.93 131.38L237.61 132.21L237.29 133.04L236.99 133.93L236.73 134.87L236.47 135.82L236.23 136.86L236.03 137.92L235.82 139.08L235.62 140.26L235.44 141.53L235.29 142.86L235.15 144.28L235 145.76L234.88 147.36L234.77 149.02L234.68 150.77L234.59 152.63L234.5 154.58L234.45 156.63L234.39 158.79L234.33 161.07L234.27 163.46L234.24 165.98L234.21 168.61L234.18 171.37L234.15 174.27L234.15 177.31L234.15 180.48L234.12 183.8L234.12 187.26L234.12 240.12L224.37 240.12L223.78 240.09L223.2 240.09L222.64 240.06L222.11 240.03L221.61 240L221.12 239.94L220.65 239.88L220.21 239.82L219.8 239.73L219.39 239.64L219.01 239.56L218.66 239.44L218.3 239.29L217.98 239.14L217.69 238.99L217.4 238.82L217.13 238.61L216.9 238.4L216.63 238.17L216.43 237.93L216.22 237.66L216.05 237.4L215.87 237.1L215.7 236.77L215.55 236.45L215.4 236.09L215.29 235.71L215.17 235.32L215.08 234.88L214.99 234.44L214.91 233.99L214.85 233.49L214.79 232.99L214.76 232.45L214.7 231.89L214.67 231.3L214.64 230.68L214.64 230.03L214.61 229.37L214.61 228.66L214.61 227.69L214.58 226.74L214.52 225.82L214.44 224.96L214.35 224.14L214.2 223.34L214.06 222.57L213.85 221.86L213.62 221.15L213.35 220.5L213.09 219.87L212.74 219.28L212.39 218.69L211.98 218.16L211.54 217.65L211.04 217.18L210.51 216.74L209.95 216.32L209.34 215.94L208.67 215.55L207.96 215.23L207.2 214.9L206.38 214.61L205.53 214.34L204.59 214.07L203.63 213.87L202.6 213.66L201.52 213.45L200.35 213.3L199.14 213.16L197.89 213.01L196.54 212.89L195.13 212.8L193.67 212.71L192.14 212.65L190.53 212.59L188.86 212.56L187.1 212.53L185.29 212.5L183.41 212.5L181.51 212.5L179.69 212.53L177.94 212.56L176.27 212.59L174.65 212.65L173.13 212.71L171.67 212.8L170.26 212.89L168.94 213.01L167.65 213.13L166.45 213.27L165.31 213.45L164.23 213.63L163.17 213.84L162.2 214.07L161.3 214.31L160.42 214.58L159.6 214.87L158.84 215.17L158.13 215.52L157.46 215.88L156.84 216.26L156.29 216.68L155.76 217.09L155.26 217.57L154.82 218.07L154.41 218.57L154.06 219.13L153.74 219.73L153.45 220.32L153.18 220.97L152.95 221.65L152.77 222.36L152.6 223.1L152.48 223.87L152.36 224.67L152.27 225.53L152.21 226.42L152.19 227.33L152.19 228.28L152.19 228.87L152.16 229.43L152.16 230L152.1 230.53L152.07 231.06L152.01 231.59L151.95 232.1L151.89 232.6L151.8 233.07L151.75 233.55L151.63 233.99L151.54 234.44L151.42 234.88L151.28 235.29L151.16 235.68L151.01 236.09L150.87 236.48L150.69 236.83L150.52 237.19L150.34 237.54L150.14 237.87L149.93 238.19L149.72 238.52L149.49 238.82L149.26 239.08L148.99 239.38L148.73 239.64L148.47 239.88L148.2 240.12L147.91 240.36L147.59 240.59L147.29 240.8L146.97 240.98L146.62 241.18L146.27 241.36L145.92 241.51L145.57 241.69L145.18 241.81L144.77 241.95L144.36 242.07L144.01 242.19L143.66 242.34L143.28 242.49L142.9 242.63L142.52 242.81L142.14 242.99L141.73 243.17L141.32 243.37L140.94 243.58L140.53 243.79L140.09 244.03L139.68 244.26L139.27 244.5L138.83 244.77L138.42 245L137.98 245.27L137.57 245.56L137.13 245.83L136.72 246.13L136.28 246.42L135.87 246.72L135.43 247.01L135.02 247.34L134.61 247.64L134.2 247.96L133.79 248.29L133.38 248.61L132.97 248.94L132.59 249.26L132.21 249.62L131.83 249.94L131.45 250.3L131.06 250.65L130.71 251.01L130.36 251.34L130.04 251.69L129.69 252.05L129.37 252.4L129.07 252.76L128.78 253.11L128.22 253.7L127.7 254.3L127.23 254.92L126.76 255.54L126.32 256.19L125.88 256.87L125.5 257.61L125.12 258.41L124.77 259.27L124.41 260.18L124.12 261.19L123.8 262.29L123.54 263.5L123.27 264.8L123.04 266.22L122.8 267.76L122.6 269.42L122.42 271.25L122.25 273.21L122.07 275.34L121.92 277.65L121.81 280.1L121.69 282.77L121.57 285.61L121.48 288.69L121.4 291.94L121.31 295.43L121.25 299.13L121.19 303.1L121.13 307.27L121.1 311.74L121.07 316.45L121.05 321.45L121.02 326.72L120.99 332.25L120.99 338.11L120.99 344.27L120.96 350.75L120.96 357.56L120.96 364.69L120.96 371.88L120.96 378.75L120.99 385.26L120.99 391.48L120.99 397.37L121.02 402.96L121.05 408.26L121.07 413.26L121.1 417.99L121.13 422.46L121.19 426.7L121.25 430.66L121.34 434.39L121.4 437.88L121.48 441.17L121.6 444.25L121.72 447.12L121.84 449.78L121.98 452.27L122.13 454.58L122.31 456.74L122.48 458.75L122.69 460.58L122.89 462.3L123.13 463.87L123.39 465.32L123.65 466.68L123.95 467.92L124.27 469.08L124.59 470.14L124.94 471.15L125.32 472.07L125.7 472.96L126.11 473.78L126.55 474.55L127.02 475.32L127.52 476.06L128.05 476.77L128.57 477.51L129.16 478.25L136.95 488.49L503.81 488.49L513.15 478.64L522.91 469.17L522.91 262.97L511.6 251.54L510.78 250.71L509.99 249.91L509.2 249.15L508.47 248.44L507.73 247.75L507.03 247.13L506.33 246.51L505.65 245.95L504.95 245.42L504.25 244.94L503.52 244.47L502.78 244.03L502.05 243.61L501.26 243.26L500.44 242.9L499.62 242.57L498.71 242.28L497.77 242.01L496.81 241.75L495.75 241.54L494.64 241.33L493.47 241.15L492.21 240.98L490.89 240.83L489.48 240.71L487.99 240.59L486.41 240.5L484.71 240.41L482.92 240.36L481.05 240.3L479.03 240.24L476.89 240.21L474.66 240.18L472.26 240.15L469.77 240.12L467.1 240.12L464.32 240.12L461.36 240.12L458.29 240.12L455 240.12L409.74 240.12L409.74 190.81L409.74 187.02L409.71 183.32L409.69 179.77L409.63 176.31L409.54 172.99L409.45 169.8L409.33 166.72L409.19 163.73L409.04 160.86L408.87 158.11L408.69 155.47L408.46 152.93L408.22 150.47L407.96 148.13L407.69 145.91L407.4 143.75L407.05 141.71L406.73 139.76L406.35 137.89L405.94 136.12L405.53 134.43L405.09 132.83L404.59 131.32L404.09 129.87L403.56 128.51L403.01 127.24L402.45 126.02L401.83 124.9L401.19 123.83L400.52 122.86L399.84 121.91L399.11 121.05L398.35 120.28L397.56 119.54L396.74 118.86L395.89 118.24L395.01 117.68L394.1 117.17L393.16 116.7L392.2 116.32L391.87 116.23L391.43 116.14L390.91 116.05L390.26 115.96L389.5 115.87L388.65 115.78L387.71 115.69L386.69 115.6L385.55 115.52L384.35 115.43L383.03 115.34L381.62 115.28L380.16 115.19L378.6 115.1L376.96 115.04L375.24 114.95L373.45 114.89L371.6 114.81L369.7 114.75L367.71 114.69L365.66 114.6L363.55 114.54L361.38 114.48L359.15 114.42L356.87 114.36L354.52 114.33L352.15 114.27L349.75 114.21L347.29 114.18L344.77 114.15L342.22 114.1L339.64 114.07L337.03 114.04L334.4 114.01L331.73 113.98L329.04 113.98L326.31 113.95L323.56 113.95L320.81 113.95L318.05 113.95L250.15 113.95L242.33 124.19L241.8 124.9ZM334.11 262.88L338.53 263.53L342.89 264.39L347.2 265.42L351.42 266.64L355.58 268.06L359.65 269.66L363.63 271.4L367.5 273.36L371.31 275.46L375 277.74L378.57 280.16L382.06 282.77L385.4 285.49L388.65 288.39L391.76 291.41L394.75 294.61L397.62 297.92L400.31 301.35L402.89 304.94L405.32 308.63L407.61 312.45L409.71 316.39L411.68 320.44L413.46 324.59L415.11 328.85L416.54 333.23L417.83 337.67L418.91 342.23L419.82 346.87L420.52 351.61L421.05 356.43L421.34 361.32L421.46 366.26L421.37 370.64L421.14 374.93L420.79 379.16L420.26 383.34L419.59 387.42L418.8 391.42L417.86 395.32L416.77 399.17L415.54 402.93L414.2 406.6L412.7 410.18L411.09 413.67L409.36 417.05L407.49 420.36L405.5 423.56L403.39 426.67L401.16 429.69L398.82 432.59L396.36 435.4L393.81 438.09L391.11 440.67L388.33 443.15L385.43 445.49L382.41 447.74L379.34 449.87L376.11 451.88L372.83 453.78L369.43 455.55L365.92 457.18L362.35 458.69L358.68 460.08L354.9 461.35L351.07 462.45L347.14 463.46L343.13 464.28L339.06 464.99L334.87 465.59L330.65 466L326.31 466.3L321.95 466.42L320.25 466.42L318.61 466.42L317.03 466.39L315.47 466.36L313.98 466.33L312.54 466.3L311.14 466.24L309.79 466.18L308.47 466.09L307.18 466.03L305.95 465.91L304.75 465.82L303.55 465.68L302.41 465.56L301.27 465.41L300.15 465.23L299.07 465.05L297.99 464.85L296.93 464.64L295.91 464.4L294.85 464.14L293.83 463.87L292.8 463.57L291.8 463.28L290.78 462.92L289.75 462.57L288.73 462.21L287.7 461.8L286.65 461.38L285.62 460.94L284.54 460.47L283.45 459.96L282.37 459.43L281.26 458.9L280.12 458.31L278.94 457.71L277.74 457.06L276.51 456.41L275.25 455.7L273.93 454.99L270.13 452.8L266.41 450.49L262.86 448.09L259.4 445.58L256.12 442.94L252.93 440.25L249.91 437.44L247.01 434.51L244.26 431.52L241.62 428.44L239.16 425.31L236.82 422.08L234.59 418.76L232.54 415.39L230.64 411.96L228.88 408.44L227.24 404.88L225.77 401.27L224.43 397.6L223.25 393.87L222.23 390.11L221.35 386.3L220.62 382.48L220.06 378.6L219.62 374.69L219.36 370.76L219.27 366.82L219.3 362.83L219.5 358.86L219.89 354.86L220.41 350.84L221.12 346.84L221.97 342.82L222.96 338.82L224.16 334.8L225.51 330.8L227 326.84L228.7 322.87L230.55 318.93L232.57 315.03L233.71 312.96L234.86 310.94L236.06 308.99L237.29 307.04L238.55 305.14L239.84 303.31L241.15 301.47L242.5 299.7L243.88 297.95L245.28 296.26L246.72 294.61L248.21 292.98L249.71 291.41L251.26 289.87L252.81 288.36L254.42 286.88L256.04 285.46L257.7 284.1L259.4 282.77L261.1 281.47L262.86 280.19L264.65 278.98L266.43 277.8L268.28 276.67L270.16 275.58L272.06 274.51L273.99 273.5L275.93 272.53L277.92 271.61L279.94 270.72L281.99 269.86L284.04 269.06L286.15 268.29L288.29 267.58L290.43 266.9L292.62 266.28L294.85 265.69L297.08 265.13L299.36 264.62L301.65 264.15L306.39 263.32L311.14 262.7L315.83 262.32L320.45 262.14L325.05 262.2L329.59 262.43L334.11 262.88ZM315.5 295.88L314.04 296.06L312.57 296.29L311.11 296.59L309.62 296.94L308.09 297.33L306.54 297.8L304.96 298.34L303.32 298.93L301.65 299.58L299.89 300.29L298.07 301.06L296.2 301.89L294.24 302.8L287.41 306.36L281.29 310.38L275.78 314.85L270.95 319.7L266.76 324.91L263.18 330.42L260.22 336.16L257.85 342.11L256.12 348.24L254.95 354.45L254.37 360.75L254.34 367.06L254.86 373.36L255.95 379.58L257.56 385.68L259.7 391.62L262.36 397.34L265.53 402.81L269.16 407.99L273.32 412.82L277.95 417.23L283.02 421.22L288.55 424.71L294.53 427.67L300.97 430.07L307.8 431.85L315.06 432.91L322.71 433.3L327.37 433.12L331.91 432.62L336.36 431.79L340.7 430.66L344.89 429.24L348.99 427.52L352.91 425.54L356.69 423.32L360.32 420.84L363.78 418.14L367.06 415.21L370.17 412.11L373.07 408.79L375.73 405.3L378.22 401.66L380.48 397.87L382.47 393.93L384.23 389.88L385.75 385.7L387.01 381.44L387.98 377.09L388.65 372.65L389.06 368.18L389.15 363.66L388.94 359.1L388.42 354.54L387.54 349.95L386.34 345.36L385.66 343.17L384.87 341.01L383.99 338.82L383.03 336.66L381.97 334.53L380.83 332.43L379.6 330.36L378.28 328.32L376.9 326.3L375.47 324.32L373.95 322.4L372.36 320.5L370.72 318.67L369.02 316.89L367.27 315.18L365.48 313.49L363.63 311.89L361.73 310.38L359.83 308.93L357.86 307.54L355.87 306.24L353.85 305.02L351.83 303.87L349.78 302.83L347.7 301.89L345.62 301.03L343.54 300.29L341.46 299.64L339.26 299.05L337.15 298.48L335.13 297.95L333.2 297.51L331.32 297.09L329.54 296.74L327.81 296.41L326.17 296.17L324.53 295.97L322.97 295.82L321.42 295.7L319.93 295.67L318.43 295.67L316.97 295.76L315.5 295.88ZM344.3 137.86L350.31 138.13L355.61 138.48L360.24 138.96L364.22 139.58L367.59 140.35L370.43 141.29L372.74 142.42L374.59 143.75L376.03 145.29L377.05 147.1L377.73 149.11L378.08 151.42L378.19 153.99L378.05 156.89L377.75 160.06L376.58 171.1L324.29 172.28L315.71 172.46L307.95 172.55L300.91 172.55L294.65 172.46L289.02 172.28L284.07 171.99L279.71 171.57L275.93 171.04L272.67 170.36L269.92 169.56L267.64 168.58L265.76 167.46L264.3 166.19L263.18 164.71L262.36 163.08L261.84 161.21L261.54 159.17L261.45 156.92L261.48 156.3L261.54 155.65L261.66 154.94L261.84 154.2L262.04 153.46L262.3 152.66L262.57 151.86L262.89 151.06L263.27 150.26L263.65 149.46L264.06 148.66L264.53 147.89L265 147.13L265.5 146.42L266.02 145.7L266.55 145.05L267.11 144.46L267.69 143.9L268.54 143.07L269.51 142.33L270.65 141.65L271.97 141.03L273.49 140.5L275.25 139.99L277.24 139.55L279.5 139.16L282.05 138.84L284.89 138.54L288.08 138.31L291.63 138.1L295.55 137.92L299.86 137.8L304.61 137.71L309.79 137.65L315.42 137.6L321.54 137.6L329.97 137.62L337.53 137.71L344.3 137.86Z" id="bwATX2VC3"></path><path d="M319.43 0.27L320.37 0.5L321.45 0.8L322.74 1.18L324.17 1.66L325.76 2.19L327.48 2.78L329.36 3.43L331.41 4.14L333.58 4.94L335.86 5.77L338.32 6.69L340.87 7.64L343.57 8.64L346.38 9.74L349.31 10.86L352.36 12.02L355.49 13.26L358.77 14.53L362.11 15.83L365.57 17.2L369.11 18.62L372.77 20.07L376.49 21.55L380.3 23.09L384.17 24.65L388.15 26.25L392.17 27.88L396.27 29.54L400.43 31.25L404.65 32.97L408.92 34.72L413.26 36.49L417.62 38.3L422.05 40.13L426.5 41.97L430.98 43.83L435.49 45.73L545.93 91.45L592.78 206.2L640 320.53L592.78 434.86L545.93 549.61L433.94 596.14L427.2 598.95L420.7 601.64L414.46 604.25L408.46 606.7L402.71 609.1L397.21 611.35L391.9 613.54L386.84 615.58L382 617.57L377.37 619.43L372.95 621.21L368.73 622.89L364.72 624.49L360.88 625.97L357.25 627.39L353.79 628.72L350.51 629.97L347.41 631.12L344.48 632.19L341.69 633.19L339.09 634.11L336.6 634.97L334.28 635.74L332.08 636.45L330.03 637.07L328.1 637.63L326.31 638.14L324.64 638.58L323.06 638.96L321.6 639.26L320.25 639.53L318.99 639.73L317.82 639.88L316.73 639.97L315.74 640L314.83 640L313.98 639.94L313.19 639.82L312.46 639.7L311.78 639.5L311.28 639.35L310.64 639.11L309.79 638.82L308.82 638.46L307.65 638.02L306.36 637.51L304.9 636.95L303.32 636.33L301.59 635.65L299.68 634.91L297.69 634.08L295.55 633.22L293.27 632.3L290.87 631.36L288.35 630.32L285.74 629.26L282.99 628.13L280.14 626.98L277.19 625.76L274.14 624.52L270.98 623.22L267.75 621.89L264.41 620.53L260.99 619.13L257.5 617.68L253.93 616.2L250.26 614.69L246.54 613.16L242.76 611.59L238.93 610.02L235 608.39L231.05 606.76L227.03 605.08L222.96 603.42L218.86 601.7L214.73 599.99L210.54 598.27L206.35 596.52L202.1 594.75L197.86 592.97L94.04 549.61L47.19 434.86L0 320.15L47.19 206.2L94.04 91.87L202.13 46.11L206.56 44.25L210.98 42.38L215.34 40.52L219.68 38.71L223.96 36.91L228.21 35.13L232.42 33.39L236.55 31.67L240.63 29.98L244.67 28.32L248.62 26.7L252.52 25.1L256.33 23.56L260.08 22.02L263.71 20.54L267.28 19.09L270.77 17.7L274.17 16.34L277.48 15.01L280.67 13.73L283.78 12.52L286.77 11.34L289.64 10.21L292.39 9.15L295.03 8.11L297.55 7.13L299.92 6.22L302.17 5.36L304.31 4.56L306.3 3.82L308.15 3.14L309.82 2.52L311.37 1.95L312.78 1.48L314.01 1.07L315.06 0.71L315.97 0.41L316.7 0.21L317.26 0.06L317.64 0L318.05 0L318.67 0.09L319.43 0.27ZM241.8 124.9L241.27 125.58L240.77 126.29L240.3 126.97L239.84 127.68L239.43 128.39L239.01 129.1L238.63 129.84L238.25 130.61L237.93 131.38L237.61 132.21L237.29 133.04L236.99 133.93L236.73 134.87L236.47 135.82L236.23 136.86L236.03 137.92L235.82 139.08L235.62 140.26L235.44 141.53L235.29 142.86L235.15 144.28L235 145.76L234.88 147.36L234.77 149.02L234.68 150.77L234.59 152.63L234.5 154.58L234.45 156.63L234.39 158.79L234.33 161.07L234.27 163.46L234.24 165.98L234.21 168.61L234.18 171.37L234.15 174.27L234.15 177.31L234.15 180.48L234.12 183.8L234.12 187.26L234.12 240.12L224.37 240.12L223.78 240.09L223.2 240.09L222.64 240.06L222.11 240.03L221.61 240L221.12 239.94L220.65 239.88L220.21 239.82L219.8 239.73L219.39 239.64L219.01 239.56L218.66 239.44L218.3 239.29L217.98 239.14L217.69 238.99L217.4 238.82L217.13 238.61L216.9 238.4L216.63 238.17L216.43 237.93L216.22 237.66L216.05 237.4L215.87 237.1L215.7 236.77L215.55 236.45L215.4 236.09L215.29 235.71L215.17 235.32L215.08 234.88L214.99 234.44L214.91 233.99L214.85 233.49L214.79 232.99L214.76 232.45L214.7 231.89L214.67 231.3L214.64 230.68L214.64 230.03L214.61 229.37L214.61 228.66L214.61 227.69L214.58 226.74L214.52 225.82L214.44 224.96L214.35 224.14L214.2 223.34L214.06 222.57L213.85 221.86L213.62 221.15L213.35 220.5L213.09 219.87L212.74 219.28L212.39 218.69L211.98 218.16L211.54 217.65L211.04 217.18L210.51 216.74L209.95 216.32L209.34 215.94L208.67 215.55L207.96 215.23L207.2 214.9L206.38 214.61L205.53 214.34L204.59 214.07L203.63 213.87L202.6 213.66L201.52 213.45L200.35 213.3L199.14 213.16L197.89 213.01L196.54 212.89L195.13 212.8L193.67 212.71L192.14 212.65L190.53 212.59L188.86 212.56L187.1 212.53L185.29 212.5L183.41 212.5L181.51 212.5L179.69 212.53L177.94 212.56L176.27 212.59L174.65 212.65L173.13 212.71L171.67 212.8L170.26 212.89L168.94 213.01L167.65 213.13L166.45 213.27L165.31 213.45L164.23 213.63L163.17 213.84L162.2 214.07L161.3 214.31L160.42 214.58L159.6 214.87L158.84 215.17L158.13 215.52L157.46 215.88L156.84 216.26L156.29 216.68L155.76 217.09L155.26 217.57L154.82 218.07L154.41 218.57L154.06 219.13L153.74 219.73L153.45 220.32L153.18 220.97L152.95 221.65L152.77 222.36L152.6 223.1L152.48 223.87L152.36 224.67L152.27 225.53L152.21 226.42L152.19 227.33L152.19 228.28L152.19 228.87L152.16 229.43L152.16 230L152.1 230.53L152.07 231.06L152.01 231.59L151.95 232.1L151.89 232.6L151.8 233.07L151.75 233.55L151.63 233.99L151.54 234.44L151.42 234.88L151.28 235.29L151.16 235.68L151.01 236.09L150.87 236.48L150.69 236.83L150.52 237.19L150.34 237.54L150.14 237.87L149.93 238.19L149.72 238.52L149.49 238.82L149.26 239.08L148.99 239.38L148.73 239.64L148.47 239.88L148.2 240.12L147.91 240.36L147.59 240.59L147.29 240.8L146.97 240.98L146.62 241.18L146.27 241.36L145.92 241.51L145.57 241.69L145.18 241.81L144.77 241.95L144.36 242.07L144.01 242.19L143.66 242.34L143.28 242.49L142.9 242.63L142.52 242.81L142.14 242.99L141.73 243.17L141.32 243.37L140.94 243.58L140.53 243.79L140.09 244.03L139.68 244.26L139.27 244.5L138.83 244.77L138.42 245L137.98 245.27L137.57 245.56L137.13 245.83L136.72 246.13L136.28 246.42L135.87 246.72L135.43 247.01L135.02 247.34L134.61 247.64L134.2 247.96L133.79 248.29L133.38 248.61L132.97 248.94L132.59 249.26L132.21 249.62L131.83 249.94L131.45 250.3L131.06 250.65L130.71 251.01L130.36 251.34L130.04 251.69L129.69 252.05L129.37 252.4L129.07 252.76L128.78 253.11L128.22 253.7L127.7 254.3L127.23 254.92L126.76 255.54L126.32 256.19L125.88 256.87L125.5 257.61L125.12 258.41L124.77 259.27L124.41 260.18L124.12 261.19L123.8 262.29L123.54 263.5L123.27 264.8L123.04 266.22L122.8 267.76L122.6 269.42L122.42 271.25L122.25 273.21L122.07 275.34L121.92 277.65L121.81 280.1L121.69 282.77L121.57 285.61L121.48 288.69L121.4 291.94L121.31 295.43L121.25 299.13L121.19 303.1L121.13 307.27L121.1 311.74L121.07 316.45L121.05 321.45L121.02 326.72L120.99 332.25L120.99 338.11L120.99 344.27L120.96 350.75L120.96 357.56L120.96 364.69L120.96 371.88L120.96 378.75L120.99 385.26L120.99 391.48L120.99 397.37L121.02 402.96L121.05 408.26L121.07 413.26L121.1 417.99L121.13 422.46L121.19 426.7L121.25 430.66L121.34 434.39L121.4 437.88L121.48 441.17L121.6 444.25L121.72 447.12L121.84 449.78L121.98 452.27L122.13 454.58L122.31 456.74L122.48 458.75L122.69 460.58L122.89 462.3L123.13 463.87L123.39 465.32L123.65 466.68L123.95 467.92L124.27 469.08L124.59 470.14L124.94 471.15L125.32 472.07L125.7 472.96L126.11 473.78L126.55 474.55L127.02 475.32L127.52 476.06L128.05 476.77L128.57 477.51L129.16 478.25L136.95 488.49L503.81 488.49L513.15 478.64L522.91 469.17L522.91 262.97L511.6 251.54L510.78 250.71L509.99 249.91L509.2 249.15L508.47 248.44L507.73 247.75L507.03 247.13L506.33 246.51L505.65 245.95L504.95 245.42L504.25 244.94L503.52 244.47L502.78 244.03L502.05 243.61L501.26 243.26L500.44 242.9L499.62 242.57L498.71 242.28L497.77 242.01L496.81 241.75L495.75 241.54L494.64 241.33L493.47 241.15L492.21 240.98L490.89 240.83L489.48 240.71L487.99 240.59L486.41 240.5L484.71 240.41L482.92 240.36L481.05 240.3L479.03 240.24L476.89 240.21L474.66 240.18L472.26 240.15L469.77 240.12L467.1 240.12L464.32 240.12L461.36 240.12L458.29 240.12L455 240.12L409.74 240.12L409.74 190.81L409.74 187.02L409.71 183.32L409.69 179.77L409.63 176.31L409.54 172.99L409.45 169.8L409.33 166.72L409.19 163.73L409.04 160.86L408.87 158.11L408.69 155.47L408.46 152.93L408.22 150.47L407.96 148.13L407.69 145.91L407.4 143.75L407.05 141.71L406.73 139.76L406.35 137.89L405.94 136.12L405.53 134.43L405.09 132.83L404.59 131.32L404.09 129.87L403.56 128.51L403.01 127.24L402.45 126.02L401.83 124.9L401.19 123.83L400.52 122.86L399.84 121.91L399.11 121.05L398.35 120.28L397.56 119.54L396.74 118.86L395.89 118.24L395.01 117.68L394.1 117.17L393.16 116.7L392.2 116.32L391.87 116.23L391.43 116.14L390.91 116.05L390.26 115.96L389.5 115.87L388.65 115.78L387.71 115.69L386.69 115.6L385.55 115.52L384.35 115.43L383.03 115.34L381.62 115.28L380.16 115.19L378.6 115.1L376.96 115.04L375.24 114.95L373.45 114.89L371.6 114.81L369.7 114.75L367.71 114.69L365.66 114.6L363.55 114.54L361.38 114.48L359.15 114.42L356.87 114.36L354.52 114.33L352.15 114.27L349.75 114.21L347.29 114.18L344.77 114.15L342.22 114.1L339.64 114.07L337.03 114.04L334.4 114.01L331.73 113.98L329.04 113.98L326.31 113.95L323.56 113.95L320.81 113.95L318.05 113.95L250.15 113.95L242.33 124.19L241.8 124.9ZM334.11 262.88L338.53 263.53L342.89 264.39L347.2 265.42L351.42 266.64L355.58 268.06L359.65 269.66L363.63 271.4L367.5 273.36L371.31 275.46L375 277.74L378.57 280.16L382.06 282.77L385.4 285.49L388.65 288.39L391.76 291.41L394.75 294.61L397.62 297.92L400.31 301.35L402.89 304.94L405.32 308.63L407.61 312.45L409.71 316.39L411.68 320.44L413.46 324.59L415.11 328.85L416.54 333.23L417.83 337.67L418.91 342.23L419.82 346.87L420.52 351.61L421.05 356.43L421.34 361.32L421.46 366.26L421.37 370.64L421.14 374.93L420.79 379.16L420.26 383.34L419.59 387.42L418.8 391.42L417.86 395.32L416.77 399.17L415.54 402.93L414.2 406.6L412.7 410.18L411.09 413.67L409.36 417.05L407.49 420.36L405.5 423.56L403.39 426.67L401.16 429.69L398.82 432.59L396.36 435.4L393.81 438.09L391.11 440.67L388.33 443.15L385.43 445.49L382.41 447.74L379.34 449.87L376.11 451.88L372.83 453.78L369.43 455.55L365.92 457.18L362.35 458.69L358.68 460.08L354.9 461.35L351.07 462.45L347.14 463.46L343.13 464.28L339.06 464.99L334.87 465.59L330.65 466L326.31 466.3L321.95 466.42L320.25 466.42L318.61 466.42L317.03 466.39L315.47 466.36L313.98 466.33L312.54 466.3L311.14 466.24L309.79 466.18L308.47 466.09L307.18 466.03L305.95 465.91L304.75 465.82L303.55 465.68L302.41 465.56L301.27 465.41L300.15 465.23L299.07 465.05L297.99 464.85L296.93 464.64L295.91 464.4L294.85 464.14L293.83 463.87L292.8 463.57L291.8 463.28L290.78 462.92L289.75 462.57L288.73 462.21L287.7 461.8L286.65 461.38L285.62 460.94L284.54 460.47L283.45 459.96L282.37 459.43L281.26 458.9L280.12 458.31L278.94 457.71L277.74 457.06L276.51 456.41L275.25 455.7L273.93 454.99L270.13 452.8L266.41 450.49L262.86 448.09L259.4 445.58L256.12 442.94L252.93 440.25L249.91 437.44L247.01 434.51L244.26 431.52L241.62 428.44L239.16 425.31L236.82 422.08L234.59 418.76L232.54 415.39L230.64 411.96L228.88 408.44L227.24 404.88L225.77 401.27L224.43 397.6L223.25 393.87L222.23 390.11L221.35 386.3L220.62 382.48L220.06 378.6L219.62 374.69L219.36 370.76L219.27 366.82L219.3 362.83L219.5 358.86L219.89 354.86L220.41 350.84L221.12 346.84L221.97 342.82L222.96 338.82L224.16 334.8L225.51 330.8L227 326.84L228.7 322.87L230.55 318.93L232.57 315.03L233.71 312.96L234.86 310.94L236.06 308.99L237.29 307.04L238.55 305.14L239.84 303.31L241.15 301.47L242.5 299.7L243.88 297.95L245.28 296.26L246.72 294.61L248.21 292.98L249.71 291.41L251.26 289.87L252.81 288.36L254.42 286.88L256.04 285.46L257.7 284.1L259.4 282.77L261.1 281.47L262.86 280.19L264.65 278.98L266.43 277.8L268.28 276.67L270.16 275.58L272.06 274.51L273.99 273.5L275.93 272.53L277.92 271.61L279.94 270.72L281.99 269.86L284.04 269.06L286.15 268.29L288.29 267.58L290.43 266.9L292.62 266.28L294.85 265.69L297.08 265.13L299.36 264.62L301.65 264.15L306.39 263.32L311.14 262.7L315.83 262.32L320.45 262.14L325.05 262.2L329.59 262.43L334.11 262.88ZM315.5 295.88L314.04 296.06L312.57 296.29L311.11 296.59L309.62 296.94L308.09 297.33L306.54 297.8L304.96 298.34L303.32 298.93L301.65 299.58L299.89 300.29L298.07 301.06L296.2 301.89L294.24 302.8L287.41 306.36L281.29 310.38L275.78 314.85L270.95 319.7L266.76 324.91L263.18 330.42L260.22 336.16L257.85 342.11L256.12 348.24L254.95 354.45L254.37 360.75L254.34 367.06L254.86 373.36L255.95 379.58L257.56 385.68L259.7 391.62L262.36 397.34L265.53 402.81L269.16 407.99L273.32 412.82L277.95 417.23L283.02 421.22L288.55 424.71L294.53 427.67L300.97 430.07L307.8 431.85L315.06 432.91L322.71 433.3L327.37 433.12L331.91 432.62L336.36 431.79L340.7 430.66L344.89 429.24L348.99 427.52L352.91 425.54L356.69 423.32L360.32 420.84L363.78 418.14L367.06 415.21L370.17 412.11L373.07 408.79L375.73 405.3L378.22 401.66L380.48 397.87L382.47 393.93L384.23 389.88L385.75 385.7L387.01 381.44L387.98 377.09L388.65 372.65L389.06 368.18L389.15 363.66L388.94 359.1L388.42 354.54L387.54 349.95L386.34 345.36L385.66 343.17L384.87 341.01L383.99 338.82L383.03 336.66L381.97 334.53L380.83 332.43L379.6 330.36L378.28 328.32L376.9 326.3L375.47 324.32L373.95 322.4L372.36 320.5L370.72 318.67L369.02 316.89L367.27 315.18L365.48 313.49L363.63 311.89L361.73 310.38L359.83 308.93L357.86 307.54L355.87 306.24L353.85 305.02L351.83 303.87L349.78 302.83L347.7 301.89L345.62 301.03L343.54 300.29L341.46 299.64L339.26 299.05L337.15 298.48L335.13 297.95L333.2 297.51L331.32 297.09L329.54 296.74L327.81 296.41L326.17 296.17L324.53 295.97L322.97 295.82L321.42 295.7L319.93 295.67L318.43 295.67L316.97 295.76L315.5 295.88ZM344.3 137.86L350.31 138.13L355.61 138.48L360.24 138.96L364.22 139.58L367.59 140.35L370.43 141.29L372.74 142.42L374.59 143.75L376.03 145.29L377.05 147.1L377.73 149.11L378.08 151.42L378.19 153.99L378.05 156.89L377.75 160.06L376.58 171.1L324.29 172.28L315.71 172.46L307.95 172.55L300.91 172.55L294.65 172.46L289.02 172.28L284.07 171.99L279.71 171.57L275.93 171.04L272.67 170.36L269.92 169.56L267.64 168.58L265.76 167.46L264.3 166.19L263.18 164.71L262.36 163.08L261.84 161.21L261.54 159.17L261.45 156.92L261.48 156.3L261.54 155.65L261.66 154.94L261.84 154.2L262.04 153.46L262.3 152.66L262.57 151.86L262.89 151.06L263.27 150.26L263.65 149.46L264.06 148.66L264.53 147.89L265 147.13L265.5 146.42L266.02 145.7L266.55 145.05L267.11 144.46L267.69 143.9L268.54 143.07L269.51 142.33L270.65 141.65L271.97 141.03L273.49 140.5L275.25 139.99L277.24 139.55L279.5 139.16L282.05 138.84L284.89 138.54L288.08 138.31L291.63 138.1L295.55 137.92L299.86 137.8L304.61 137.71L309.79 137.65L315.42 137.6L321.54 137.6L329.97 137.62L337.53 137.71L344.3 137.86Z" id="e15LjOv27N"></path></defs><g><g><g><use xlink:href="#bwATX2VC3" opacity="1" fill="#e64e04" fill-opacity="1"></use><g><use xlink:href="#bwATX2VC3" opacity="1" fill-opacity="0" stroke="#000000" stroke-width="1" stroke-opacity="0"></use></g></g><g><use xlink:href="#e15LjOv27N" opacity="1" fill="#000000" fill-opacity="0"></use><g><use xlink:href="#e15LjOv27N" opacity="1" fill-opacity="0" stroke="#000000" stroke-width="1" stroke-opacity="0"></use></g></g></g></g></svg>