<?xml version="1.0" encoding="UTF-8" standalone="no"?>
<!DOCTYPE svg PUBLIC "-//W3C//DTD SVG 1.1//EN" "http://www.w3.org/Graphics/SVG/1.1/DTD/svg11.dtd">
<svg version="1.1" xmlns="http://www.w3.org/2000/svg" xmlns:xlink="http://www.w3.org/1999/xlink" preserveAspectRatio="xMidYMid meet" viewBox="0 0 640 640" width="100" height="100"><defs><path d="M319.43 0.27L320.37 0.5L321.48 0.83L322.74 1.21L324.17 1.66L325.76 2.19L327.51 2.78L329.39 3.43L331.41 4.14L333.58 4.94L335.89 5.77L338.32 6.69L340.9 7.64L343.6 8.67L346.41 9.74L349.34 10.86L352.36 12.05L355.52 13.26L358.77 14.53L362.14 15.86L365.6 17.23L369.14 18.62L372.77 20.07L376.49 21.58L380.3 23.09L384.2 24.65L388.15 26.25L392.2 27.88L396.3 29.57L400.46 31.25L404.68 32.97L408.95 34.75L413.26 36.52L417.62 38.33L422.05 40.13L426.5 42L431.01 43.86L435.52 45.73L545.96 91.48L592.78 206.2L640 320.53L592.78 434.89L545.96 549.61L433.97 596.14L427.2 598.95L420.73 601.64L414.49 604.25L408.48 606.73L402.74 609.1L397.21 611.38L391.93 613.54L386.87 615.61L382.03 617.57L377.4 619.43L372.98 621.21L368.76 622.89L364.75 624.49L360.91 626L357.28 627.39L353.82 628.72L350.54 629.97L347.43 631.12L344.5 632.22L341.72 633.19L339.09 634.14L336.62 634.97L334.28 635.74L332.11 636.45L330.06 637.1L328.13 637.66L326.34 638.17L324.64 638.58L323.09 638.96L321.63 639.29L320.28 639.53L319.02 639.73L317.85 639.88L316.76 639.97L315.77 640L314.83 640L313.98 639.94L313.22 639.85L312.49 639.7L311.81 639.53L311.31 639.35L310.64 639.14L309.82 638.85L308.82 638.46L307.68 638.02L306.39 637.54L304.93 636.95L303.35 636.33L301.59 635.65L299.71 634.91L297.69 634.11L295.55 633.25L293.3 632.33L290.9 631.36L288.38 630.32L285.74 629.26L283.02 628.16L280.17 626.98L277.22 625.79L274.14 624.52L271 623.25L267.75 621.92L264.44 620.53L261.02 619.13L257.5 617.68L253.93 616.2L250.29 614.69L246.57 613.19L242.79 611.62L238.93 610.02L235.03 608.39L231.08 606.76L227.06 605.11L222.99 603.42L218.89 601.7L214.76 599.99L210.57 598.27L206.35 596.52L202.13 594.75L197.86 593L94.07 549.61L47.22 434.89L0 320.15L47.22 206.2L94.07 91.87L202.16 46.14L206.59 44.25L210.98 42.38L215.37 40.55L219.71 38.71L223.99 36.91L228.23 35.16L232.42 33.41L236.58 31.67L240.66 29.98L244.67 28.32L248.62 26.7L252.52 25.13L256.33 23.56L260.08 22.02L263.74 20.54L267.31 19.12L270.8 17.7L274.2 16.34L277.48 15.04L280.7 13.76L283.78 12.52L286.77 11.34L289.64 10.21L292.39 9.15L295.06 8.11L297.55 7.13L299.95 6.22L302.2 5.36L304.34 4.56L306.3 3.82L308.15 3.14L309.85 2.52L311.4 1.98L312.78 1.48L314.01 1.07L315.09 0.71L316 0.41L316.73 0.21L317.29 0.06L317.67 0L318.08 0L318.67 0.09L319.43 0.27ZM144.39 489.29L167.04 512.17L469.1 512.17L491.71 489.29L491.71 345.78L523.73 308.31L526.01 305.65L528.18 303.07L530.23 300.64L532.2 298.34L534.01 296.15L535.77 294.07L537.41 292.12L538.93 290.26L540.37 288.51L541.72 286.85L542.95 285.28L544.12 283.8L545.17 282.41L546.17 281.11L547.05 279.9L547.87 278.74L548.57 277.68L549.25 276.67L549.8 275.75L550.3 274.86L550.74 274.04L551.09 273.27L551.38 272.56L551.59 271.88L551.74 271.25L551.85 270.63L551.88 270.07L551.85 269.57L551.79 269.06L551.65 268.56L551.47 268.12L551.24 267.67L550.97 267.23L550.65 266.79L550.27 266.37L549.89 265.96L549.45 265.51L548.95 265.07L548.45 264.62L547.93 264.15L544.62 261.46L541.42 258.85L538.38 256.31L535.45 253.85L532.61 251.48L529.91 249.2L527.3 246.98L524.84 244.85L522.47 242.78L520.18 240.8L518.05 238.88L516 237.01L514.03 235.21L512.16 233.46L510.4 231.8L508.73 230.17L507.18 228.61L505.68 227.1L504.31 225.62L502.99 224.2L501.76 222.83L500.62 221.5L499.56 220.2L498.57 218.96L497.66 217.71L496.84 216.53L496.08 215.41L495.37 214.28L494.76 213.19L494.2 212.09L493.7 211.05L493.26 210.02L492.88 209.01L492.56 208.04L492.3 207.03L492.09 206.08L491.92 205.11L491.8 204.16L491.74 203.21L491.71 202.26L491.71 201.85L491.68 201.47L491.65 201.02L491.62 200.61L491.56 200.16L491.48 199.69L491.42 199.22L491.3 198.74L491.21 198.27L491.1 197.77L490.95 197.23L490.8 196.73L490.66 196.17L490.48 195.63L490.3 195.07L490.1 194.51L489.89 193.92L489.66 193.33L489.43 192.73L489.19 192.11L488.93 191.49L488.63 190.84L488.37 190.19L488.08 189.54L487.76 188.86L487.43 188.18L487.08 187.5L486.76 186.79L486.38 186.07L486 185.33L485.62 184.59L485.24 183.85L484.8 183.09L484.39 182.32L483.95 181.52L483.51 180.72L483.04 179.92L482.57 179.09L482.07 178.26L481.57 177.43L471.44 165.21L164.69 165.21L144.39 189.66L144.39 489.29ZM409.71 313.81L407.72 316.12L405.76 318.4L403.83 320.68L401.89 322.96L400.02 325.18L398.17 327.4L396.36 329.56L394.57 331.72L392.81 333.82L391.08 335.92L389.41 337.97L387.74 339.98L386.16 341.96L384.58 343.88L383.09 345.75L381.59 347.61L380.19 349.39L378.81 351.14L377.46 352.82L376.2 354.45L374.97 356.05L373.8 357.56L372.69 359.04L371.63 360.43L370.64 361.76L369.7 363.03L368.82 364.25L368 365.37L367.27 366.44L366.59 367.41L365.98 368.3L365.42 369.13L364.95 369.9L364.57 370.55L364.25 371.14L363.99 371.65L363.81 372.06L363.72 372.36L363.72 372.59L363.96 373.24L364.4 374.04L365.01 374.96L365.83 376.03L366.77 377.18L367.88 378.42L369.14 379.79L370.55 381.21L372.04 382.72L373.68 384.31L375.41 385.94L377.23 387.63L379.13 389.37L381.09 391.15L383.14 392.96L385.22 394.79L387.36 396.63L389.53 398.46L391.7 400.3L393.93 402.1L396.12 403.91L398.32 405.68L400.49 407.4L402.63 409.09L404.73 410.71L406.81 412.28L408.81 413.79L410.74 415.21L412.59 416.54L414.37 417.79L416.04 418.91L417.6 419.92L419.03 420.84L420.35 421.61L421.55 422.23L422.58 422.73L423.42 423.06L424.13 423.23L424.66 423.23L424.98 423.06L425.15 422.88L425.33 422.7L425.53 422.46L425.77 422.23L426 421.93L426.3 421.64L426.59 421.31L426.91 420.95L427.23 420.57L427.58 420.16L427.97 419.71L428.38 419.27L428.79 418.79L429.2 418.29L429.64 417.79L430.1 417.25L430.6 416.69L431.07 416.13L431.6 415.54L432.1 414.92L432.65 414.3L433.74 413.02L434.32 412.34L434.88 411.69L435.49 410.98L436.08 410.3L436.7 409.59L437.31 408.88L437.93 408.14L438.57 407.4L439.21 406.66L439.86 405.92L440.5 405.18L441.15 404.41L441.82 403.64L442.5 402.9L443.14 402.13L443.81 401.36L444.49 400.59L460.51 381.65L460.51 476.69L175.62 476.69L175.62 204.63L460.51 204.63L460.51 254.71L411.71 311.48L409.71 313.81ZM352.27 388.96L350.72 393.76L349.07 399.44L347.32 405.8L345.56 412.64L343.8 419.71L342.13 426.81L340.58 433.77L339.2 440.31L338.06 446.26L337.21 451.38L336.65 455.49L336.51 458.34L336.8 459.73L338.09 459.9L340.87 459.52L344.89 458.57L349.95 457.18L355.84 455.43L362.32 453.36L369.2 451.08L376.26 448.63L383.29 446.11L390.06 443.6L396.39 441.14L402.04 438.83L406.81 436.73L410.48 434.92L412.82 433.5L413.67 432.53L413.52 432.17L413.11 431.58L412.41 430.75L411.47 429.72L410.3 428.5L408.92 427.08L407.31 425.48L405.53 423.74L403.56 421.87L401.42 419.86L399.14 417.76L396.71 415.54L394.16 413.26L391.52 410.92L388.77 408.52L385.96 406.1L383.2 403.61L380.48 401.21L377.81 398.9L375.24 396.69L372.72 394.58L370.31 392.6L368.06 390.77L365.92 389.05L363.93 387.51L362.11 386.12L360.47 384.94L359.01 383.93L357.78 383.13L356.78 382.54L356.02 382.18L355.52 382.06L354.7 382.89L353.59 385.26L352.27 388.96ZM200.99 423.44L255.21 424.62L264.35 424.8L272.53 424.92L279.79 424.98L286.21 424.95L291.8 424.83L296.67 424.57L300.86 424.18L304.37 423.65L307.33 422.97L309.73 422.08L311.67 420.98L313.16 419.71L314.27 418.17L315.06 416.4L315.62 414.35L315.91 412.05L316.06 409.41L316.12 406.51L316.09 405.12L316 403.91L315.8 402.84L315.42 401.89L314.77 401.1L313.83 400.38L312.54 399.79L310.82 399.32L308.59 398.9L305.84 398.58L302.5 398.34L298.48 398.14L293.74 398.02L288.23 397.93L281.87 397.87L274.61 397.84L266.41 397.81L257.18 397.81L198.65 397.81L199.82 410.45L200.99 423.44ZM270.83 342.61L278.83 342.61L286.21 342.61L293 342.58L299.27 342.55L305.02 342.52L310.26 342.43L315.03 342.35L319.4 342.23L323.35 342.08L326.93 341.9L330.15 341.69L333.02 341.43L335.63 341.16L337.97 340.81L340.05 340.42L341.96 340.01L343.66 339.5L345.21 338.97L346.61 338.35L347.93 337.7L349.19 336.96L350.39 336.16L351.59 335.3L352.8 334.35L353.47 333.79L354.14 333.23L354.79 332.67L355.43 332.11L356.08 331.51L356.69 330.95L357.28 330.36L357.83 329.8L358.39 329.2L358.92 328.64L359.45 328.08L359.91 327.55L360.35 327.01L360.79 326.48L361.17 325.98L361.53 325.5L361.85 325.03L362.11 324.59L362.37 324.17L362.55 323.79L362.73 323.4L362.84 323.08L362.9 322.78L362.93 322.52L362.76 322.28L362.23 322.04L361.38 321.81L360.18 321.57L358.65 321.33L356.84 321.12L354.7 320.92L352.27 320.71L349.57 320.53L346.58 320.36L343.33 320.18L339.82 320L336.07 319.85L332.05 319.7L327.84 319.59L323.38 319.44L318.73 319.35L313.86 319.26L308.82 319.17L303.58 319.08L298.16 319.05L292.59 318.99L286.85 318.96L280.99 318.96L199.03 318.96L199.03 342.61L270.83 342.61ZM433.18 263.77L433.18 240.12L199.03 240.12L199.03 263.77L433.18 263.77ZM529.21 179.39L526.95 181.07L524.46 183.09L521.8 185.36L519.01 187.85L516.2 190.46L513.39 193.18L510.66 195.9L508.12 198.59L505.77 201.17L503.69 203.57L501.96 205.73L500.65 207.59L499.83 209.07L499.53 210.14L499.65 210.46L500.06 211.02L500.73 211.76L501.64 212.71L502.78 213.84L504.13 215.14L505.71 216.59L507.47 218.22L509.38 219.96L511.48 221.86L513.71 223.84L516.08 225.97L518.6 228.16L521.21 230.47L523.91 232.84L526.72 235.26L529.56 237.75L559.62 263.77L574.44 249.17L575.87 247.78L577.28 246.33L578.63 244.85L579.92 243.4L581.15 241.92L582.32 240.47L583.43 239.02L584.46 237.6L585.39 236.24L586.24 234.91L587.04 233.64L587.68 232.45L588.24 231.33L588.68 230.32L589 229.4L589.2 228.58L589.29 227.89L589.17 227.1L588.82 226.15L588.27 225.05L587.5 223.78L586.57 222.39L585.45 220.88L584.14 219.25L582.7 217.51L581.09 215.67L579.36 213.78L577.49 211.79L575.52 209.75L573.44 207.68L571.27 205.58L569.02 203.42L566.68 201.26L564.3 199.1L561.9 196.97L559.5 194.89L557.13 192.91L554.81 190.96L552.53 189.12L550.3 187.38L548.16 185.75L546.11 184.21L544.18 182.79L542.33 181.52L540.63 180.39L539.08 179.39L537.67 178.56L536.44 177.91L535.39 177.43L534.51 177.14L533.87 177.02L532.72 177.31L531.14 178.11L529.21 179.39Z" id="bjdpQfBdq"></path><path d="M319.43 0.27L320.37 0.5L321.48 0.83L322.74 1.21L324.17 1.66L325.76 2.19L327.51 2.78L329.39 3.43L331.41 4.14L333.58 4.94L335.89 5.77L338.32 6.69L340.9 7.64L343.6 8.67L346.41 9.74L349.34 10.86L352.36 12.05L355.52 13.26L358.77 14.53L362.14 15.86L365.6 17.23L369.14 18.62L372.77 20.07L376.49 21.58L380.3 23.09L384.2 24.65L388.15 26.25L392.2 27.88L396.3 29.57L400.46 31.25L404.68 32.97L408.95 34.75L413.26 36.52L417.62 38.33L422.05 40.13L426.5 42L431.01 43.86L435.52 45.73L545.96 91.48L592.78 206.2L640 320.53L592.78 434.89L545.96 549.61L433.97 596.14L427.2 598.95L420.73 601.64L414.49 604.25L408.48 606.73L402.74 609.1L397.21 611.38L391.93 613.54L386.87 615.61L382.03 617.57L377.4 619.43L372.98 621.21L368.76 622.89L364.75 624.49L360.91 626L357.28 627.39L353.82 628.72L350.54 629.97L347.43 631.12L344.5 632.22L341.72 633.19L339.09 634.14L336.62 634.97L334.28 635.74L332.11 636.45L330.06 637.1L328.13 637.66L326.34 638.17L324.64 638.58L323.09 638.96L321.63 639.29L320.28 639.53L319.02 639.73L317.85 639.88L316.76 639.97L315.77 640L314.83 640L313.98 639.94L313.22 639.85L312.49 639.7L311.81 639.53L311.31 639.35L310.64 639.14L309.82 638.85L308.82 638.46L307.68 638.02L306.39 637.54L304.93 636.95L303.35 636.33L301.59 635.65L299.71 634.91L297.69 634.11L295.55 633.25L293.3 632.33L290.9 631.36L288.38 630.32L285.74 629.26L283.02 628.16L280.17 626.98L277.22 625.79L274.14 624.52L271 623.25L267.75 621.92L264.44 620.53L261.02 619.13L257.5 617.68L253.93 616.2L250.29 614.69L246.57 613.19L242.79 611.62L238.93 610.02L235.03 608.39L231.08 606.76L227.06 605.11L222.99 603.42L218.89 601.7L214.76 599.99L210.57 598.27L206.35 596.52L202.13 594.75L197.86 593L94.07 549.61L47.22 434.89L0 320.15L47.22 206.2L94.07 91.87L202.16 46.14L206.59 44.25L210.98 42.38L215.37 40.55L219.71 38.71L223.99 36.91L228.23 35.16L232.42 33.41L236.58 31.67L240.66 29.98L244.67 28.32L248.62 26.7L252.52 25.13L256.33 23.56L260.08 22.02L263.74 20.54L267.31 19.12L270.8 17.7L274.2 16.34L277.48 15.04L280.7 13.76L283.78 12.52L286.77 11.34L289.64 10.21L292.39 9.15L295.06 8.11L297.55 7.13L299.95 6.22L302.2 5.36L304.34 4.56L306.3 3.82L308.15 3.14L309.85 2.52L311.4 1.98L312.78 1.48L314.01 1.07L315.09 0.71L316 0.41L316.73 0.21L317.29 0.06L317.67 0L318.08 0L318.67 0.09L319.43 0.27ZM144.39 489.29L167.04 512.17L469.1 512.17L491.71 489.29L491.71 345.78L523.73 308.31L526.01 305.65L528.18 303.07L530.23 300.64L532.2 298.34L534.01 296.15L535.77 294.07L537.41 292.12L538.93 290.26L540.37 288.51L541.72 286.85L542.95 285.28L544.12 283.8L545.17 282.41L546.17 281.11L547.05 279.9L547.87 278.74L548.57 277.68L549.25 276.67L549.8 275.75L550.3 274.86L550.74 274.04L551.09 273.27L551.38 272.56L551.59 271.88L551.74 271.25L551.85 270.63L551.88 270.07L551.85 269.57L551.79 269.06L551.65 268.56L551.47 268.12L551.24 267.67L550.97 267.23L550.65 266.79L550.27 266.37L549.89 265.96L549.45 265.51L548.95 265.07L548.45 264.62L547.93 264.15L544.62 261.46L541.42 258.85L538.38 256.31L535.45 253.85L532.61 251.48L529.91 249.2L527.3 246.98L524.84 244.85L522.47 242.78L520.18 240.8L518.05 238.88L516 237.01L514.03 235.21L512.16 233.46L510.4 231.8L508.73 230.17L507.18 228.61L505.68 227.1L504.31 225.62L502.99 224.2L501.76 222.83L500.62 221.5L499.56 220.2L498.57 218.96L497.66 217.71L496.84 216.53L496.08 215.41L495.37 214.28L494.76 213.19L494.2 212.09L493.7 211.05L493.26 210.02L492.88 209.01L492.56 208.04L492.3 207.03L492.09 206.08L491.92 205.11L491.8 204.16L491.74 203.21L491.71 202.26L491.71 201.85L491.68 201.47L491.65 201.02L491.62 200.61L491.56 200.16L491.48 199.69L491.42 199.22L491.3 198.74L491.21 198.27L491.1 197.77L490.95 197.23L490.8 196.73L490.66 196.17L490.48 195.63L490.3 195.07L490.1 194.51L489.89 193.92L489.66 193.33L489.43 192.73L489.19 192.11L488.93 191.49L488.63 190.84L488.37 190.19L488.08 189.54L487.76 188.86L487.43 188.18L487.08 187.5L486.76 186.79L486.38 186.07L486 185.33L485.62 184.59L485.24 183.85L484.8 183.09L484.39 182.32L483.95 181.52L483.51 180.72L483.04 179.92L482.57 179.09L482.07 178.26L481.57 177.43L471.44 165.21L164.69 165.21L144.39 189.66L144.39 489.29ZM409.71 313.81L407.72 316.12L405.76 318.4L403.83 320.68L401.89 322.96L400.02 325.18L398.17 327.4L396.36 329.56L394.57 331.72L392.81 333.82L391.08 335.92L389.41 337.97L387.74 339.98L386.16 341.96L384.58 343.88L383.09 345.75L381.59 347.61L380.19 349.39L378.81 351.14L377.46 352.82L376.2 354.45L374.97 356.05L373.8 357.56L372.69 359.04L371.63 360.43L370.64 361.76L369.7 363.03L368.82 364.25L368 365.37L367.27 366.44L366.59 367.41L365.98 368.3L365.42 369.13L364.95 369.9L364.57 370.55L364.25 371.14L363.99 371.65L363.81 372.06L363.72 372.36L363.72 372.59L363.96 373.24L364.4 374.04L365.01 374.96L365.83 376.03L366.77 377.18L367.88 378.42L369.14 379.79L370.55 381.21L372.04 382.72L373.68 384.31L375.41 385.94L377.23 387.63L379.13 389.37L381.09 391.15L383.14 392.96L385.22 394.79L387.36 396.63L389.53 398.46L391.7 400.3L393.93 402.1L396.12 403.91L398.32 405.68L400.49 407.4L402.63 409.09L404.73 410.71L406.81 412.28L408.81 413.79L410.74 415.21L412.59 416.54L414.37 417.79L416.04 418.91L417.6 419.92L419.03 420.84L420.35 421.61L421.55 422.23L422.58 422.73L423.42 423.06L424.13 423.23L424.66 423.23L424.98 423.06L425.15 422.88L425.33 422.7L425.53 422.46L425.77 422.23L426 421.93L426.3 421.64L426.59 421.31L426.91 420.95L427.23 420.57L427.58 420.16L427.97 419.71L428.38 419.27L428.79 418.79L429.2 418.29L429.64 417.79L430.1 417.25L430.6 416.69L431.07 416.13L431.6 415.54L432.1 414.92L432.65 414.3L433.74 413.02L434.32 412.34L434.88 411.69L435.49 410.98L436.08 410.3L436.7 409.59L437.31 408.88L437.93 408.14L438.57 407.4L439.21 406.66L439.86 405.92L440.5 405.18L441.15 404.41L441.82 403.64L442.5 402.9L443.14 402.13L443.81 401.36L444.49 400.59L460.51 381.65L460.51 476.69L175.62 476.69L175.62 204.63L460.51 204.63L460.51 254.71L411.71 311.48L409.71 313.81ZM352.27 388.96L350.72 393.76L349.07 399.44L347.32 405.8L345.56 412.64L343.8 419.71L342.13 426.81L340.58 433.77L339.2 440.31L338.06 446.26L337.21 451.38L336.65 455.49L336.51 458.34L336.8 459.73L338.09 459.9L340.87 459.52L344.89 458.57L349.95 457.18L355.84 455.43L362.32 453.36L369.2 451.08L376.26 448.63L383.29 446.11L390.06 443.6L396.39 441.14L402.04 438.83L406.81 436.73L410.48 434.92L412.82 433.5L413.67 432.53L413.52 432.17L413.11 431.58L412.41 430.75L411.47 429.72L410.3 428.5L408.92 427.08L407.31 425.48L405.53 423.74L403.56 421.87L401.42 419.86L399.14 417.76L396.71 415.54L394.16 413.26L391.52 410.92L388.77 408.52L385.96 406.1L383.2 403.61L380.48 401.21L377.81 398.9L375.24 396.69L372.72 394.58L370.31 392.6L368.06 390.77L365.92 389.05L363.93 387.51L362.11 386.12L360.47 384.94L359.01 383.93L357.78 383.13L356.78 382.54L356.02 382.18L355.52 382.06L354.7 382.89L353.59 385.26L352.27 388.96ZM200.99 423.44L255.21 424.62L264.35 424.8L272.53 424.92L279.79 424.98L286.21 424.95L291.8 424.83L296.67 424.57L300.86 424.18L304.37 423.65L307.33 422.97L309.73 422.08L311.67 420.98L313.16 419.71L314.27 418.17L315.06 416.4L315.62 414.35L315.91 412.05L316.06 409.41L316.12 406.51L316.09 405.12L316 403.91L315.8 402.84L315.42 401.89L314.77 401.1L313.83 400.38L312.54 399.79L310.82 399.32L308.59 398.9L305.84 398.58L302.5 398.34L298.48 398.14L293.74 398.02L288.23 397.93L281.87 397.87L274.61 397.84L266.41 397.81L257.18 397.81L198.65 397.81L199.82 410.45L200.99 423.44ZM270.83 342.61L278.83 342.61L286.21 342.61L293 342.58L299.27 342.55L305.02 342.52L310.26 342.43L315.03 342.35L319.4 342.23L323.35 342.08L326.93 341.9L330.15 341.69L333.02 341.43L335.63 341.16L337.97 340.81L340.05 340.42L341.96 340.01L343.66 339.5L345.21 338.97L346.61 338.35L347.93 337.7L349.19 336.96L350.39 336.16L351.59 335.3L352.8 334.35L353.47 333.79L354.14 333.23L354.79 332.67L355.43 332.11L356.08 331.51L356.69 330.95L357.28 330.36L357.83 329.8L358.39 329.2L358.92 328.64L359.45 328.08L359.91 327.55L360.35 327.01L360.79 326.48L361.17 325.98L361.53 325.5L361.85 325.03L362.11 324.59L362.37 324.17L362.55 323.79L362.73 323.4L362.84 323.08L362.9 322.78L362.93 322.52L362.76 322.28L362.23 322.04L361.38 321.81L360.18 321.57L358.65 321.33L356.84 321.12L354.7 320.92L352.27 320.71L349.57 320.53L346.58 320.36L343.33 320.18L339.82 320L336.07 319.85L332.05 319.7L327.84 319.59L323.38 319.44L318.73 319.35L313.86 319.26L308.82 319.17L303.58 319.08L298.16 319.05L292.59 318.99L286.85 318.96L280.99 318.96L199.03 318.96L199.03 342.61L270.83 342.61ZM433.18 263.77L433.18 240.12L199.03 240.12L199.03 263.77L433.18 263.77ZM529.21 179.39L526.95 181.07L524.46 183.09L521.8 185.36L519.01 187.85L516.2 190.46L513.39 193.18L510.66 195.9L508.12 198.59L505.77 201.17L503.69 203.57L501.96 205.73L500.65 207.59L499.83 209.07L499.53 210.14L499.65 210.46L500.06 211.02L500.73 211.76L501.64 212.71L502.78 213.84L504.13 215.14L505.71 216.59L507.47 218.22L509.38 219.96L511.48 221.86L513.71 223.84L516.08 225.97L518.6 228.16L521.21 230.47L523.91 232.84L526.72 235.26L529.56 237.75L559.62 263.77L574.44 249.17L575.87 247.78L577.28 246.33L578.63 244.85L579.92 243.4L581.15 241.92L582.32 240.47L583.43 239.02L584.46 237.6L585.39 236.24L586.24 234.91L587.04 233.64L587.68 232.45L588.24 231.33L588.68 230.32L589 229.4L589.2 228.58L589.29 227.89L589.17 227.1L588.82 226.15L588.27 225.05L587.5 223.78L586.57 222.39L585.45 220.88L584.14 219.25L582.7 217.51L581.09 215.67L579.36 213.78L577.49 211.79L575.52 209.75L573.44 207.68L571.27 205.58L569.02 203.42L566.68 201.26L564.3 199.1L561.9 196.97L559.5 194.89L557.13 192.91L554.81 190.96L552.53 189.12L550.3 187.38L548.16 185.75L546.11 184.21L544.18 182.79L542.33 181.52L540.63 180.39L539.08 179.39L537.67 178.56L536.44 177.91L535.39 177.43L534.51 177.14L533.87 177.02L532.72 177.31L531.14 178.11L529.21 179.39Z" id="bfqWxuHlu"></path></defs><g><g><g><use xlink:href="#bjdpQfBdq" opacity="1" fill="#e64e04" fill-opacity="1"></use><g><use xlink:href="#bjdpQfBdq" opacity="1" fill-opacity="0" stroke="#000000" stroke-width="1" stroke-opacity="0"></use></g></g><g><use xlink:href="#bfqWxuHlu" opacity="1" fill="#000000" fill-opacity="0"></use><g><use xlink:href="#bfqWxuHlu" opacity="1" fill-opacity="0" stroke="#000000" stroke-width="1" stroke-opacity="0"></use></g></g></g></g></svg>