<?xml version="1.0" encoding="UTF-8" standalone="no"?>
<!DOCTYPE svg PUBLIC "-//W3C//DTD SVG 1.1//EN" "http://www.w3.org/Graphics/SVG/1.1/DTD/svg11.dtd">
<svg version="1.1" xmlns="http://www.w3.org/2000/svg" xmlns:xlink="http://www.w3.org/1999/xlink" preserveAspectRatio="xMidYMid meet" viewBox="0 0 640 640" width="100" height="100"><defs><path d="M47.22 206.21L0 320.14L47.22 434.89C75.33 503.72 90.94 541.95 94.07 549.6C156.35 575.64 190.94 590.08 197.86 592.97C254.83 616.64 306.33 637.93 311.81 639.5C320.4 642.27 342.25 634.37 433.97 596.13C441.41 593.03 478.76 577.52 545.96 549.6C549.09 541.95 564.69 503.72 592.78 434.89L640 320.55L592.78 206.21C564.69 137.36 549.09 99.11 545.96 91.46C479.7 64.03 442.88 48.79 435.52 45.72C375.03 20.49 321.95 -0.4 317.67 0.01C313.77 0.38 261.45 20.89 202.16 46.12C187.75 52.23 151.72 67.48 94.07 91.87C87.82 107.11 72.21 145.22 47.22 206.21ZM233.36 201.46C234.74 202.88 241.63 209.98 254.04 222.76C266.45 235.53 273.35 242.63 274.73 244.05C300.04 244.05 314.07 244.05 316.88 244.05C345.76 244.05 363.72 246.02 373.48 249.95C381.27 253.11 388.3 255.48 389.09 254.29C391.02 252.32 382.06 231.43 375.41 223.54C371.13 218.04 370.72 214.89 375.03 203.05C380.89 186.88 379.72 187.66 427.32 178.98C446.83 175.45 466.34 171.52 471.41 170.33C480.02 168.36 480.02 168.74 480.02 208.58C480.02 211.24 480.02 224.66 480.02 248.79C472.99 247.35 469.1 246.57 468.3 246.42C462.06 245.24 451.9 242.86 446.07 241.68C445.34 241.53 441.68 240.75 435.14 239.3C435.85 253.51 436.23 261.41 436.31 262.97C437.46 283.48 436.31 288.2 429.28 295.32C421.46 303.19 417.57 303.97 393.75 302C391.96 301.86 383 301.05 366.83 299.63C366.83 372.97 366.83 413.71 366.83 421.87C366.83 498.74 365.27 547.23 362.93 551.98C360.21 557.1 354.73 559.47 345.38 559.47C321.19 559.47 320.01 555.13 320.01 476.26C320.01 416.34 319.22 405.69 314.16 405.69C309.09 405.69 308.3 416.34 308.3 476.26C308.3 553.54 306.74 559.47 285.65 559.47C257.97 559.06 256.8 551.19 259.52 411.62C259.7 403.73 260.61 364.29 262.25 293.32C240.95 272.06 229.11 260.22 226.74 257.85C191.62 223.16 191.24 222.35 191.24 203.43C191.24 183.32 204.51 151.78 218.92 137.2C229.85 126.15 245.87 128.52 253.66 142.32C259.14 152.57 258.73 154.56 246.25 177.42C245.4 179.01 241.09 187.02 233.36 201.46ZM267.72 206.99C259.9 190.44 259.9 180.57 266.93 164.02C279.82 133.27 314.54 122.22 342.25 139.95C363.31 153.38 371.9 182.94 360.97 206.21C342.63 245.24 286.06 245.61 267.72 206.99ZM512.39 166.77C525.66 162.06 534.66 163.62 534.66 169.92C534.66 176.64 499.12 190.03 494.43 185.32C488.99 179.79 495.61 172.67 512.39 166.77ZM493.67 204.61C496.78 199.09 529.56 199.49 533.07 205.02C536.97 211.33 527.22 216.45 510.46 216.45C496.02 216.45 489.37 211.73 493.67 204.61ZM491.71 236.96C491.71 227.09 498.36 226.31 519.04 234.59C535.42 241.3 540.11 251.95 526.83 251.95C516.29 251.95 491.71 241.3 491.71 236.96Z" id="agXTEJW53"></path><path d="M47.22 206.21L0 320.14L47.22 434.89C75.33 503.72 90.94 541.95 94.07 549.6C156.35 575.64 190.94 590.08 197.86 592.97C254.83 616.64 306.33 637.93 311.81 639.5C320.4 642.27 342.25 634.37 433.97 596.13C441.41 593.03 478.76 577.52 545.96 549.6C549.09 541.95 564.69 503.72 592.78 434.89L640 320.55L592.78 206.21C564.69 137.36 549.09 99.11 545.96 91.46C479.7 64.03 442.88 48.79 435.52 45.72C375.03 20.49 321.95 -0.4 317.67 0.01C313.77 0.38 261.45 20.89 202.16 46.12C187.75 52.23 151.72 67.48 94.07 91.87C87.82 107.11 72.21 145.22 47.22 206.21ZM233.36 201.46C234.74 202.88 241.63 209.98 254.04 222.76C266.45 235.53 273.35 242.63 274.73 244.05C300.04 244.05 314.07 244.05 316.88 244.05C345.76 244.05 363.72 246.02 373.48 249.95C381.27 253.11 388.3 255.48 389.09 254.29C391.02 252.32 382.06 231.43 375.41 223.54C371.13 218.04 370.72 214.89 375.03 203.05C380.89 186.88 379.72 187.66 427.32 178.98C446.83 175.45 466.34 171.52 471.41 170.33C480.02 168.36 480.02 168.74 480.02 208.58C480.02 211.24 480.02 224.66 480.02 248.79C472.99 247.35 469.1 246.57 468.3 246.42C462.06 245.24 451.9 242.86 446.07 241.68C445.34 241.53 441.68 240.75 435.14 239.3C435.85 253.51 436.23 261.41 436.31 262.97C437.46 283.48 436.31 288.2 429.28 295.32C421.46 303.19 417.57 303.97 393.75 302C391.96 301.86 383 301.05 366.83 299.63C366.83 372.97 366.83 413.71 366.83 421.87C366.83 498.74 365.27 547.23 362.93 551.98C360.21 557.1 354.73 559.47 345.38 559.47C321.19 559.47 320.01 555.13 320.01 476.26C320.01 416.34 319.22 405.69 314.16 405.69C309.09 405.69 308.3 416.34 308.3 476.26C308.3 553.54 306.74 559.47 285.65 559.47C257.97 559.06 256.8 551.19 259.52 411.62C259.7 403.73 260.61 364.29 262.25 293.32C240.95 272.06 229.11 260.22 226.74 257.85C191.62 223.16 191.24 222.35 191.24 203.43C191.24 183.32 204.51 151.78 218.92 137.2C229.85 126.15 245.87 128.52 253.66 142.32C259.14 152.57 258.73 154.56 246.25 177.42C245.4 179.01 241.09 187.02 233.36 201.46ZM267.72 206.99C259.9 190.44 259.9 180.57 266.93 164.02C279.82 133.27 314.54 122.22 342.25 139.95C363.31 153.38 371.9 182.94 360.97 206.21C342.63 245.24 286.06 245.61 267.72 206.99ZM512.39 166.77C525.66 162.06 534.66 163.62 534.66 169.92C534.66 176.64 499.12 190.03 494.43 185.32C488.99 179.79 495.61 172.67 512.39 166.77ZM493.67 204.61C496.78 199.09 529.56 199.49 533.07 205.02C536.97 211.33 527.22 216.45 510.46 216.45C496.02 216.45 489.37 211.73 493.67 204.61ZM491.71 236.96C491.71 227.09 498.36 226.31 519.04 234.59C535.42 241.3 540.11 251.95 526.83 251.95C516.29 251.95 491.71 241.3 491.71 236.96Z" id="e5g8YzK6SH"></path></defs><g><g><g><use xlink:href="#agXTEJW53" opacity="1" fill="#e64e04" fill-opacity="1"></use><g><use xlink:href="#agXTEJW53" opacity="1" fill-opacity="0" stroke="#000000" stroke-width="1" stroke-opacity="0"></use></g></g><g><use xlink:href="#e5g8YzK6SH" opacity="1" fill="#000000" fill-opacity="0"></use><g><use xlink:href="#e5g8YzK6SH" opacity="1" fill-opacity="0" stroke="#000000" stroke-width="1" stroke-opacity="0"></use></g></g></g></g></svg>