<?xml version="1.0" encoding="UTF-8" standalone="no"?>
<!DOCTYPE svg PUBLIC "-//W3C//DTD SVG 1.1//EN" "http://www.w3.org/Graphics/SVG/1.1/DTD/svg11.dtd">
<svg version="1.1" xmlns="http://www.w3.org/2000/svg" xmlns:xlink="http://www.w3.org/1999/xlink" preserveAspectRatio="xMidYMid meet" viewBox="0 0 640 640" width="100" height="100"><defs><path d="M52.49 202.22L5.26 309.39L52.49 417.32C80.58 482.05 96.18 518.02 99.3 525.21C161.58 549.68 196.18 563.29 203.12 566.02C260.1 588.26 311.6 608.28 317.05 609.78C325.66 612.37 347.51 604.94 439.21 568.97C446.68 566.05 484 551.46 551.2 525.21C554.32 518.02 569.94 482.05 598.04 417.32L645.26 309.75L598.04 202.22C569.94 137.48 554.32 101.51 551.2 94.32C484.94 68.49 448.14 54.15 440.76 51.28C380.29 27.57 327.21 7.91 322.91 8.28C319.01 8.64 266.72 27.93 207.4 51.67C192.98 57.41 156.95 71.74 99.3 94.68C93.06 109.02 77.45 144.87 52.49 202.22ZM431 144.73C490.74 159.57 539.89 220.76 539.89 281.22C539.89 282.53 539.89 289.07 539.89 300.87C531.44 300.87 489.17 300.87 413.08 300.87C336.97 300.87 294.69 300.87 286.23 300.87C287.64 291.3 288.43 285.98 288.57 284.92C296.78 230.03 316.29 194.06 356.1 162.55C374.44 148.07 365.44 150.3 338.52 166.61C300.67 190 278.44 224.85 270.23 273.79C269.91 275.6 268.36 284.62 265.55 300.87C264.69 300.87 260.39 300.87 252.66 300.87C244.71 300.87 240.3 300.87 239.42 300.87C239.42 286.84 239.42 279.05 239.42 277.49C239.8 221.15 287.02 162.16 345.17 145.85C367.41 139.92 367.41 139.56 365.44 127.31C362.72 112.86 375.61 96.91 389.64 96.91C394.33 96.91 402.15 100.97 407.22 106.18C414.25 113.22 415.8 118.04 413.84 127.7C411.9 139.92 411.9 140.28 431 144.73ZM392.77 338.68C296.37 338.31 215.98 337.2 214.05 336.48C210.91 335.36 209.36 316.43 211.7 309.03C212.08 308.64 292.09 308.28 389.64 308.28C401.47 308.28 460.68 308.28 567.22 308.28C567.22 309.32 567.22 314.51 567.22 323.87L567.22 339.79C458.68 339.1 400.53 338.73 392.77 338.68ZM272.58 384.3C292.47 385.64 303.54 386.39 305.74 386.53C338.14 388.39 340.07 388 384.95 371.69C427.11 356.85 431.41 355.74 437.24 361.31C440.76 364.29 442.34 369.83 441.17 372.8C437.24 382.83 349.45 435.1 331.49 438.44C322.91 440.31 294.05 440.31 267.51 439.2C221.84 436.97 219.12 437.33 207.78 445.13C201.16 449.94 195.3 452.92 194.92 452.17C194.13 451.81 191.78 435.86 189.06 417.68C186.33 399.14 183.2 381.32 182.03 377.62C178.13 364.29 233.56 349.81 290.54 349.45C325.66 349.06 332.66 350.17 334.62 355.02C338.52 365.01 330.73 370.22 300.67 377.62C298.8 378.07 289.42 380.29 272.58 384.3ZM191.4 472.93C190.23 475.52 176.58 479.62 160.58 482.2C144.97 484.79 128.19 487.77 123.12 488.89C122.5 489 119.51 489.61 114.12 490.72C114.2 486.94 114.59 468.03 115.3 433.99C116 399.73 116.39 380.7 116.47 376.9C131.7 374.45 140.14 373.08 141.84 372.8C155.9 370.58 168.38 368.35 169.93 367.99C171.51 367.99 174.24 376.51 176.58 386.89C178.51 397.66 183.2 420.27 186.72 437.33C190.23 454.4 192.19 470.35 191.4 472.93Z" id="auius9Igj"></path><path d="M47.22 203.77L0 317.72L47.22 432.47C75.31 501.3 90.91 539.53 94.04 547.18C156.32 573.2 190.91 587.67 197.86 590.57C254.83 614.22 306.33 635.5 311.78 637.1C320.4 639.85 342.25 631.95 433.94 593.71C441.41 590.6 478.73 575.09 545.93 547.18C549.06 539.53 564.67 501.3 592.78 432.47L640 318.11L592.78 203.77C564.67 134.95 549.06 96.71 545.93 89.06C479.67 61.59 442.88 46.35 435.49 43.3C375.03 18.09 321.95 -2.81 317.64 -2.42C313.75 -2.04 261.45 18.47 202.13 43.72C187.72 49.81 151.69 65.06 94.04 89.44C87.79 104.69 72.19 142.8 47.22 203.77ZM425.74 142.66C485.47 158.43 534.63 223.49 534.63 287.77C534.63 289.16 534.63 296.12 534.63 308.66C526.17 308.66 483.9 308.66 407.81 308.66C331.7 308.66 289.42 308.66 280.96 308.66C282.37 298.48 283.16 292.83 283.31 291.71C291.51 233.34 311.02 195.1 350.83 161.6C369.17 146.21 360.18 148.58 333.26 165.92C295.41 190.78 273.17 227.84 264.97 279.87C264.65 281.79 263.1 291.38 260.28 308.66C259.42 308.66 255.13 308.66 247.39 308.66C239.45 308.66 235.03 308.66 234.15 308.66C234.15 293.75 234.15 285.46 234.15 283.8C234.53 223.9 281.76 161.19 339.91 143.84C362.14 137.54 362.14 137.15 360.18 124.13C357.45 108.77 370.34 91.81 384.37 91.81C389.06 91.81 396.88 96.13 401.95 101.67C408.98 109.15 410.54 114.28 408.57 124.55C406.64 137.54 406.64 137.92 425.74 142.66ZM387.51 348.86C291.1 348.47 210.72 347.29 208.78 346.52C205.65 345.33 204.1 325.21 206.44 317.34C206.82 316.92 286.82 316.54 384.37 316.54C396.21 316.54 455.41 316.54 561.96 316.54C561.96 317.64 561.96 323.17 561.96 333.11L561.96 350.04C453.41 349.31 395.26 348.92 387.51 348.86ZM267.31 397.36C287.2 398.79 298.28 399.58 300.48 399.73C332.87 401.72 334.81 401.3 379.69 383.96C421.84 368.18 426.15 367 431.98 372.92C435.49 376.09 437.08 381.97 435.9 385.14C431.98 395.8 344.18 451.38 326.23 454.93C317.64 456.91 288.79 456.91 262.25 455.73C216.58 453.36 213.85 453.75 202.51 462.03C195.89 467.15 190.03 470.32 189.65 469.52C188.86 469.14 186.52 452.18 183.79 432.85C181.07 413.14 177.94 394.2 176.76 390.26C172.87 376.09 228.29 360.69 285.27 360.31C320.4 359.9 327.4 361.08 329.36 366.23C333.26 376.85 325.46 382.39 295.41 390.26C293.53 390.74 284.16 393.1 267.31 397.36ZM186.14 491.6C184.97 494.35 171.32 498.7 155.32 501.46C139.71 504.21 122.92 507.37 117.85 508.56C117.24 508.68 114.25 509.33 108.86 510.51C108.94 506.49 109.33 486.39 110.03 450.19C110.73 413.77 111.12 393.54 111.2 389.49C126.44 386.89 134.87 385.44 136.57 385.14C150.63 382.77 163.11 380.41 164.67 380.02C166.25 380.02 168.97 389.08 171.32 400.12C173.25 411.57 177.94 435.6 181.45 453.75C184.97 471.89 186.93 488.85 186.14 491.6Z" id="d2FHYmarhw"></path></defs><g><g><g><use xlink:href="#auius9Igj" opacity="1" fill="#e64e04" fill-opacity="1"></use><g><use xlink:href="#auius9Igj" opacity="1" fill-opacity="0" stroke="#000000" stroke-width="1" stroke-opacity="0"></use></g></g><g><use xlink:href="#d2FHYmarhw" opacity="1" fill="#000000" fill-opacity="0"></use><g><use xlink:href="#d2FHYmarhw" opacity="1" fill-opacity="0" stroke="#000000" stroke-width="1" stroke-opacity="0"></use></g></g></g></g></svg>