<?xml version="1.0" encoding="UTF-8" standalone="no"?>
<!DOCTYPE svg PUBLIC "-//W3C//DTD SVG 1.1//EN" "http://www.w3.org/Graphics/SVG/1.1/DTD/svg11.dtd">
<svg version="1.1" xmlns="http://www.w3.org/2000/svg" xmlns:xlink="http://www.w3.org/1999/xlink" preserveAspectRatio="xMidYMid meet" viewBox="0 0 640 640" width="100" height="100"><defs><path d="M319.44 0.27L320.38 0.53L321.46 0.83L322.75 1.21L324.16 1.69L325.74 2.19L327.5 2.78L329.37 3.43L331.4 4.17L333.56 4.94L335.88 5.8L338.31 6.69L340.89 7.67L343.58 8.67L346.39 9.74L349.32 10.86L352.37 12.05L355.5 13.26L358.76 14.53L362.12 15.86L365.58 17.22L369.12 18.65L372.76 20.1L376.51 21.58L380.31 23.11L384.18 24.68L388.14 26.28L392.18 27.91L396.28 29.57L400.44 31.25L404.66 33L408.93 34.74L413.24 36.52L417.63 38.33L422.03 40.16L426.48 42L430.99 43.86L435.5 45.75L545.94 91.48L592.78 206.22L640 320.55L592.78 434.87L545.94 549.62L433.95 596.14L427.21 598.95L420.71 601.64L414.47 604.22L408.47 606.71L402.72 609.07L397.22 611.35L391.92 613.51L386.85 615.58L382.01 617.57L377.39 619.43L372.96 621.21L368.74 622.89L364.73 624.46L360.89 625.97L357.26 627.39L353.8 628.69L350.52 629.94L347.42 631.12L344.49 632.19L341.71 633.19L339.07 634.11L336.61 634.97L334.3 635.74L332.1 636.45L330.05 637.07L328.11 637.63L326.33 638.14L324.63 638.58L323.08 638.93L321.61 639.26L320.26 639.53L319 639.7L317.83 639.85L316.75 639.94L315.75 640L314.84 639.97L313.99 639.94L313.2 639.82L312.47 639.67L311.8 639.5L311.3 639.35L310.66 639.11L309.81 638.82L308.84 638.46L307.67 638.02L306.38 637.51L304.91 636.95L303.33 636.33L301.57 635.65L299.7 634.88L297.71 634.08L295.54 633.22L293.28 632.31L290.88 631.33L288.36 630.32L285.76 629.26L283 628.13L280.16 626.98L277.2 625.76L274.16 624.52L270.99 623.22L267.74 621.89L264.43 620.53L261 619.11L257.52 617.69L253.94 616.21L250.28 614.7L246.56 613.16L242.78 611.59L238.92 609.99L235.02 608.39L231.07 606.73L227.05 605.08L222.98 603.39L218.88 601.7L214.75 599.99L210.56 598.24L206.37 596.49L202.12 594.75L197.85 592.97L94.06 549.62L47.22 434.87L0 320.16L47.22 206.22L94.06 91.86L202.15 46.14L206.58 44.25L211 42.38L215.36 40.55L219.7 38.74L223.98 36.94L228.22 35.16L232.41 33.41L236.57 31.7L240.64 30.01L244.69 28.35L248.64 26.72L252.51 25.13L256.35 23.56L260.07 22.05L263.73 20.57L267.3 19.12L270.79 17.73L274.19 16.37L277.5 15.03L280.69 13.76L283.76 12.55L286.75 11.36L289.62 10.24L292.41 9.14L295.04 8.14L297.56 7.16L299.93 6.24L302.19 5.39L304.33 4.59L306.29 3.85L308.14 3.17L309.84 2.55L311.39 1.98L312.76 1.51L313.99 1.07L315.08 0.71L315.99 0.44L316.72 0.24L317.28 0.09L317.66 0L318.07 0.03L318.65 0.12L319.44 0.27ZM420.12 263.9L419.13 264.02L418.16 264.17L417.28 264.38L416.4 264.61L415.58 264.94L414.82 265.29L414.09 265.71L413.39 266.21L412.74 266.77L412.13 267.39L411.54 268.1L410.98 268.9L410.49 269.79L410.02 270.77L409.58 271.83L409.17 272.99L408.79 274.26L408.44 275.65L408.11 277.13L407.79 278.73L407.53 280.48L407.29 282.31L407.06 284.29L406.88 286.39L406.68 288.64L406.53 291.01L406.39 293.56L406.27 296.22L406.18 299.03L406.09 302.02L406.03 305.19L405.98 308.47L405.92 311.96L405.89 315.61L405.86 319.45L405.86 323.45L405.86 327.65L405.86 330.14L405.83 332.56L405.83 334.96L405.8 337.3L405.77 339.61L405.74 341.83L405.71 344.02L405.68 346.18L405.62 348.25L405.57 350.29L405.51 352.24L405.45 354.17L405.39 356.03L405.3 357.84L405.24 359.58L405.16 361.27L405.07 362.9L404.98 364.47L404.86 365.98L404.77 367.4L404.66 368.79L404.57 370.12L404.45 371.36L404.34 372.55L404.22 373.67L404.07 374.74L403.95 375.71L403.84 376.63L403.69 377.49L403.54 378.26L403.4 378.97L403.25 379.62L403.11 380.18L402.96 380.66L402.78 381.07L402.64 381.43L402.46 381.69L402.28 381.9L402.11 382.02L401.93 382.05L401.79 382.02L401.61 381.93L401.44 381.81L401.26 381.63L401.11 381.37L400.94 381.1L400.79 380.74L400.64 380.36L400.5 379.92L400.35 379.44L400.21 378.91L400.06 378.32L399.94 377.7L399.79 377.02L399.68 376.31L399.56 375.54L399.44 374.74L399.33 373.91L399.21 373.02L399.12 372.1L399 371.13L398.92 370.12L398.83 369.08L398.74 367.99L398.65 366.86L398.59 365.71L398.51 364.53L398.45 363.31L398.39 362.04L398.33 360.77L398.27 359.44L398.21 358.07L398.18 356.68L398.15 355.26L398.13 353.81L398.1 352.36L398.07 350.85L398.07 349.31L398.04 347.75L398.04 346.18L398.04 343.28L398.01 340.47L397.98 337.77L397.92 335.17L397.86 332.65L397.77 330.25L397.66 327.95L397.54 325.76L397.39 323.63L397.25 321.58L397.04 319.66L396.87 317.8L396.63 316.02L396.4 314.36L396.13 312.76L395.84 311.22L395.55 309.8L395.23 308.44L394.87 307.17L394.49 305.96L394.08 304.83L393.67 303.77L393.2 302.79L392.74 301.87L392.24 301.01L391.71 300.22L391.15 299.51L390.57 298.85L389.95 298.26L389.31 297.7L388.66 297.23L387.96 296.81L387.23 296.46L386.47 296.13L385.68 295.86L384.86 295.66L384.01 295.51L383.13 295.39L382.22 295.33L381.25 295.3L380.02 295.33L378.82 295.36L377.68 295.42L376.57 295.54L375.54 295.69L374.57 295.89L373.64 296.16L372.76 296.49L371.94 296.9L371.15 297.37L370.41 297.91L369.74 298.56L369.1 299.3L368.48 300.13L367.92 301.07L367.4 302.11L366.9 303.29L366.46 304.6L366.05 306.02L365.67 307.58L365.32 309.3L364.99 311.14L364.7 313.15L364.44 315.31L364.2 317.65L364 320.16L363.79 322.86L363.65 325.73L363.5 328.8L363.38 332.06L363.27 335.55L363.18 339.22L363.12 343.1L363.06 347.21L363 351.56L362.97 356.15L362.94 360.97L362.94 366.04L362.91 371.33L362.91 376.93L362.91 379.89L362.91 382.85L362.91 385.75L362.91 388.62L362.89 391.46L362.89 394.24L362.86 396.99L362.83 399.72L362.8 402.38L362.8 404.98L362.77 407.56L362.74 410.07L362.68 412.53L362.65 414.93L362.62 417.24L362.56 419.51L362.53 421.73L362.48 423.86L362.45 425.94L362.39 427.92L362.33 429.84L362.27 431.71L362.21 433.45L362.15 435.14L362.09 436.74L362.04 438.25L361.98 439.67L361.92 441L361.83 442.24L361.77 443.4L361.71 444.43L361.63 445.38L361.54 446.24L361.48 446.98L361.39 447.6L361.3 448.13L361.22 448.55L361.16 448.84L361.07 449.02L360.98 449.08L360.89 449.05L360.81 449.05L360.69 448.99L360.54 448.93L360.4 448.87L360.19 448.78L359.99 448.7L359.75 448.58L359.52 448.46L359.25 448.31L358.96 448.16L358.64 447.99L358.32 447.81L357.99 447.6L357.61 447.39L357.26 447.19L356.85 446.95L356.47 446.71L356.03 446.48L355.62 446.21L355.15 445.94L354.71 445.65L354.24 445.38L353.75 445.06L353.25 444.76L352.75 444.43L352.25 444.11L351.72 443.78L351.2 443.43L350.67 443.07L350.11 442.72L349.56 442.36L349 441.98L348.44 441.62L347.86 441.21L347.3 440.82L346.72 440.44L346.13 440.02L345.57 439.64L344.99 439.22L343.64 438.31L342.29 437.48L340.97 436.65L339.66 435.91L338.34 435.2L337.05 434.52L335.76 433.9L334.47 433.31L333.18 432.77L331.92 432.27L330.69 431.83L329.43 431.41L328.2 431.06L327 430.73L325.8 430.46L324.6 430.23L323.43 430.05L322.26 429.9L321.08 429.81L319.94 429.75L318.83 429.75L317.72 429.78L316.6 429.87L315.52 429.99L314.46 430.17L313.41 430.38L312.38 430.64L311.36 430.94L310.33 431.29L309.37 431.68L308.4 432.12L307.43 432.6L306.5 433.13L305.59 433.69L304.68 434.31L303.8 434.96L302.95 435.64L302.1 436.41L301.28 437.18L300.49 438.04L300.17 438.4L299.85 438.75L299.52 439.11L299.23 439.46L298.91 439.85L298.62 440.2L298.32 440.56L298.03 440.94L297.74 441.3L297.44 441.65L297.18 442.04L296.92 442.39L296.65 442.75L296.39 443.1L296.13 443.46L295.89 443.81L295.66 444.17L295.42 444.49L295.19 444.85L294.98 445.17L294.78 445.5L294.57 445.82L294.37 446.15L294.19 446.48L294.02 446.77L293.87 447.07L293.69 447.36L293.55 447.63L293.43 447.93L293.28 448.16L293.2 448.43L293.08 448.67L292.99 448.9L292.9 449.14L292.85 449.35L292.79 449.55L292.73 449.76L292.7 449.94L292.7 450.09L292.67 450.26L292.73 450.62L292.87 451.12L293.14 451.68L293.46 452.37L293.9 453.13L294.4 453.99L295.01 454.91L295.69 455.95L296.45 457.04L297.3 458.23L298.21 459.5L299.2 460.8L300.26 462.19L301.37 463.67L302.57 465.18L303.8 466.75L305.12 468.38L306.47 470.06L307.9 471.78L309.37 473.56L310.89 475.39L312.44 477.23L314.05 479.12L315.69 481.04L317.36 483L319.09 484.98L320.85 486.99L322.64 489L324.42 491.05L326.27 493.12L328.11 495.19L329.99 497.26L331.89 499.33L333.8 501.4L335.7 503.48L337.63 505.55L339.57 507.62L341.5 509.66L343.43 511.7L345.37 513.72L362.53 531.86L436.68 531.86L444.03 531.89L450.97 531.92L457.53 531.98L463.71 532.04L469.54 532.07L474.99 532.1L480.12 532.07L484.89 531.98L489.34 531.83L493.5 531.62L497.37 531.3L500.92 530.88L504.23 530.35L507.24 529.67L510.03 528.84L512.54 527.86L514.86 526.74L516.94 525.41L518.81 523.9L520.48 522.15L521.98 520.2L523.3 518.01L524.44 515.58L525.43 512.89L526.28 509.9L527.02 506.64L527.63 503.06L528.13 499.19L528.54 494.98L528.86 490.45L529.12 485.54L529.3 480.3L529.45 474.65L529.53 468.61L529.62 462.16L529.68 455.32L529.71 448.01L529.77 440.29L529.86 432.09L529.95 423.45L530.03 417.12L530.12 411.08L530.18 405.31L530.24 399.83L530.3 394.62L530.36 389.65L530.38 384.95L530.41 380.48L530.44 376.28L530.44 372.28L530.44 368.52L530.44 364.97L530.44 361.63L530.38 358.49L530.36 355.53L530.3 352.78L530.24 350.2L530.15 347.8L530.06 345.59L529.95 343.51L529.83 341.59L529.68 339.81L529.53 338.19L529.36 336.68L529.15 335.29L528.95 334.01L528.74 332.86L528.51 331.79L528.25 330.85L527.95 329.96L527.66 329.19L527.37 328.45L527.02 327.8L526.66 327.21L526.28 326.67L525.9 326.17L525.49 325.7L525.05 325.28L524.58 324.87L524.09 324.48L522.8 323.54L521.51 322.68L520.25 321.91L519.02 321.23L517.82 320.67L516.65 320.16L515.5 319.78L514.39 319.48L513.31 319.27L512.22 319.16L511.2 319.16L510.2 319.22L509.21 319.39L508.27 319.63L507.36 319.99L506.48 320.43L505.63 320.96L504.81 321.55L504.02 322.26L503.26 323.06L502.53 323.95L501.85 324.9L501.21 325.96L500.56 327.09L499.98 328.33L499.42 329.63L498.92 331.02L498.43 332.53L497.99 334.1L497.58 335.73L497.22 337.48L496.87 339.31L496.58 341.21L496.32 343.19L496.11 345.26L495.94 347.39L495.79 349.64L495.67 351.95L495.61 354.35L495.61 356.8L495.61 357.87L495.58 358.93L495.58 359.94L495.55 360.97L495.53 361.98L495.5 362.96L495.47 363.93L495.41 364.88L495.38 365.83L495.32 366.75L495.26 367.63L495.2 368.52L495.14 369.38L495.06 370.21L495 371.04L494.91 371.84L494.82 372.61L494.73 373.35L494.62 374.06L494.53 374.77L494.41 375.42L494.32 376.07L494.21 376.66L494.09 377.25L493.97 377.81L493.83 378.32L493.71 378.82L493.56 379.29L493.45 379.71L493.3 380.09L493.15 380.45L493.01 380.77L492.86 381.07L492.71 381.34L492.54 381.54L492.39 381.72L492.22 381.87L492.04 381.96L491.86 382.02L491.69 382.05L491.51 382.02L491.37 381.93L491.19 381.78L491.01 381.57L490.87 381.28L490.69 380.95L490.55 380.57L490.4 380.12L490.25 379.62L490.11 379.06L489.96 378.47L489.81 377.78L489.7 377.07L489.55 376.31L489.43 375.48L489.32 374.62L489.2 373.67L489.08 372.69L488.96 371.69L488.88 370.62L488.76 369.5L488.67 368.34L488.58 367.13L488.5 365.86L488.41 364.56L488.35 363.22L488.26 361.83L488.2 360.41L488.14 358.93L488.08 357.42L488.03 355.88L487.97 354.29L487.94 352.66L487.91 351L487.88 349.28L487.85 347.57L487.82 345.79L487.82 343.99L487.79 342.12L487.79 340.26L487.79 336.74L487.76 333.39L487.73 330.17L487.7 327.09L487.65 324.13L487.56 321.29L487.47 318.59L487.35 316.02L487.21 313.59L487.06 311.25L486.88 309.06L486.68 306.96L486.47 304.98L486.21 303.09L485.95 301.34L485.65 299.65L485.33 298.08L484.98 296.63L484.6 295.27L484.19 293.97L483.75 292.79L483.28 291.69L482.78 290.66L482.23 289.74L481.67 288.88L481.05 288.08L480.41 287.37L479.74 286.72L479 286.16L478.24 285.65L477.45 285.21L476.6 284.8L475.72 284.47L474.82 284.2L473.82 283.97L472.82 283.79L471.77 283.64L470.66 283.55L469.48 283.49L468.28 283.49L467.08 283.49L465.94 283.55L464.83 283.64L463.77 283.79L462.75 283.97L461.78 284.2L460.84 284.47L459.96 284.8L459.11 285.21L458.32 285.65L457.56 286.16L456.86 286.72L456.16 287.37L455.51 288.08L454.92 288.88L454.34 289.74L453.81 290.66L453.28 291.69L452.82 292.79L452.38 293.97L451.97 295.27L451.59 296.63L451.23 298.08L450.91 299.65L450.62 301.34L450.36 303.09L450.12 304.98L449.89 306.96L449.68 309.06L449.51 311.25L449.36 313.59L449.24 316.02L449.12 318.59L449.01 321.29L448.95 324.13L448.89 327.09L448.83 330.17L448.8 333.39L448.77 336.74L448.77 340.26L448.77 342.12L448.77 343.99L448.74 345.79L448.71 347.57L448.71 349.28L448.69 351L448.63 352.66L448.6 354.29L448.54 355.88L448.48 357.42L448.45 358.93L448.36 360.41L448.3 361.83L448.25 363.22L448.16 364.56L448.07 365.86L447.98 367.13L447.89 368.34L447.81 369.5L447.69 370.62L447.6 371.69L447.48 372.69L447.37 373.67L447.25 374.62L447.13 375.48L447.02 376.31L446.87 377.07L446.75 377.78L446.61 378.47L446.46 379.06L446.31 379.62L446.17 380.12L446.02 380.57L445.87 380.95L445.73 381.28L445.55 381.57L445.38 381.78L445.23 381.93L445.05 382.02L444.88 382.05L444.7 382.02L444.53 381.9L444.35 381.69L444.2 381.43L444.03 381.07L443.88 380.66L443.71 380.18L443.56 379.62L443.41 378.97L443.27 378.26L443.15 377.49L443 376.63L442.86 375.71L442.74 374.74L442.62 373.67L442.48 372.55L442.36 371.36L442.27 370.12L442.15 368.79L442.04 367.4L441.95 365.98L441.86 364.47L441.74 362.9L441.68 361.27L441.6 359.58L441.51 357.84L441.45 356.03L441.36 354.17L441.3 352.24L441.24 350.29L441.19 348.25L441.16 346.18L441.1 344.02L441.07 341.83L441.04 339.61L441.01 337.3L441.01 334.96L440.98 332.56L440.98 330.14L440.98 327.65L440.98 324.9L440.95 322.2L440.95 319.6L440.92 317.06L440.89 314.6L440.86 312.17L440.83 309.83L440.78 307.56L440.75 305.37L440.69 303.2L440.63 301.13L440.54 299.12L440.48 297.17L440.4 295.3L440.31 293.47L440.22 291.72L440.13 290.03L440.01 288.41L439.93 286.84L439.81 285.36L439.69 283.94L439.55 282.55L439.43 281.24L439.28 280L439.14 278.82L438.99 277.72L438.84 276.66L438.67 275.65L438.52 274.73L438.34 273.88L438.17 273.05L437.96 272.31L437.79 271.63L437.58 271L437.38 270.44L437.17 269.91L436.97 269.47L436.73 269.08L436.53 268.76L436.29 268.49L436.09 268.28L435.85 268.1L435.62 267.9L435.39 267.69L435.15 267.51L434.89 267.31L434.62 267.13L434.36 266.95L434.07 266.77L433.78 266.6L433.48 266.42L433.19 266.27L432.87 266.09L432.57 265.94L432.25 265.8L431.93 265.65L431.61 265.5L431.26 265.35L430.93 265.23L430.58 265.12L430.23 264.97L429.88 264.85L429.53 264.76L429.18 264.64L428.82 264.55L428.47 264.43L428.09 264.35L427.74 264.26L427.39 264.2L427.01 264.11L426.66 264.05L426.28 263.99L425.92 263.93L425.57 263.9L425.19 263.87L424.84 263.84L424.49 263.81L424.11 263.78L423.76 263.78L423.41 263.78L422.26 263.78L421.18 263.81L420.12 263.9ZM279.14 111.13L273.01 111.93L266.92 112.97L260.83 114.18L254.76 115.66L248.73 117.32L242.72 119.18L236.81 121.25L230.89 123.56L225.09 126.02L219.32 128.71L213.64 131.58L208.04 134.63L202.53 137.88L197.11 141.32L191.81 144.93L186.63 148.72L181.53 152.65L176.61 156.8L171.78 161.09L167.12 165.56L162.61 170.17L158.24 174.94L154.02 179.88L150.01 184.97L146.14 190.18L142.48 195.57L139.03 201.07L135.75 206.72L132.7 212.52L131.88 214.15L131.06 215.84L130.27 217.59L129.48 219.36L128.71 221.23L127.95 223.12L127.19 225.07L126.46 227.06L125.73 229.07L125.02 231.14L124.32 233.24L123.65 235.37L123 237.53L122.36 239.72L121.71 241.94L121.1 244.16L120.51 246.41L119.93 248.69L119.37 250.97L118.84 253.28L118.32 255.59L117.82 257.89L117.35 260.2L116.91 262.51L116.47 264.82L116.06 267.13L115.68 269.41L115.33 271.69L115.01 273.96L114.68 276.21L114.42 278.46L114.16 280.68L113.92 282.87L113.75 285.03L113.57 287.16L113.42 289.27L113.31 291.34L113.25 293.35L113.19 295.33L113.19 297.29L113.22 299.21L113.28 301.22L113.42 303.32L113.6 305.48L113.83 307.7L114.1 309.98L114.42 312.32L114.8 314.72L115.21 317.14L115.68 319.63L116.15 322.18L116.7 324.72L117.26 327.32L117.88 329.96L118.52 332.59L119.19 335.26L119.93 337.95L120.66 340.61L121.45 343.34L122.24 346.03L123.09 348.72L123.94 351.42L124.82 354.08L125.73 356.74L126.66 359.41L127.63 362.01L128.6 364.62L129.59 367.16L130.59 369.71L131.61 372.19L132.64 374.62L133.69 377.02L134.78 379.35L135.83 381.63L136.92 383.85L138.03 386.01L139.11 388.08L140.23 390.1L141.34 392.02L142.45 393.88L143.98 396.25L145.56 398.65L147.23 401.02L148.93 403.38L150.71 405.75L152.53 408.09L154.43 410.4L156.37 412.71L158.36 415.02L160.41 417.27L162.52 419.51L164.66 421.73L166.83 423.95L169.05 426.11L171.31 428.27L173.62 430.38L175.96 432.48L178.34 434.52L180.74 436.53L183.17 438.51L185.63 440.47L188.12 442.39L190.64 444.26L193.19 446.09L195.74 447.87L198.32 449.61L200.92 451.3L203.53 452.93L206.17 454.53L208.8 456.09L211.44 457.57L214.08 459.02L216.74 460.39L219.41 461.72L222.07 462.99L224.71 464.2L227.37 465.33L230.04 466.42L232.68 467.43L235.31 468.38L236.98 468.94L238.71 469.5L240.5 470.06L242.37 470.63L244.28 471.16L246.27 471.69L248.29 472.22L250.34 472.76L252.42 473.26L254.56 473.76L256.7 474.24L258.86 474.74L261.03 475.18L263.2 475.63L265.37 476.07L267.54 476.49L269.67 476.87L271.78 477.26L273.89 477.61L275.94 477.94L277.96 478.26L279.96 478.56L281.86 478.82L283.73 479.06L285.52 479.27L287.25 479.47L288.89 479.62L290.47 479.74L291.94 479.86L293.31 479.92L294.6 479.95L295.77 479.95L296.83 479.92L297.77 479.86L298.56 479.74L299.23 479.62L299.79 479.42L300.17 479.21L300.4 478.94L300.49 478.65L300.49 478.53L300.46 478.44L300.43 478.29L300.37 478.14L300.31 477.97L300.23 477.79L300.14 477.58L300.05 477.34L299.93 477.11L299.82 476.87L299.67 476.6L299.52 476.34L299.38 476.04L299.2 475.75L299.03 475.42L298.85 475.09L298.65 474.74L298.44 474.38L298.24 474.03L298 473.67L297.77 473.29L297.53 472.9L297.3 472.49L297.03 472.08L296.77 471.66L296.51 471.25L296.24 470.8L295.95 470.39L295.69 469.94L295.39 469.5L295.1 469.03L294.81 468.58L294.49 468.14L294.19 467.67L293.87 467.19L293.58 466.72L293.26 466.25L292.93 465.77L292.61 465.33L292.29 464.85L291.73 464.09L291.18 463.37L290.65 462.66L290.18 461.98L289.71 461.33L289.27 460.71L288.86 460.09L288.48 459.5L288.13 458.94L287.81 458.37L287.48 457.84L287.22 457.31L286.96 456.78L286.72 456.27L286.52 455.77L286.34 455.27L286.17 454.76L286.05 454.29L285.93 453.79L285.84 453.31L285.79 452.81L285.76 452.34L285.73 451.83L285.76 451.33L285.79 450.83L285.81 450.29L285.9 449.76L285.99 449.23L286.11 448.67L286.25 448.1L286.43 447.51L286.61 446.89L286.81 446.27L287.02 445.62L287.28 444.94L287.54 444.26L287.81 443.52L288.13 442.78L288.45 442.01L288.77 441.18L288.98 440.68L289.21 440.17L289.45 439.67L289.68 439.17L289.92 438.66L290.18 438.16L290.44 437.66L290.71 437.15L291 436.65L291.26 436.18L291.56 435.67L291.85 435.2L292.17 434.73L292.46 434.25L292.79 433.78L293.11 433.31L293.4 432.86L293.72 432.39L294.08 431.97L294.4 431.53L294.72 431.12L295.04 430.7L295.39 430.29L295.72 429.9L296.07 429.52L296.39 429.13L296.71 428.78L297.06 428.42L297.39 428.1L297.74 427.77L298.06 427.48L298.38 427.18L298.7 426.88L299.03 426.62L299.35 426.38L299.67 426.14L299.96 425.94L300.29 425.76L300.58 425.58L300.87 425.4L301.66 424.99L302.48 424.58L303.36 424.19L304.24 423.86L305.18 423.54L306.14 423.21L307.14 422.95L308.17 422.71L309.22 422.47L310.3 422.3L311.39 422.12L312.5 421.97L313.64 421.85L314.79 421.73L315.93 421.67L317.1 421.62L318.27 421.59L319.44 421.59L320.62 421.62L321.82 421.67L322.99 421.73L324.16 421.82L325.33 421.94L326.47 422.09L327.62 422.27L328.76 422.44L329.87 422.65L330.96 422.89L332.04 423.15L333.09 423.42L334.12 423.72L335.12 424.04L336.08 424.4L337.02 424.75L337.93 425.14L338.81 425.55L339.63 425.97L340.42 426.41L341.15 426.88L341.85 427.39L342.2 427.62L342.56 427.83L342.91 428.07L343.26 428.27L343.61 428.48L343.96 428.66L344.28 428.87L344.64 429.04L344.99 429.22L345.31 429.37L345.66 429.55L345.98 429.7L346.31 429.81L346.63 429.96L346.95 430.08L347.27 430.2L347.59 430.32L347.89 430.41L348.18 430.49L348.47 430.58L348.77 430.67L349.06 430.73L349.32 430.79L349.62 430.85L349.88 430.91L350.11 430.94L350.38 430.97L350.61 430.97L350.85 431L351.08 431L351.29 431L351.49 430.97L351.7 430.94L351.87 430.91L352.05 430.88L352.22 430.82L352.37 430.76L352.52 430.7L352.66 430.61L352.78 430.55L353.01 430.17L353.22 429.52L353.42 428.6L353.63 427.42L353.8 426.03L353.98 424.43L354.13 422.59L354.27 420.61L354.42 418.42L354.54 416.08L354.65 413.62L354.74 411.02L354.83 408.3L354.92 405.49L354.98 402.59L355.03 399.63L355.06 396.61L355.09 393.53L355.12 390.45L355.12 387.37L355.12 384.3L355.09 381.22L355.06 378.2L355.03 375.21L354.98 372.31L354.92 369.47L354.83 366.75L354.74 364.11L354.65 361.6L354.54 359.23L354.42 357.04L354.27 355L354.13 353.13L353.98 351.47L353.8 350.05L353.63 348.84L353.42 347.86L353.22 347.15L353.01 346.71L352.78 346.56L352.69 346.56L352.57 346.59L352.43 346.62L352.28 346.68L352.13 346.74L351.96 346.8L351.75 346.89L351.55 346.98L351.31 347.06L351.08 347.18L350.85 347.3L350.58 347.45L350.29 347.6L350.03 347.75L349.7 347.92L349.41 348.1L349.09 348.28L348.74 348.46L348.41 348.66L348.03 348.87L347.68 349.11L347.3 349.31L346.92 349.55L346.54 349.79L346.13 350.05L345.75 350.29L345.34 350.56L344.9 350.82L344.49 351.12L344.05 351.39L343.61 351.68L343.17 351.98L342.73 352.27L342.29 352.57L341.82 352.87L341.35 353.16L340.92 353.49L340.45 353.81L339.98 354.14L339.51 354.46L338.19 355.38L336.81 356.27L335.44 357.16L334.03 357.99L332.63 358.81L331.16 359.58L329.73 360.32L328.23 361.06L326.74 361.74L325.21 362.4L323.69 363.02L322.14 363.61L320.59 364.17L319 364.7L317.42 365.21L315.84 365.68L314.23 366.12L312.65 366.51L311.04 366.89L309.43 367.22L307.78 367.52L306.17 367.78L304.56 368.02L302.92 368.23L301.31 368.37L299.7 368.52L298.06 368.61L296.45 368.67L294.84 368.7L293.26 368.7L291.64 368.67L290.06 368.58L288.51 368.46L286.93 368.31L285.38 368.14L283.85 367.93L282.33 367.66L280.81 367.37L279.34 367.04L277.85 366.66L276.35 366.24L274.86 365.74L273.34 365.21L271.81 364.62L270.29 363.96L268.77 363.28L267.21 362.57L265.69 361.8L264.17 360.97L262.64 360.12L261.12 359.23L259.63 358.31L258.1 357.36L256.64 356.36L255.14 355.35L253.71 354.29L252.24 353.22L250.84 352.1L249.43 350.97L248.06 349.82L246.71 348.63L245.36 347.45L244.07 346.21L242.78 344.99L241.55 343.72L240.35 342.48L239.18 341.18L238.04 339.9L236.92 338.6L235.87 337.3L234.84 335.97L233.88 334.66L232.97 333.33L232.09 332L231.24 330.67L230.48 329.34L229.75 328.04L229.07 326.7L228.46 325.4L227.9 324.1L227.08 322.06L226.35 319.99L225.68 317.85L225.09 315.69L224.53 313.5L224.09 311.25L223.68 309.01L223.36 306.73L223.1 304.42L222.89 302.08L222.75 299.74L222.69 297.4L222.69 295.04L222.75 292.67L222.86 290.3L223.04 287.93L223.3 285.57L223.6 283.2L223.98 280.83L224.39 278.49L224.88 276.18L225.41 273.88L226.03 271.63L226.67 269.38L227.37 267.16L228.14 264.97L228.96 262.81L229.84 260.71L230.77 258.63L231.74 256.62L232.76 254.64L233.85 252.74L234.99 250.88L236.19 249.07L237.42 247.33L238.68 245.67L240.03 244.07L241.41 242.53L242.81 241.08L244.31 239.72L245.92 238.33L247.62 236.97L249.32 235.7L251.07 234.42L252.89 233.24L254.73 232.09L256.61 230.99L258.51 229.96L260.45 228.98L262.41 228.03L264.4 227.14L266.42 226.32L268.44 225.52L270.52 224.81L272.6 224.13L274.68 223.5L276.82 222.94L278.93 222.44L281.07 221.99L283.21 221.58L285.38 221.26L287.54 220.96L289.71 220.72L291.85 220.57L294.02 220.46L296.18 220.4L298.35 220.4L300.49 220.46L302.63 220.57L304.77 220.75L306.88 220.99L308.99 221.31L311.07 221.67L313.15 222.08L315.2 222.56L317.22 223.12L319.24 223.71L321.2 224.39L323.16 225.13L325.07 225.93L326.27 226.46L327.5 227.06L328.76 227.71L330.02 228.45L331.28 229.22L332.57 230.04L333.86 230.93L335.14 231.85L336.43 232.83L337.72 233.86L339.01 234.93L340.3 236.02L341.59 237.15L342.85 238.33L344.11 239.54L345.37 240.76L346.6 242.03L347.83 243.3L349.03 244.61L350.2 245.94L351.34 247.27L352.46 248.63L353.57 249.99L354.62 251.35L355.65 252.74L356.65 254.11L357.61 255.5L358.55 256.89L359.43 258.25L360.25 259.64L361.04 261L361.77 262.33L362.45 263.69L363.09 265L363.68 266.3L364.2 267.6L364.64 268.84L365.05 270.09L365.38 271.27L365.67 272.46L365.81 273.31L365.99 274.14L366.17 274.91L366.34 275.68L366.49 276.39L366.66 277.07L366.84 277.72L367.02 278.34L367.22 278.91L367.43 279.47L367.63 280L367.87 280.5L368.13 280.98L368.36 281.42L368.66 281.84L368.98 282.25L369.3 282.64L369.65 282.99L370.03 283.35L370.44 283.67L370.88 284L371.35 284.29L371.85 284.59L372.41 284.89L372.99 285.15L373.61 285.42L374.25 285.68L374.98 285.92L375.72 286.16L376.54 286.42L377.36 286.66L378.26 286.9L379.23 287.13L380.23 287.4L381.28 287.64L382.39 287.9L383.6 288.17L384.83 288.44L386.14 288.7L387.52 289L388.17 289.18L388.81 289.32L389.4 289.47L389.98 289.59L390.54 289.71L391.07 289.83L391.56 289.92L392.06 289.98L392.5 290.03L392.94 290.06L393.35 290.09L393.73 290.09L394.11 290.06L394.46 290.03L394.79 290.01L395.11 289.95L395.37 289.86L395.66 289.77L395.9 289.62L396.13 289.5L396.37 289.32L396.57 289.18L396.75 288.97L396.92 288.76L397.07 288.53L397.22 288.26L397.36 287.96L397.45 287.67L397.57 287.34L397.66 287.02L397.74 286.63L397.8 286.25L397.86 285.83L397.92 285.42L397.95 284.94L397.98 284.47L398.01 283.97L398.04 283.43L398.04 282.87L398.04 282.31L398.07 281.19L398.13 280.09L398.21 279L398.36 277.93L398.54 276.86L398.74 275.83L398.97 274.79L399.27 273.79L399.56 272.81L399.91 271.86L400.29 270.92L400.7 270L401.14 269.08L401.64 268.22L402.14 267.36L402.67 266.54L403.25 265.74L403.84 264.94L404.45 264.2L405.13 263.49L405.8 262.78L406.5 262.13L407.24 261.48L408 260.88L408.76 260.29L409.58 259.76L410.4 259.23L411.25 258.75L412.13 258.31L413.04 257.89L413.94 257.54L414.88 257.18L415.85 256.89L416.81 256.62L417.81 256.41L418.81 256.21L419.83 256.09L420.89 255.97L421.94 255.91L423.02 255.88L423.99 255.91L424.96 255.97L425.92 256.06L426.86 256.18L427.83 256.33L428.77 256.5L429.7 256.74L430.64 256.98L431.58 257.27L432.49 257.57L433.37 257.92L434.27 258.28L435.12 258.66L436 259.08L436.82 259.49L437.64 259.97L438.46 260.44L439.22 260.94L439.99 261.45L440.72 262.01L441.45 262.54L442.12 263.13L442.8 263.72L443.41 264.32L444.03 264.94L444.58 265.56L445.14 266.21L445.64 266.86L446.11 267.51L446.58 268.19L446.96 268.87L447.34 269.55L447.66 270.26L447.95 270.95L448.19 271.66L448.39 272.37L448.57 273.08L448.69 273.79L448.74 274.5L448.77 275.21L448.77 275.47L448.8 275.71L448.8 275.95L448.83 276.18L448.89 276.39L448.92 276.63L448.98 276.81L449.07 277.01L449.12 277.19L449.21 277.34L449.3 277.52L449.42 277.66L449.51 277.78L449.62 277.93L449.77 278.02L449.89 278.14L450.03 278.23L450.21 278.31L450.36 278.4L450.53 278.46L450.71 278.52L450.91 278.55L451.09 278.58L451.29 278.61L451.53 278.61L451.73 278.61L451.97 278.61L452.23 278.61L452.46 278.58L452.73 278.52L452.99 278.49L453.28 278.43L453.55 278.34L453.84 278.29L454.16 278.17L454.46 278.08L454.78 277.96L455.1 277.84L455.45 277.72L455.8 277.58L456.07 277.46L456.36 277.34L456.62 277.22L456.92 277.1L457.24 277.01L457.56 276.89L457.88 276.78L458.21 276.69L458.53 276.57L458.88 276.48L459.23 276.36L459.58 276.27L459.93 276.18L460.29 276.1L460.67 276.01L461.02 275.92L461.4 275.83L461.78 275.74L462.16 275.68L462.54 275.59L462.92 275.53L463.3 275.44L463.68 275.38L464.06 275.33L464.45 275.27L464.83 275.21L465.21 275.15L465.59 275.12L465.97 275.06L466.35 275.03L466.7 274.97L467.08 274.94L467.43 274.91L467.81 274.88L468.17 274.85L468.52 274.85L468.84 274.82L469.19 274.82L469.51 274.82L469.84 274.82L470.3 274.82L470.74 274.85L471.15 274.85L471.56 274.85L471.94 274.82L472.3 274.79L472.65 274.73L472.97 274.67L473.26 274.59L473.56 274.5L473.82 274.38L474.05 274.26L474.29 274.08L474.49 273.91L474.7 273.73L474.87 273.49L475.02 273.25L475.17 272.96L475.28 272.66L475.4 272.34L475.49 271.98L475.58 271.6L475.64 271.18L475.69 270.74L475.72 270.26L475.75 269.76L475.75 269.23L475.72 268.64L475.69 268.05L475.66 267.39L475.61 266.68L475.55 265.97L475.46 265.2L475.37 264.41L475.25 263.55L475.14 262.66L474.99 261.71L474.84 260.74L474.7 259.73L474.52 258.63L474.17 256.59L473.76 254.49L473.32 252.36L472.79 250.2L472.24 248.01L471.62 245.79L470.95 243.54L470.22 241.29L469.45 238.98L468.63 236.67L467.78 234.37L466.88 232.03L465.91 229.66L464.91 227.32L463.89 224.95L462.8 222.56L461.69 220.19L460.52 217.82L459.32 215.42L458.09 213.06L456.83 210.69L455.51 208.32L454.19 205.98L452.82 203.65L451.41 201.31L449.97 199L448.51 196.69L447.02 194.44L445.52 192.19L443.97 189.94L442.39 187.75L440.81 185.59L439.19 183.46L437.55 181.33L435.88 179.29L434.21 177.25L432.52 175.26L430.79 173.31L429.06 171.39L427.3 169.55L425.57 167.72L423.84 165.94L422.12 164.2L420.36 162.48L418.63 160.82L416.87 159.16L415.09 157.54L413.33 155.97L411.54 154.4L409.73 152.89L407.91 151.38L406.09 149.93L404.25 148.48L402.37 147.06L400.5 145.7L398.62 144.34L396.69 143L394.76 141.67L392.79 140.4L390.83 139.13L388.81 137.88L386.79 136.67L384.74 135.49L382.66 134.3L380.55 133.15L378.44 132.02L376.27 130.93L374.08 129.83L371.85 128.74L369.59 127.67L367.28 126.64L364.97 125.6L362.59 124.6L360.19 123.62L357.76 122.61L355.3 121.67L352.78 120.69L350.2 119.74L347.62 118.83L344.99 117.91L339.22 116.04L333.42 114.45L327.53 113.11L321.61 112.02L315.64 111.19L309.6 110.57L303.54 110.21L297.47 110.09L291.35 110.21L285.26 110.57L279.14 111.13ZM285.81 271.8L282.42 274.35L279.02 277.58L277.44 279.17L275.91 280.92L274.51 282.75L273.22 284.68L272.11 286.6L271.14 288.5L270.35 290.36L269.76 292.14L269.38 293.79L269.26 295.3L269.67 298.77L270.79 302.17L272.57 305.45L274.89 308.59L277.7 311.43L280.89 313.92L284.41 316.02L288.1 317.62L291.94 318.62L295.8 318.98L302.1 318.18L307.58 316.02L312.18 312.65L315.78 308.35L318.33 303.35L319.74 297.85L319.91 292.11L318.77 286.31L316.22 280.74L312.21 275.59L309.02 272.75L305.79 270.59L302.51 269.08L299.23 268.28L295.89 268.16L292.55 268.7L289.18 269.91L285.81 271.8ZM294.13 138.33L295.07 138.48L295.92 138.65L296.71 138.89L297.44 139.13L298.09 139.42L298.65 139.78L299.14 140.13L299.55 140.55L299.88 140.99L300.14 141.47L300.34 142L300.46 142.53L300.49 143.12L300.46 143.48L300.43 143.83L300.34 144.19L300.23 144.51L300.05 144.84L299.88 145.17L299.64 145.49L299.41 145.79L299.11 146.11L298.79 146.41L298.41 146.7L298.03 146.97L297.59 147.27L297.15 147.53L296.65 147.8L296.13 148.07L295.57 148.33L294.98 148.6L294.34 148.84L293.69 149.07L292.99 149.31L292.29 149.55L291.53 149.78L290.74 150.02L289.92 150.23L289.04 150.43L288.16 150.64L287.25 150.85L286.28 151.05L285.29 151.23L284.29 151.44L283.24 151.62L282.15 151.79L276.09 152.8L270.17 153.98L264.34 155.38L258.63 156.97L253.04 158.75L247.56 160.7L242.23 162.86L237.01 165.2L231.92 167.72L226.96 170.41L222.13 173.28L217.44 176.3L212.9 179.5L208.51 182.87L204.26 186.42L200.16 190.12L196.18 193.97L192.4 197.96L188.74 202.14L185.25 206.43L181.94 210.9L178.78 215.48L175.79 220.25L172.98 225.13L170.31 230.13L167.85 235.28L165.57 240.55L163.46 245.97L161.52 251.5L159.79 257.15L158.24 262.93L156.87 268.81L155.72 274.82L155.43 276.36L155.14 277.84L154.87 279.29L154.58 280.68L154.29 282.01L153.99 283.29L153.73 284.5L153.44 285.65L153.15 286.78L152.85 287.84L152.56 288.85L152.27 289.83L151.97 290.74L151.68 291.6L151.39 292.4L151.09 293.17L150.77 293.88L150.48 294.56L150.16 295.18L149.86 295.75L149.54 296.28L149.25 296.78L148.93 297.2L148.6 297.61L148.28 297.97L147.96 298.26L147.61 298.53L147.29 298.77L146.96 298.94L146.61 299.06L146.26 299.18L145.91 299.24L145.56 299.27L144.8 299.15L144.09 298.82L143.48 298.29L142.95 297.58L142.48 296.66L142.1 295.57L141.78 294.3L141.55 292.88L141.4 291.31L141.31 289.59L141.28 287.73L141.31 285.74L141.43 283.64L141.6 281.42L141.87 279.11L142.16 276.69L142.54 274.2L142.98 271.63L143.48 268.96L144.04 266.27L144.65 263.52L145.29 260.71L146.03 257.86L146.82 254.99L147.64 252.12L148.52 249.25L149.45 246.35L150.45 243.48L151.5 240.61L152.59 237.77L153.7 234.96L154.87 232.18L156.1 229.48L157.95 225.52L159.91 221.64L161.96 217.85L164.1 214.12L166.33 210.45L168.64 206.87L171.04 203.35L173.53 199.92L176.11 196.57L178.78 193.29L181.53 190.09L184.34 186.98L187.24 183.94L190.23 181.01L193.28 178.13L196.41 175.38L199.6 172.69L202.89 170.11L206.22 167.63L209.65 165.2L213.11 162.89L216.65 160.7L220.26 158.57L223.95 156.56L227.67 154.67L231.45 152.83L235.31 151.14L239.21 149.52L243.16 148.04L247.18 146.65L251.25 145.37L255.35 144.19L259.51 143.12L261.97 142.53L264.34 142L266.63 141.47L268.85 140.99L270.99 140.55L273.07 140.13L275.06 139.78L276.97 139.42L278.81 139.13L280.57 138.89L282.27 138.65L283.88 138.48L285.43 138.33L286.9 138.21L288.3 138.15L289.62 138.12L290.85 138.12L292.02 138.15L293.11 138.21L294.13 138.33ZM291.85 181.48L293.55 181.75L295.1 182.1L296.48 182.51L297.65 183.05L298.65 183.64L299.44 184.32L300.02 185.09L300.37 185.95L300.49 186.89L300.46 187.37L300.4 187.84L300.31 188.29L300.17 188.7L299.96 189.08L299.76 189.47L299.47 189.82L299.17 190.18L298.79 190.51L298.41 190.8L297.94 191.07L297.47 191.33L296.92 191.57L296.36 191.78L295.72 191.99L295.04 192.16L294.34 192.31L293.58 192.43L292.76 192.55L291.91 192.64L291 192.73L290.06 192.75L289.04 192.78L288.01 192.81L285.81 192.93L283.5 193.17L281.1 193.52L278.64 194L276.09 194.59L273.48 195.3L270.82 196.13L268.12 197.02L265.4 198.02L262.64 199.12L259.86 200.3L257.08 201.57L254.3 202.94L251.54 204.33L248.79 205.84L246.09 207.37L243.43 209L240.82 210.66L238.24 212.38L235.78 214.15L233.38 215.96L231.07 217.79L228.84 219.69L226.73 221.58L224.74 223.59L222.75 225.75L220.78 228.06L218.85 230.52L216.92 233.06L215.04 235.73L213.23 238.48L211.44 241.32L209.71 244.22L208.04 247.18L206.46 250.17L204.94 253.19L203.5 256.21L202.15 259.23L200.92 262.22L199.75 265.17L198.73 268.1L197.82 270.98L197.03 273.79L196.35 276.51L195.83 279.11L195.44 281.63L195.21 284L195.12 286.25L195.12 287.34L195.09 288.41L195.03 289.41L194.98 290.36L194.86 291.25L194.77 292.11L194.62 292.91L194.48 293.65L194.3 294.36L194.1 295.01L193.89 295.6L193.66 296.16L193.39 296.66L193.13 297.11L192.84 297.52L192.52 297.91L192.19 298.23L191.84 298.5L191.46 298.74L191.05 298.91L190.64 299.06L190.2 299.18L189.76 299.24L189.26 299.27L188.33 299.15L187.48 298.82L186.72 298.32L186.01 297.58L185.43 296.69L184.9 295.6L184.46 294.36L184.11 292.91L183.82 291.34L183.64 289.59L183.52 287.73L183.52 285.71L183.58 283.55L183.73 281.27L183.96 278.91L184.31 276.42L184.72 273.82L185.22 271.15L185.81 268.37L186.48 265.53L187.24 262.63L188.09 259.64L189.03 256.59L190.05 253.51L191.2 250.38L192.57 247.18L194.16 243.93L195.94 240.61L197.93 237.3L200.1 233.98L202.42 230.64L204.91 227.35L207.51 224.07L210.24 220.81L213.08 217.64L216.01 214.54L219.03 211.52L222.1 208.59L225.24 205.78L228.4 203.08L231.62 200.54L234.84 198.14L238.04 195.89L241.26 193.85L244.42 191.99L247.56 190.33L250.63 188.88L253.65 187.69L256.58 186.69L259.51 185.77L262.38 184.94L265.25 184.2L268.09 183.52L270.85 182.96L273.57 182.46L276.21 182.04L278.76 181.72L281.24 181.48L283.59 181.3L285.84 181.21L287.98 181.24L289.97 181.33L291.85 181.48Z" id="c1BVNlAgDN"></path><path d="M319.44 0.27L320.38 0.53L321.46 0.83L322.75 1.21L324.16 1.69L325.74 2.19L327.5 2.78L329.37 3.43L331.4 4.17L333.56 4.94L335.88 5.8L338.31 6.69L340.89 7.67L343.58 8.67L346.39 9.74L349.32 10.86L352.37 12.05L355.5 13.26L358.76 14.53L362.12 15.86L365.58 17.22L369.12 18.65L372.76 20.1L376.51 21.58L380.31 23.11L384.18 24.68L388.14 26.28L392.18 27.91L396.28 29.57L400.44 31.25L404.66 33L408.93 34.74L413.24 36.52L417.63 38.33L422.03 40.16L426.48 42L430.99 43.86L435.5 45.75L545.94 91.48L592.78 206.22L640 320.55L592.78 434.87L545.94 549.62L433.95 596.14L427.21 598.95L420.71 601.64L414.47 604.22L408.47 606.71L402.72 609.07L397.22 611.35L391.92 613.51L386.85 615.58L382.01 617.57L377.39 619.43L372.96 621.21L368.74 622.89L364.73 624.46L360.89 625.97L357.26 627.39L353.8 628.69L350.52 629.94L347.42 631.12L344.49 632.19L341.71 633.19L339.07 634.11L336.61 634.97L334.3 635.74L332.1 636.45L330.05 637.07L328.11 637.63L326.33 638.14L324.63 638.58L323.08 638.93L321.61 639.26L320.26 639.53L319 639.7L317.83 639.85L316.75 639.94L315.75 640L314.84 639.97L313.99 639.94L313.2 639.82L312.47 639.67L311.8 639.5L311.3 639.35L310.66 639.11L309.81 638.82L308.84 638.46L307.67 638.02L306.38 637.51L304.91 636.95L303.33 636.33L301.57 635.65L299.7 634.88L297.71 634.08L295.54 633.22L293.28 632.31L290.88 631.33L288.36 630.32L285.76 629.26L283 628.13L280.16 626.98L277.2 625.76L274.16 624.52L270.99 623.22L267.74 621.89L264.43 620.53L261 619.11L257.52 617.69L253.94 616.21L250.28 614.7L246.56 613.16L242.78 611.59L238.92 609.99L235.02 608.39L231.07 606.73L227.05 605.08L222.98 603.39L218.88 601.7L214.75 599.99L210.56 598.24L206.37 596.49L202.12 594.75L197.85 592.97L94.06 549.62L47.22 434.87L0 320.16L47.22 206.22L94.06 91.86L202.15 46.14L206.58 44.25L211 42.38L215.36 40.55L219.7 38.74L223.98 36.94L228.22 35.16L232.41 33.41L236.57 31.7L240.64 30.01L244.69 28.35L248.64 26.72L252.51 25.13L256.35 23.56L260.07 22.05L263.73 20.57L267.3 19.12L270.79 17.73L274.19 16.37L277.5 15.03L280.69 13.76L283.76 12.55L286.75 11.36L289.62 10.24L292.41 9.14L295.04 8.14L297.56 7.16L299.93 6.24L302.19 5.39L304.33 4.59L306.29 3.85L308.14 3.17L309.84 2.55L311.39 1.98L312.76 1.51L313.99 1.07L315.08 0.71L315.99 0.44L316.72 0.24L317.28 0.09L317.66 0L318.07 0.03L318.65 0.12L319.44 0.27ZM420.12 263.9L419.13 264.02L418.16 264.17L417.28 264.38L416.4 264.61L415.58 264.94L414.82 265.29L414.09 265.71L413.39 266.21L412.74 266.77L412.13 267.39L411.54 268.1L410.98 268.9L410.49 269.79L410.02 270.77L409.58 271.83L409.17 272.99L408.79 274.26L408.44 275.65L408.11 277.13L407.79 278.73L407.53 280.48L407.29 282.31L407.06 284.29L406.88 286.39L406.68 288.64L406.53 291.01L406.39 293.56L406.27 296.22L406.18 299.03L406.09 302.02L406.03 305.19L405.98 308.47L405.92 311.96L405.89 315.61L405.86 319.45L405.86 323.45L405.86 327.65L405.86 330.14L405.83 332.56L405.83 334.96L405.8 337.3L405.77 339.61L405.74 341.83L405.71 344.02L405.68 346.18L405.62 348.25L405.57 350.29L405.51 352.24L405.45 354.17L405.39 356.03L405.3 357.84L405.24 359.58L405.16 361.27L405.07 362.9L404.98 364.47L404.86 365.98L404.77 367.4L404.66 368.79L404.57 370.12L404.45 371.36L404.34 372.55L404.22 373.67L404.07 374.74L403.95 375.71L403.84 376.63L403.69 377.49L403.54 378.26L403.4 378.97L403.25 379.62L403.11 380.18L402.96 380.66L402.78 381.07L402.64 381.43L402.46 381.69L402.28 381.9L402.11 382.02L401.93 382.05L401.79 382.02L401.61 381.93L401.44 381.81L401.26 381.63L401.11 381.37L400.94 381.1L400.79 380.74L400.64 380.36L400.5 379.92L400.35 379.44L400.21 378.91L400.06 378.32L399.94 377.7L399.79 377.02L399.68 376.31L399.56 375.54L399.44 374.74L399.33 373.91L399.21 373.02L399.12 372.1L399 371.13L398.92 370.12L398.83 369.08L398.74 367.99L398.65 366.86L398.59 365.71L398.51 364.53L398.45 363.31L398.39 362.04L398.33 360.77L398.27 359.44L398.21 358.07L398.18 356.68L398.15 355.26L398.13 353.81L398.1 352.36L398.07 350.85L398.07 349.31L398.04 347.75L398.04 346.18L398.04 343.28L398.01 340.47L397.98 337.77L397.92 335.17L397.86 332.65L397.77 330.25L397.66 327.95L397.54 325.76L397.39 323.63L397.25 321.58L397.04 319.66L396.87 317.8L396.63 316.02L396.4 314.36L396.13 312.76L395.84 311.22L395.55 309.8L395.23 308.44L394.87 307.17L394.49 305.96L394.08 304.83L393.67 303.77L393.2 302.79L392.74 301.87L392.24 301.01L391.71 300.22L391.15 299.51L390.57 298.85L389.95 298.26L389.31 297.7L388.66 297.23L387.96 296.81L387.23 296.46L386.47 296.13L385.68 295.86L384.86 295.66L384.01 295.51L383.13 295.39L382.22 295.33L381.25 295.3L380.02 295.33L378.82 295.36L377.68 295.42L376.57 295.54L375.54 295.69L374.57 295.89L373.64 296.16L372.76 296.49L371.94 296.9L371.15 297.37L370.41 297.91L369.74 298.56L369.1 299.3L368.48 300.13L367.92 301.07L367.4 302.11L366.9 303.29L366.46 304.6L366.05 306.02L365.67 307.58L365.32 309.3L364.99 311.14L364.7 313.15L364.44 315.31L364.2 317.65L364 320.16L363.79 322.86L363.65 325.73L363.5 328.8L363.38 332.06L363.27 335.55L363.18 339.22L363.12 343.1L363.06 347.21L363 351.56L362.97 356.15L362.94 360.97L362.94 366.04L362.91 371.33L362.91 376.93L362.91 379.89L362.91 382.85L362.91 385.75L362.91 388.62L362.89 391.46L362.89 394.24L362.86 396.99L362.83 399.72L362.8 402.38L362.8 404.98L362.77 407.56L362.74 410.07L362.68 412.53L362.65 414.93L362.62 417.24L362.56 419.51L362.53 421.73L362.48 423.86L362.45 425.94L362.39 427.92L362.33 429.84L362.27 431.71L362.21 433.45L362.15 435.14L362.09 436.74L362.04 438.25L361.98 439.67L361.92 441L361.83 442.24L361.77 443.4L361.71 444.43L361.63 445.38L361.54 446.24L361.48 446.98L361.39 447.6L361.3 448.13L361.22 448.55L361.16 448.84L361.07 449.02L360.98 449.08L360.89 449.05L360.81 449.05L360.69 448.99L360.54 448.93L360.4 448.87L360.19 448.78L359.99 448.7L359.75 448.58L359.52 448.46L359.25 448.31L358.96 448.16L358.64 447.99L358.32 447.81L357.99 447.6L357.61 447.39L357.26 447.19L356.85 446.95L356.47 446.71L356.03 446.48L355.62 446.21L355.15 445.94L354.71 445.65L354.24 445.38L353.75 445.06L353.25 444.76L352.75 444.43L352.25 444.11L351.72 443.78L351.2 443.43L350.67 443.07L350.11 442.72L349.56 442.36L349 441.98L348.44 441.62L347.86 441.21L347.3 440.82L346.72 440.44L346.13 440.02L345.57 439.64L344.99 439.22L343.64 438.31L342.29 437.48L340.97 436.65L339.66 435.91L338.34 435.2L337.05 434.52L335.76 433.9L334.47 433.31L333.18 432.77L331.92 432.27L330.69 431.83L329.43 431.41L328.2 431.06L327 430.73L325.8 430.46L324.6 430.23L323.43 430.05L322.26 429.9L321.08 429.81L319.94 429.75L318.83 429.75L317.72 429.78L316.6 429.87L315.52 429.99L314.46 430.17L313.41 430.38L312.38 430.64L311.36 430.94L310.33 431.29L309.37 431.68L308.4 432.12L307.43 432.6L306.5 433.13L305.59 433.69L304.68 434.31L303.8 434.96L302.95 435.64L302.1 436.41L301.28 437.18L300.49 438.04L300.17 438.4L299.85 438.75L299.52 439.11L299.23 439.46L298.91 439.85L298.62 440.2L298.32 440.56L298.03 440.94L297.74 441.3L297.44 441.65L297.18 442.04L296.92 442.39L296.65 442.75L296.39 443.1L296.13 443.46L295.89 443.81L295.66 444.17L295.42 444.49L295.19 444.85L294.98 445.17L294.78 445.5L294.57 445.82L294.37 446.15L294.19 446.48L294.02 446.77L293.87 447.07L293.69 447.36L293.55 447.63L293.43 447.93L293.28 448.16L293.2 448.43L293.08 448.67L292.99 448.9L292.9 449.14L292.85 449.35L292.79 449.55L292.73 449.76L292.7 449.94L292.7 450.09L292.67 450.26L292.73 450.62L292.87 451.12L293.14 451.68L293.46 452.37L293.9 453.13L294.4 453.99L295.01 454.91L295.69 455.95L296.45 457.04L297.3 458.23L298.21 459.5L299.2 460.8L300.26 462.19L301.37 463.67L302.57 465.18L303.8 466.75L305.12 468.38L306.47 470.06L307.9 471.78L309.37 473.56L310.89 475.39L312.44 477.23L314.05 479.12L315.69 481.04L317.36 483L319.09 484.98L320.85 486.99L322.64 489L324.42 491.05L326.27 493.12L328.11 495.19L329.99 497.26L331.89 499.33L333.8 501.4L335.7 503.48L337.63 505.55L339.57 507.62L341.5 509.66L343.43 511.7L345.37 513.72L362.53 531.86L436.68 531.86L444.03 531.89L450.97 531.92L457.53 531.98L463.71 532.04L469.54 532.07L474.99 532.1L480.12 532.07L484.89 531.98L489.34 531.83L493.5 531.62L497.37 531.3L500.92 530.88L504.23 530.35L507.24 529.67L510.03 528.84L512.54 527.86L514.86 526.74L516.94 525.41L518.81 523.9L520.48 522.15L521.98 520.2L523.3 518.01L524.44 515.58L525.43 512.89L526.28 509.9L527.02 506.64L527.63 503.06L528.13 499.19L528.54 494.98L528.86 490.45L529.12 485.54L529.3 480.3L529.45 474.65L529.53 468.61L529.62 462.16L529.68 455.32L529.71 448.01L529.77 440.29L529.86 432.09L529.95 423.45L530.03 417.12L530.12 411.08L530.18 405.31L530.24 399.83L530.3 394.62L530.36 389.65L530.38 384.95L530.41 380.48L530.44 376.28L530.44 372.28L530.44 368.52L530.44 364.97L530.44 361.63L530.38 358.49L530.36 355.53L530.3 352.78L530.24 350.2L530.15 347.8L530.06 345.59L529.95 343.51L529.83 341.59L529.68 339.81L529.53 338.19L529.36 336.68L529.15 335.29L528.95 334.01L528.74 332.86L528.51 331.79L528.25 330.85L527.95 329.96L527.66 329.19L527.37 328.45L527.02 327.8L526.66 327.21L526.28 326.67L525.9 326.17L525.49 325.7L525.05 325.28L524.58 324.87L524.09 324.48L522.8 323.54L521.51 322.68L520.25 321.91L519.02 321.23L517.82 320.67L516.65 320.16L515.5 319.78L514.39 319.48L513.31 319.27L512.22 319.16L511.2 319.16L510.2 319.22L509.21 319.39L508.27 319.63L507.36 319.99L506.48 320.43L505.63 320.96L504.81 321.55L504.02 322.26L503.26 323.06L502.53 323.95L501.85 324.9L501.21 325.96L500.56 327.09L499.98 328.33L499.42 329.63L498.92 331.02L498.43 332.53L497.99 334.1L497.58 335.73L497.22 337.48L496.87 339.31L496.58 341.21L496.32 343.19L496.11 345.26L495.94 347.39L495.79 349.64L495.67 351.95L495.61 354.35L495.61 356.8L495.61 357.87L495.58 358.93L495.58 359.94L495.55 360.97L495.53 361.98L495.5 362.96L495.47 363.93L495.41 364.88L495.38 365.83L495.32 366.75L495.26 367.63L495.2 368.52L495.14 369.38L495.06 370.21L495 371.04L494.91 371.84L494.82 372.61L494.73 373.35L494.62 374.06L494.53 374.77L494.41 375.42L494.32 376.07L494.21 376.66L494.09 377.25L493.97 377.81L493.83 378.32L493.71 378.82L493.56 379.29L493.45 379.71L493.3 380.09L493.15 380.45L493.01 380.77L492.86 381.07L492.71 381.34L492.54 381.54L492.39 381.72L492.22 381.87L492.04 381.96L491.86 382.02L491.69 382.05L491.51 382.02L491.37 381.93L491.19 381.78L491.01 381.57L490.87 381.28L490.69 380.95L490.55 380.57L490.4 380.12L490.25 379.62L490.11 379.06L489.96 378.47L489.81 377.78L489.7 377.07L489.55 376.31L489.43 375.48L489.32 374.62L489.2 373.67L489.08 372.69L488.96 371.69L488.88 370.62L488.76 369.5L488.67 368.34L488.58 367.13L488.5 365.86L488.41 364.56L488.35 363.22L488.26 361.83L488.2 360.41L488.14 358.93L488.08 357.42L488.03 355.88L487.97 354.29L487.94 352.66L487.91 351L487.88 349.28L487.85 347.57L487.82 345.79L487.82 343.99L487.79 342.12L487.79 340.26L487.79 336.74L487.76 333.39L487.73 330.17L487.7 327.09L487.65 324.13L487.56 321.29L487.47 318.59L487.35 316.02L487.21 313.59L487.06 311.25L486.88 309.06L486.68 306.96L486.47 304.98L486.21 303.09L485.95 301.34L485.65 299.65L485.33 298.08L484.98 296.63L484.6 295.27L484.19 293.97L483.75 292.79L483.28 291.69L482.78 290.66L482.23 289.74L481.67 288.88L481.05 288.08L480.41 287.37L479.74 286.72L479 286.16L478.24 285.65L477.45 285.21L476.6 284.8L475.72 284.47L474.82 284.2L473.82 283.97L472.82 283.79L471.77 283.64L470.66 283.55L469.48 283.49L468.28 283.49L467.08 283.49L465.94 283.55L464.83 283.64L463.77 283.79L462.75 283.97L461.78 284.2L460.84 284.47L459.96 284.8L459.11 285.21L458.32 285.65L457.56 286.16L456.86 286.72L456.16 287.37L455.51 288.08L454.92 288.88L454.34 289.74L453.81 290.66L453.28 291.69L452.82 292.79L452.38 293.97L451.97 295.27L451.59 296.63L451.23 298.08L450.91 299.65L450.62 301.34L450.36 303.09L450.12 304.98L449.89 306.96L449.68 309.06L449.51 311.25L449.36 313.59L449.24 316.02L449.12 318.59L449.01 321.29L448.95 324.13L448.89 327.09L448.83 330.17L448.8 333.39L448.77 336.74L448.77 340.26L448.77 342.12L448.77 343.99L448.74 345.79L448.71 347.57L448.71 349.28L448.69 351L448.63 352.66L448.6 354.29L448.54 355.88L448.48 357.42L448.45 358.93L448.36 360.41L448.3 361.83L448.25 363.22L448.16 364.56L448.07 365.86L447.98 367.13L447.89 368.34L447.81 369.5L447.69 370.62L447.6 371.69L447.48 372.69L447.37 373.67L447.25 374.62L447.13 375.48L447.02 376.31L446.87 377.07L446.75 377.78L446.61 378.47L446.46 379.06L446.31 379.62L446.17 380.12L446.02 380.57L445.87 380.95L445.73 381.28L445.55 381.57L445.38 381.78L445.23 381.93L445.05 382.02L444.88 382.05L444.7 382.02L444.53 381.9L444.35 381.69L444.2 381.43L444.03 381.07L443.88 380.66L443.71 380.18L443.56 379.62L443.41 378.97L443.27 378.26L443.15 377.49L443 376.63L442.86 375.71L442.74 374.74L442.62 373.67L442.48 372.55L442.36 371.36L442.27 370.12L442.15 368.79L442.04 367.4L441.95 365.98L441.86 364.47L441.74 362.9L441.68 361.27L441.6 359.58L441.51 357.84L441.45 356.03L441.36 354.17L441.3 352.24L441.24 350.29L441.19 348.25L441.16 346.18L441.1 344.02L441.07 341.83L441.04 339.61L441.01 337.3L441.01 334.96L440.98 332.56L440.98 330.14L440.98 327.65L440.98 324.9L440.95 322.2L440.95 319.6L440.92 317.06L440.89 314.6L440.86 312.17L440.83 309.83L440.78 307.56L440.75 305.37L440.69 303.2L440.63 301.13L440.54 299.12L440.48 297.17L440.4 295.3L440.31 293.47L440.22 291.72L440.13 290.03L440.01 288.41L439.93 286.84L439.81 285.36L439.69 283.94L439.55 282.55L439.43 281.24L439.28 280L439.14 278.82L438.99 277.72L438.84 276.66L438.67 275.65L438.52 274.73L438.34 273.88L438.17 273.05L437.96 272.31L437.79 271.63L437.58 271L437.38 270.44L437.17 269.91L436.97 269.47L436.73 269.08L436.53 268.76L436.29 268.49L436.09 268.28L435.85 268.1L435.62 267.9L435.39 267.69L435.15 267.51L434.89 267.31L434.62 267.13L434.36 266.95L434.07 266.77L433.78 266.6L433.48 266.42L433.19 266.27L432.87 266.09L432.57 265.94L432.25 265.8L431.93 265.65L431.61 265.5L431.26 265.35L430.93 265.23L430.58 265.12L430.23 264.97L429.88 264.85L429.53 264.76L429.18 264.64L428.82 264.55L428.47 264.43L428.09 264.35L427.74 264.26L427.39 264.2L427.01 264.11L426.66 264.05L426.28 263.99L425.92 263.93L425.57 263.9L425.19 263.87L424.84 263.84L424.49 263.81L424.11 263.78L423.76 263.78L423.41 263.78L422.26 263.78L421.18 263.81L420.12 263.9ZM279.14 111.13L273.01 111.93L266.92 112.97L260.83 114.18L254.76 115.66L248.73 117.32L242.72 119.18L236.81 121.25L230.89 123.56L225.09 126.02L219.32 128.71L213.64 131.58L208.04 134.63L202.53 137.88L197.11 141.32L191.81 144.93L186.63 148.72L181.53 152.65L176.61 156.8L171.78 161.09L167.12 165.56L162.61 170.17L158.24 174.94L154.02 179.88L150.01 184.97L146.14 190.18L142.48 195.57L139.03 201.07L135.75 206.72L132.7 212.52L131.88 214.15L131.06 215.84L130.27 217.59L129.48 219.36L128.71 221.23L127.95 223.12L127.19 225.07L126.46 227.06L125.73 229.07L125.02 231.14L124.32 233.24L123.65 235.37L123 237.53L122.36 239.72L121.71 241.94L121.1 244.16L120.51 246.41L119.93 248.69L119.37 250.97L118.84 253.28L118.32 255.59L117.82 257.89L117.35 260.2L116.91 262.51L116.47 264.82L116.06 267.13L115.68 269.41L115.33 271.69L115.01 273.96L114.68 276.21L114.42 278.46L114.16 280.68L113.92 282.87L113.75 285.03L113.57 287.16L113.42 289.27L113.31 291.34L113.25 293.35L113.19 295.33L113.19 297.29L113.22 299.21L113.28 301.22L113.42 303.32L113.6 305.48L113.83 307.7L114.1 309.98L114.42 312.32L114.8 314.72L115.21 317.14L115.68 319.63L116.15 322.18L116.7 324.72L117.26 327.32L117.88 329.96L118.52 332.59L119.19 335.26L119.93 337.95L120.66 340.61L121.45 343.34L122.24 346.03L123.09 348.72L123.94 351.42L124.82 354.08L125.73 356.74L126.66 359.41L127.63 362.01L128.6 364.62L129.59 367.16L130.59 369.71L131.61 372.19L132.64 374.62L133.69 377.02L134.78 379.35L135.83 381.63L136.92 383.85L138.03 386.01L139.11 388.08L140.23 390.1L141.34 392.02L142.45 393.88L143.98 396.25L145.56 398.65L147.23 401.02L148.93 403.38L150.71 405.75L152.53 408.09L154.43 410.4L156.37 412.71L158.36 415.02L160.41 417.27L162.52 419.51L164.66 421.73L166.83 423.95L169.05 426.11L171.31 428.27L173.62 430.38L175.96 432.48L178.34 434.52L180.74 436.53L183.17 438.51L185.63 440.47L188.12 442.39L190.64 444.26L193.19 446.09L195.74 447.87L198.32 449.61L200.92 451.3L203.53 452.93L206.17 454.53L208.8 456.09L211.44 457.57L214.08 459.02L216.74 460.39L219.41 461.72L222.07 462.99L224.71 464.2L227.37 465.33L230.04 466.42L232.68 467.43L235.31 468.38L236.98 468.94L238.71 469.5L240.5 470.06L242.37 470.63L244.28 471.16L246.27 471.69L248.29 472.22L250.34 472.76L252.42 473.26L254.56 473.76L256.7 474.24L258.86 474.74L261.03 475.18L263.2 475.63L265.37 476.07L267.54 476.49L269.67 476.87L271.78 477.26L273.89 477.61L275.94 477.94L277.96 478.26L279.96 478.56L281.86 478.82L283.73 479.06L285.52 479.27L287.25 479.47L288.89 479.62L290.47 479.74L291.94 479.86L293.31 479.92L294.6 479.95L295.77 479.95L296.83 479.92L297.77 479.86L298.56 479.74L299.23 479.62L299.79 479.42L300.17 479.21L300.4 478.94L300.49 478.65L300.49 478.53L300.46 478.44L300.43 478.29L300.37 478.14L300.31 477.97L300.23 477.79L300.14 477.58L300.05 477.34L299.93 477.11L299.82 476.87L299.67 476.6L299.52 476.34L299.38 476.04L299.2 475.75L299.03 475.42L298.85 475.09L298.65 474.74L298.44 474.38L298.24 474.03L298 473.67L297.77 473.29L297.53 472.9L297.3 472.49L297.03 472.08L296.77 471.66L296.51 471.25L296.24 470.8L295.95 470.39L295.69 469.94L295.39 469.5L295.1 469.03L294.81 468.58L294.49 468.14L294.19 467.67L293.87 467.19L293.58 466.72L293.26 466.25L292.93 465.77L292.61 465.33L292.29 464.85L291.73 464.09L291.18 463.37L290.65 462.66L290.18 461.98L289.71 461.33L289.27 460.71L288.86 460.09L288.48 459.5L288.13 458.94L287.81 458.37L287.48 457.84L287.22 457.31L286.96 456.78L286.72 456.27L286.52 455.77L286.34 455.27L286.17 454.76L286.05 454.29L285.93 453.79L285.84 453.31L285.79 452.81L285.76 452.34L285.73 451.83L285.76 451.33L285.79 450.83L285.81 450.29L285.9 449.76L285.99 449.23L286.11 448.67L286.25 448.1L286.43 447.51L286.61 446.89L286.81 446.27L287.02 445.62L287.28 444.94L287.54 444.26L287.81 443.52L288.13 442.78L288.45 442.01L288.77 441.18L288.98 440.68L289.21 440.17L289.45 439.67L289.68 439.17L289.92 438.66L290.18 438.16L290.44 437.66L290.71 437.15L291 436.65L291.26 436.18L291.56 435.67L291.85 435.2L292.17 434.73L292.46 434.25L292.79 433.78L293.11 433.31L293.4 432.86L293.72 432.39L294.08 431.97L294.4 431.53L294.72 431.12L295.04 430.7L295.39 430.29L295.72 429.9L296.07 429.52L296.39 429.13L296.71 428.78L297.06 428.42L297.39 428.1L297.74 427.77L298.06 427.48L298.38 427.18L298.7 426.88L299.03 426.62L299.35 426.38L299.67 426.14L299.96 425.94L300.29 425.76L300.58 425.58L300.87 425.4L301.66 424.99L302.48 424.58L303.36 424.19L304.24 423.86L305.18 423.54L306.14 423.21L307.14 422.95L308.17 422.71L309.22 422.47L310.3 422.3L311.39 422.12L312.5 421.97L313.64 421.85L314.79 421.73L315.93 421.67L317.1 421.62L318.27 421.59L319.44 421.59L320.62 421.62L321.82 421.67L322.99 421.73L324.16 421.82L325.33 421.94L326.47 422.09L327.62 422.27L328.76 422.44L329.87 422.65L330.96 422.89L332.04 423.15L333.09 423.42L334.12 423.72L335.12 424.04L336.08 424.4L337.02 424.75L337.93 425.14L338.81 425.55L339.63 425.97L340.42 426.41L341.15 426.88L341.85 427.39L342.2 427.62L342.56 427.83L342.91 428.07L343.26 428.27L343.61 428.48L343.96 428.66L344.28 428.87L344.64 429.04L344.99 429.22L345.31 429.37L345.66 429.55L345.98 429.7L346.31 429.81L346.63 429.96L346.95 430.08L347.27 430.2L347.59 430.32L347.89 430.41L348.18 430.49L348.47 430.58L348.77 430.67L349.06 430.73L349.32 430.79L349.62 430.85L349.88 430.91L350.11 430.94L350.38 430.97L350.61 430.97L350.85 431L351.08 431L351.29 431L351.49 430.97L351.7 430.94L351.87 430.91L352.05 430.88L352.22 430.82L352.37 430.76L352.52 430.7L352.66 430.61L352.78 430.55L353.01 430.17L353.22 429.52L353.42 428.6L353.63 427.42L353.8 426.03L353.98 424.43L354.13 422.59L354.27 420.61L354.42 418.42L354.54 416.08L354.65 413.62L354.74 411.02L354.83 408.3L354.92 405.49L354.98 402.59L355.03 399.63L355.06 396.61L355.09 393.53L355.12 390.45L355.12 387.37L355.12 384.3L355.09 381.22L355.06 378.2L355.03 375.21L354.98 372.31L354.92 369.47L354.83 366.75L354.74 364.11L354.65 361.6L354.54 359.23L354.42 357.04L354.27 355L354.13 353.13L353.98 351.47L353.8 350.05L353.63 348.84L353.42 347.86L353.22 347.15L353.01 346.71L352.78 346.56L352.69 346.56L352.57 346.59L352.43 346.62L352.28 346.68L352.13 346.74L351.96 346.8L351.75 346.89L351.55 346.98L351.31 347.06L351.08 347.18L350.85 347.3L350.58 347.45L350.29 347.6L350.03 347.75L349.7 347.92L349.41 348.1L349.09 348.28L348.74 348.46L348.41 348.66L348.03 348.87L347.68 349.11L347.3 349.31L346.92 349.55L346.54 349.79L346.13 350.05L345.75 350.29L345.34 350.56L344.9 350.82L344.49 351.12L344.05 351.39L343.61 351.68L343.17 351.98L342.73 352.27L342.29 352.57L341.82 352.87L341.35 353.16L340.92 353.49L340.45 353.81L339.98 354.14L339.51 354.46L338.19 355.38L336.81 356.27L335.44 357.16L334.03 357.99L332.63 358.81L331.16 359.58L329.73 360.32L328.23 361.06L326.74 361.74L325.21 362.4L323.69 363.02L322.14 363.61L320.59 364.17L319 364.7L317.42 365.21L315.84 365.68L314.23 366.12L312.65 366.51L311.04 366.89L309.43 367.22L307.78 367.52L306.17 367.78L304.56 368.02L302.92 368.23L301.31 368.37L299.7 368.52L298.06 368.61L296.45 368.67L294.84 368.7L293.26 368.7L291.64 368.67L290.06 368.58L288.51 368.46L286.93 368.31L285.38 368.14L283.85 367.93L282.33 367.66L280.81 367.37L279.34 367.04L277.85 366.66L276.35 366.24L274.86 365.74L273.34 365.21L271.81 364.62L270.29 363.96L268.77 363.28L267.21 362.57L265.69 361.8L264.17 360.97L262.64 360.12L261.12 359.23L259.63 358.31L258.1 357.36L256.64 356.36L255.14 355.35L253.71 354.29L252.24 353.22L250.84 352.1L249.43 350.97L248.06 349.82L246.71 348.63L245.36 347.45L244.07 346.21L242.78 344.99L241.55 343.72L240.35 342.48L239.18 341.18L238.04 339.9L236.92 338.6L235.87 337.3L234.84 335.97L233.88 334.66L232.97 333.33L232.09 332L231.24 330.67L230.48 329.34L229.75 328.04L229.07 326.7L228.46 325.4L227.9 324.1L227.08 322.06L226.35 319.99L225.68 317.85L225.09 315.69L224.53 313.5L224.09 311.25L223.68 309.01L223.36 306.73L223.1 304.42L222.89 302.08L222.75 299.74L222.69 297.4L222.69 295.04L222.75 292.67L222.86 290.3L223.04 287.93L223.3 285.57L223.6 283.2L223.98 280.83L224.39 278.49L224.88 276.18L225.41 273.88L226.03 271.63L226.67 269.38L227.37 267.16L228.14 264.97L228.96 262.81L229.84 260.71L230.77 258.63L231.74 256.62L232.76 254.64L233.85 252.74L234.99 250.88L236.19 249.07L237.42 247.33L238.68 245.67L240.03 244.07L241.41 242.53L242.81 241.08L244.31 239.72L245.92 238.33L247.62 236.97L249.32 235.7L251.07 234.42L252.89 233.24L254.73 232.09L256.61 230.99L258.51 229.96L260.45 228.98L262.41 228.03L264.4 227.14L266.42 226.32L268.44 225.52L270.52 224.81L272.6 224.13L274.68 223.5L276.82 222.94L278.93 222.44L281.07 221.99L283.21 221.58L285.38 221.26L287.54 220.96L289.71 220.72L291.85 220.57L294.02 220.46L296.18 220.4L298.35 220.4L300.49 220.46L302.63 220.57L304.77 220.75L306.88 220.99L308.99 221.31L311.07 221.67L313.15 222.08L315.2 222.56L317.22 223.12L319.24 223.71L321.2 224.39L323.16 225.13L325.07 225.93L326.27 226.46L327.5 227.06L328.76 227.71L330.02 228.45L331.28 229.22L332.57 230.04L333.86 230.93L335.14 231.85L336.43 232.83L337.72 233.86L339.01 234.93L340.3 236.02L341.59 237.15L342.85 238.33L344.11 239.54L345.37 240.76L346.6 242.03L347.83 243.3L349.03 244.61L350.2 245.94L351.34 247.27L352.46 248.63L353.57 249.99L354.62 251.35L355.65 252.74L356.65 254.11L357.61 255.5L358.55 256.89L359.43 258.25L360.25 259.64L361.04 261L361.77 262.33L362.45 263.69L363.09 265L363.68 266.3L364.2 267.6L364.64 268.84L365.05 270.09L365.38 271.27L365.67 272.46L365.81 273.31L365.99 274.14L366.17 274.91L366.34 275.68L366.49 276.39L366.66 277.07L366.84 277.72L367.02 278.34L367.22 278.91L367.43 279.47L367.63 280L367.87 280.5L368.13 280.98L368.36 281.42L368.66 281.84L368.98 282.25L369.3 282.64L369.65 282.99L370.03 283.35L370.44 283.67L370.88 284L371.35 284.29L371.85 284.59L372.41 284.89L372.99 285.15L373.61 285.42L374.25 285.68L374.98 285.92L375.72 286.16L376.54 286.42L377.36 286.66L378.26 286.9L379.23 287.13L380.23 287.4L381.28 287.64L382.39 287.9L383.6 288.17L384.83 288.44L386.14 288.7L387.52 289L388.17 289.18L388.81 289.32L389.4 289.47L389.98 289.59L390.54 289.71L391.07 289.83L391.56 289.92L392.06 289.98L392.5 290.03L392.94 290.06L393.35 290.09L393.73 290.09L394.11 290.06L394.46 290.03L394.79 290.01L395.11 289.95L395.37 289.86L395.66 289.77L395.9 289.62L396.13 289.5L396.37 289.32L396.57 289.18L396.75 288.97L396.92 288.76L397.07 288.53L397.22 288.26L397.36 287.96L397.45 287.67L397.57 287.34L397.66 287.02L397.74 286.63L397.8 286.25L397.86 285.83L397.92 285.42L397.95 284.94L397.98 284.47L398.01 283.97L398.04 283.43L398.04 282.87L398.04 282.31L398.07 281.19L398.13 280.09L398.21 279L398.36 277.93L398.54 276.86L398.74 275.83L398.97 274.79L399.27 273.79L399.56 272.81L399.91 271.86L400.29 270.92L400.7 270L401.14 269.08L401.64 268.22L402.14 267.36L402.67 266.54L403.25 265.74L403.84 264.94L404.45 264.2L405.13 263.49L405.8 262.78L406.5 262.13L407.24 261.48L408 260.88L408.76 260.29L409.58 259.76L410.4 259.23L411.25 258.75L412.13 258.31L413.04 257.89L413.94 257.54L414.88 257.18L415.85 256.89L416.81 256.62L417.81 256.41L418.81 256.21L419.83 256.09L420.89 255.97L421.94 255.91L423.02 255.88L423.99 255.91L424.96 255.97L425.92 256.06L426.86 256.18L427.83 256.33L428.77 256.5L429.7 256.74L430.64 256.98L431.58 257.27L432.49 257.57L433.37 257.92L434.27 258.28L435.12 258.66L436 259.08L436.82 259.49L437.64 259.97L438.46 260.44L439.22 260.94L439.99 261.45L440.72 262.01L441.45 262.54L442.12 263.13L442.8 263.72L443.41 264.32L444.03 264.94L444.58 265.56L445.14 266.21L445.64 266.86L446.11 267.51L446.58 268.19L446.96 268.87L447.34 269.55L447.66 270.26L447.95 270.95L448.19 271.66L448.39 272.37L448.57 273.08L448.69 273.79L448.74 274.5L448.77 275.21L448.77 275.47L448.8 275.71L448.8 275.95L448.83 276.18L448.89 276.39L448.92 276.63L448.98 276.81L449.07 277.01L449.12 277.19L449.21 277.34L449.3 277.52L449.42 277.66L449.51 277.78L449.62 277.93L449.77 278.02L449.89 278.14L450.03 278.23L450.21 278.31L450.36 278.4L450.53 278.46L450.71 278.52L450.91 278.55L451.09 278.58L451.29 278.61L451.53 278.61L451.73 278.61L451.97 278.61L452.23 278.61L452.46 278.58L452.73 278.52L452.99 278.49L453.28 278.43L453.55 278.34L453.84 278.29L454.16 278.17L454.46 278.08L454.78 277.96L455.1 277.84L455.45 277.72L455.8 277.58L456.07 277.46L456.36 277.34L456.62 277.22L456.92 277.1L457.24 277.01L457.56 276.89L457.88 276.78L458.21 276.69L458.53 276.57L458.88 276.48L459.23 276.36L459.58 276.27L459.93 276.18L460.29 276.1L460.67 276.01L461.02 275.92L461.4 275.83L461.78 275.74L462.16 275.68L462.54 275.59L462.92 275.53L463.3 275.44L463.68 275.38L464.06 275.33L464.45 275.27L464.83 275.21L465.21 275.15L465.59 275.12L465.97 275.06L466.35 275.03L466.7 274.97L467.08 274.94L467.43 274.91L467.81 274.88L468.17 274.85L468.52 274.85L468.84 274.82L469.19 274.82L469.51 274.82L469.84 274.82L470.3 274.82L470.74 274.85L471.15 274.85L471.56 274.85L471.94 274.82L472.3 274.79L472.65 274.73L472.97 274.67L473.26 274.59L473.56 274.5L473.82 274.38L474.05 274.26L474.29 274.08L474.49 273.91L474.7 273.73L474.87 273.49L475.02 273.25L475.17 272.96L475.28 272.66L475.4 272.34L475.49 271.98L475.58 271.6L475.64 271.18L475.69 270.74L475.72 270.26L475.75 269.76L475.75 269.23L475.72 268.64L475.69 268.05L475.66 267.39L475.61 266.68L475.55 265.97L475.46 265.2L475.37 264.41L475.25 263.55L475.14 262.66L474.99 261.71L474.84 260.74L474.7 259.73L474.52 258.63L474.17 256.59L473.76 254.49L473.32 252.36L472.79 250.2L472.24 248.01L471.62 245.79L470.95 243.54L470.22 241.29L469.45 238.98L468.63 236.67L467.78 234.37L466.88 232.03L465.91 229.66L464.91 227.32L463.89 224.95L462.8 222.56L461.69 220.19L460.52 217.82L459.32 215.42L458.09 213.06L456.83 210.69L455.51 208.32L454.19 205.98L452.82 203.65L451.41 201.31L449.97 199L448.51 196.69L447.02 194.44L445.52 192.19L443.97 189.94L442.39 187.75L440.81 185.59L439.19 183.46L437.55 181.33L435.88 179.29L434.21 177.25L432.52 175.26L430.79 173.31L429.06 171.39L427.3 169.55L425.57 167.72L423.84 165.94L422.12 164.2L420.36 162.48L418.63 160.82L416.87 159.16L415.09 157.54L413.33 155.97L411.54 154.4L409.73 152.89L407.91 151.38L406.09 149.93L404.25 148.48L402.37 147.06L400.5 145.7L398.62 144.34L396.69 143L394.76 141.67L392.79 140.4L390.83 139.13L388.81 137.88L386.79 136.67L384.74 135.49L382.66 134.3L380.55 133.15L378.44 132.02L376.27 130.93L374.08 129.83L371.85 128.74L369.59 127.67L367.28 126.64L364.97 125.6L362.59 124.6L360.19 123.62L357.76 122.61L355.3 121.67L352.78 120.69L350.2 119.74L347.62 118.83L344.99 117.91L339.22 116.04L333.42 114.45L327.53 113.11L321.61 112.02L315.64 111.19L309.6 110.57L303.54 110.21L297.47 110.09L291.35 110.21L285.26 110.57L279.14 111.13ZM285.81 271.8L282.42 274.35L279.02 277.58L277.44 279.17L275.91 280.92L274.51 282.75L273.22 284.68L272.11 286.6L271.14 288.5L270.35 290.36L269.76 292.14L269.38 293.79L269.26 295.3L269.67 298.77L270.79 302.17L272.57 305.45L274.89 308.59L277.7 311.43L280.89 313.92L284.41 316.02L288.1 317.62L291.94 318.62L295.8 318.98L302.1 318.18L307.58 316.02L312.18 312.65L315.78 308.35L318.33 303.35L319.74 297.85L319.91 292.11L318.77 286.31L316.22 280.74L312.21 275.59L309.02 272.75L305.79 270.59L302.51 269.08L299.23 268.28L295.89 268.16L292.55 268.7L289.18 269.91L285.81 271.8ZM294.13 138.33L295.07 138.48L295.92 138.65L296.71 138.89L297.44 139.13L298.09 139.42L298.65 139.78L299.14 140.13L299.55 140.55L299.88 140.99L300.14 141.47L300.34 142L300.46 142.53L300.49 143.12L300.46 143.48L300.43 143.83L300.34 144.19L300.23 144.51L300.05 144.84L299.88 145.17L299.64 145.49L299.41 145.79L299.11 146.11L298.79 146.41L298.41 146.7L298.03 146.97L297.59 147.27L297.15 147.53L296.65 147.8L296.13 148.07L295.57 148.33L294.98 148.6L294.34 148.84L293.69 149.07L292.99 149.31L292.29 149.55L291.53 149.78L290.74 150.02L289.92 150.23L289.04 150.43L288.16 150.64L287.25 150.85L286.28 151.05L285.29 151.23L284.29 151.44L283.24 151.62L282.15 151.79L276.09 152.8L270.17 153.98L264.34 155.38L258.63 156.97L253.04 158.75L247.56 160.7L242.23 162.86L237.01 165.2L231.92 167.72L226.96 170.41L222.13 173.28L217.44 176.3L212.9 179.5L208.51 182.87L204.26 186.42L200.16 190.12L196.18 193.97L192.4 197.96L188.74 202.14L185.25 206.43L181.94 210.9L178.78 215.48L175.79 220.25L172.98 225.13L170.31 230.13L167.85 235.28L165.57 240.55L163.46 245.97L161.52 251.5L159.79 257.15L158.24 262.93L156.87 268.81L155.72 274.82L155.43 276.36L155.14 277.84L154.87 279.29L154.58 280.68L154.29 282.01L153.99 283.29L153.73 284.5L153.44 285.65L153.15 286.78L152.85 287.84L152.56 288.85L152.27 289.83L151.97 290.74L151.68 291.6L151.39 292.4L151.09 293.17L150.77 293.88L150.48 294.56L150.16 295.18L149.86 295.75L149.54 296.28L149.25 296.78L148.93 297.2L148.6 297.61L148.28 297.97L147.96 298.26L147.61 298.53L147.29 298.77L146.96 298.94L146.61 299.06L146.26 299.18L145.91 299.24L145.56 299.27L144.8 299.15L144.09 298.82L143.48 298.29L142.95 297.58L142.48 296.66L142.1 295.57L141.78 294.3L141.55 292.88L141.4 291.31L141.31 289.59L141.28 287.73L141.31 285.74L141.43 283.64L141.6 281.42L141.87 279.11L142.16 276.69L142.54 274.2L142.98 271.63L143.48 268.96L144.04 266.27L144.65 263.52L145.29 260.71L146.03 257.86L146.82 254.99L147.64 252.12L148.52 249.25L149.45 246.35L150.45 243.48L151.5 240.61L152.59 237.77L153.7 234.96L154.87 232.18L156.1 229.48L157.95 225.52L159.91 221.64L161.96 217.85L164.1 214.12L166.33 210.45L168.64 206.87L171.04 203.35L173.53 199.92L176.11 196.57L178.78 193.29L181.53 190.09L184.34 186.98L187.24 183.94L190.23 181.01L193.28 178.13L196.41 175.38L199.6 172.69L202.89 170.11L206.22 167.63L209.65 165.2L213.11 162.89L216.65 160.7L220.26 158.57L223.95 156.56L227.67 154.67L231.45 152.83L235.31 151.14L239.21 149.52L243.16 148.04L247.18 146.65L251.25 145.37L255.35 144.19L259.51 143.12L261.97 142.53L264.34 142L266.63 141.47L268.85 140.99L270.99 140.55L273.07 140.13L275.06 139.78L276.97 139.42L278.81 139.13L280.57 138.89L282.27 138.65L283.88 138.48L285.43 138.33L286.9 138.21L288.3 138.15L289.62 138.12L290.85 138.12L292.02 138.15L293.11 138.21L294.13 138.33ZM291.85 181.48L293.55 181.75L295.1 182.1L296.48 182.51L297.65 183.05L298.65 183.64L299.44 184.32L300.02 185.09L300.37 185.95L300.49 186.89L300.46 187.37L300.4 187.84L300.31 188.29L300.17 188.7L299.96 189.08L299.76 189.47L299.47 189.82L299.17 190.18L298.79 190.51L298.41 190.8L297.94 191.07L297.47 191.33L296.92 191.57L296.36 191.78L295.72 191.99L295.04 192.16L294.34 192.31L293.58 192.43L292.76 192.55L291.91 192.64L291 192.73L290.06 192.75L289.04 192.78L288.01 192.81L285.81 192.93L283.5 193.17L281.1 193.52L278.64 194L276.09 194.59L273.48 195.3L270.82 196.13L268.12 197.02L265.4 198.02L262.64 199.12L259.86 200.3L257.08 201.57L254.3 202.94L251.54 204.33L248.79 205.84L246.09 207.37L243.43 209L240.82 210.66L238.24 212.38L235.78 214.15L233.38 215.96L231.07 217.79L228.84 219.69L226.73 221.58L224.74 223.59L222.75 225.75L220.78 228.06L218.85 230.52L216.92 233.06L215.04 235.73L213.23 238.48L211.44 241.32L209.71 244.22L208.04 247.18L206.46 250.17L204.94 253.19L203.5 256.21L202.15 259.23L200.92 262.22L199.75 265.17L198.73 268.1L197.82 270.98L197.03 273.79L196.35 276.51L195.83 279.11L195.44 281.63L195.21 284L195.12 286.25L195.12 287.34L195.09 288.41L195.03 289.41L194.98 290.36L194.86 291.25L194.77 292.11L194.62 292.91L194.48 293.65L194.3 294.36L194.1 295.01L193.89 295.6L193.66 296.16L193.39 296.66L193.13 297.11L192.84 297.52L192.52 297.91L192.19 298.23L191.84 298.5L191.46 298.74L191.05 298.91L190.64 299.06L190.2 299.18L189.76 299.24L189.26 299.27L188.33 299.15L187.48 298.82L186.72 298.32L186.01 297.58L185.43 296.69L184.9 295.6L184.46 294.36L184.11 292.91L183.82 291.34L183.64 289.59L183.52 287.73L183.52 285.71L183.58 283.55L183.73 281.27L183.96 278.91L184.31 276.42L184.72 273.82L185.22 271.15L185.81 268.37L186.48 265.53L187.24 262.63L188.09 259.64L189.03 256.59L190.05 253.51L191.2 250.38L192.57 247.18L194.16 243.93L195.94 240.61L197.93 237.3L200.1 233.98L202.42 230.64L204.91 227.35L207.51 224.07L210.24 220.81L213.08 217.64L216.01 214.54L219.03 211.52L222.1 208.59L225.24 205.78L228.4 203.08L231.62 200.54L234.84 198.14L238.04 195.89L241.26 193.85L244.42 191.99L247.56 190.33L250.63 188.88L253.65 187.69L256.58 186.69L259.51 185.77L262.38 184.94L265.25 184.2L268.09 183.52L270.85 182.96L273.57 182.46L276.21 182.04L278.76 181.72L281.24 181.48L283.59 181.3L285.84 181.21L287.98 181.24L289.97 181.33L291.85 181.48Z" id="fK3LJfRQ2"></path></defs><g><g><g><use xlink:href="#c1BVNlAgDN" opacity="1" fill="#e64e04" fill-opacity="1"></use><g><use xlink:href="#c1BVNlAgDN" opacity="1" fill-opacity="0" stroke="#000000" stroke-width="1" stroke-opacity="0"></use></g></g><g><use xlink:href="#fK3LJfRQ2" opacity="1" fill="#000000" fill-opacity="0"></use><g><use xlink:href="#fK3LJfRQ2" opacity="1" fill-opacity="0" stroke="#000000" stroke-width="1" stroke-opacity="0"></use></g></g></g></g></svg>