<?xml version="1.0" encoding="UTF-8" standalone="no"?>
<!DOCTYPE svg PUBLIC "-//W3C//DTD SVG 1.1//EN" "http://www.w3.org/Graphics/SVG/1.1/DTD/svg11.dtd">
<svg version="1.1" xmlns="http://www.w3.org/2000/svg" xmlns:xlink="http://www.w3.org/1999/xlink" preserveAspectRatio="xMidYMid meet" viewBox="0 0 640 640" width="100" height="100"><defs><path d="M319.44 0.27L320.38 0.5L321.46 0.83L322.75 1.21L324.19 1.66L325.77 2.19L327.5 2.78L329.37 3.43L331.4 4.17L333.59 4.94L335.88 5.8L338.31 6.69L340.89 7.67L343.58 8.67L346.39 9.74L349.32 10.86L352.37 12.05L355.5 13.26L358.78 14.53L362.12 15.86L365.58 17.22L369.12 18.62L372.79 20.07L376.51 21.58L380.31 23.08L384.18 24.65L388.17 26.25L392.18 27.91L396.28 29.57L400.44 31.25L404.66 33L408.93 34.74L413.27 36.52L417.63 38.33L422.06 40.13L426.51 42L430.99 43.86L435.5 45.75L545.94 91.48L592.78 206.19L640 320.55L592.78 434.87L545.94 549.59L433.95 596.11L427.21 598.92L420.71 601.64L414.47 604.22L408.47 606.71L402.72 609.07L397.22 611.35L391.92 613.51L386.85 615.58L382.01 617.54L377.39 619.43L372.96 621.21L368.74 622.86L364.73 624.46L360.89 625.97L357.26 627.36L353.8 628.69L350.52 629.94L347.42 631.09L344.49 632.19L341.71 633.19L339.1 634.11L336.61 634.94L334.3 635.74L332.1 636.42L330.05 637.07L328.11 637.63L326.33 638.14L324.66 638.58L323.08 638.93L321.61 639.26L320.26 639.5L319 639.7L317.83 639.85L316.75 639.94L315.75 640L314.84 639.97L313.99 639.91L313.2 639.82L312.47 639.67L311.8 639.5L311.3 639.35L310.66 639.11L309.81 638.82L308.84 638.43L307.67 638.02L306.38 637.51L304.91 636.95L303.33 636.33L301.57 635.62L299.7 634.88L297.71 634.08L295.54 633.22L293.28 632.31L290.88 631.33L288.36 630.32L285.76 629.26L283 628.13L280.16 626.98L277.2 625.76L274.16 624.52L270.99 623.22L267.77 621.89L264.43 620.53L261 619.11L257.52 617.66L253.94 616.21L250.28 614.7L246.56 613.16L242.78 611.59L238.95 609.99L235.02 608.39L231.07 606.73L227.05 605.08L222.98 603.39L218.88 601.7L214.75 599.99L210.56 598.24L206.37 596.49L202.12 594.75L197.85 592.97L94.06 549.59L47.22 434.87L0 320.13L47.22 206.19L94.06 91.86L202.15 46.14L206.58 44.25L211 42.38L215.36 40.55L219.7 38.71L223.98 36.94L228.22 35.16L232.41 33.41L236.57 31.7L240.64 30.01L244.69 28.35L248.64 26.72L252.54 25.13L256.35 23.56L260.07 22.05L263.73 20.57L267.3 19.12L270.79 17.7L274.19 16.34L277.5 15.03L280.69 13.76L283.79 12.52L286.75 11.36L289.65 10.24L292.41 9.14L295.04 8.11L297.56 7.16L299.93 6.24L302.19 5.39L304.33 4.59L306.32 3.85L308.14 3.17L309.84 2.55L311.39 1.98L312.76 1.48L314.02 1.07L315.08 0.71L315.99 0.44L316.72 0.21L317.28 0.09L317.66 0L318.07 0.03L318.65 0.12L319.44 0.27ZM310.01 157.33L305.85 157.36L301.75 157.39L297.71 157.42L293.69 157.45L289.77 157.51L285.9 157.54L282.09 157.6L278.34 157.65L274.68 157.71L271.08 157.8L267.56 157.86L264.14 157.95L260.8 158.01L257.55 158.1L254.38 158.22L251.31 158.31L248.35 158.39L245.48 158.51L242.72 158.6L240.06 158.72L237.51 158.84L235.08 158.99L232.76 159.1L230.6 159.22L228.52 159.37L226.58 159.49L224.77 159.64L223.1 159.79L221.57 159.93L220.17 160.08L218.94 160.26L217.82 160.41L216.89 160.58L216.07 160.73L215.45 160.91L214.95 161.09L214.63 161.27L214.31 161.47L214.02 161.74L213.72 162.03L213.43 162.33L213.14 162.69L212.87 163.1L212.58 163.51L212.32 163.99L212.08 164.49L211.82 165.02L211.59 165.59L211.35 166.21L211.12 166.86L210.91 167.57L210.71 168.31L210.5 169.11L210.3 169.94L210.09 170.79L209.89 171.71L209.71 172.69L209.53 173.7L209.36 174.76L209.18 175.89L209.01 177.04L208.86 178.25L208.71 179.53L208.54 180.83L208.39 182.19L208.25 183.61L208.1 185.09L207.98 186.63L207.84 188.23L207.69 189.85L207.57 191.57L207.46 193.32L207.31 195.15L207.19 197.05L207.07 198.97L206.96 200.98L206.84 203.05L204.88 240.91L159.24 240.49L157.22 240.49L155.23 240.46L153.26 240.43L151.3 240.43L149.37 240.43L147.46 240.43L145.59 240.43L143.74 240.46L141.9 240.49L140.11 240.49L138.35 240.52L136.59 240.58L134.9 240.61L133.23 240.67L131.59 240.73L129.97 240.79L128.42 240.85L126.9 240.94L125.4 241L123.97 241.08L122.56 241.17L121.19 241.29L119.87 241.38L118.61 241.5L117.38 241.62L116.21 241.74L115.06 241.85L113.98 242L112.95 242.12L111.99 242.27L111.05 242.42L110.2 242.59L109.38 242.74L108.62 242.92L107.92 243.1L107.3 243.27L106.72 243.45L106.22 243.66L105.75 243.84L105.37 244.04L104.81 244.37L104.25 244.69L103.76 245.05L103.26 245.4L102.79 245.82L102.38 246.29L101.97 246.83L101.56 247.42L101.21 248.1L100.89 248.87L100.56 249.76L100.27 250.76L100.01 251.92L99.74 253.22L99.51 254.64L99.3 256.27L99.13 258.04L98.95 260.02L98.78 262.22L98.63 264.61L98.51 267.22L98.43 270.09L98.31 273.19L98.25 276.57L98.16 280.18L98.13 284.12L98.07 288.35L98.04 292.85L98.04 297.7L98.02 302.88L98.02 308.38L98.04 314.27L98.04 320.49L98.07 327.12L98.1 334.1L98.16 341.5L98.19 349.31L98.25 357.54L98.31 366.21L98.34 375.33L99.51 502.29L316.1 503.48L324.98 503.51L333.8 503.54L342.56 503.54L351.2 503.57L359.75 503.59L368.22 503.59L376.54 503.59L384.77 503.62L392.88 503.62L400.85 503.62L408.67 503.62L416.35 503.62L423.87 503.59L431.23 503.59L438.43 503.59L445.46 503.57L452.29 503.54L458.94 503.54L465.38 503.51L471.59 503.48L477.63 503.45L483.43 503.42L488.99 503.36L494.35 503.33L499.45 503.3L504.28 503.24L508.88 503.18L513.19 503.15L517.23 503.09L521.01 503.03L524.5 502.97L527.66 502.91L530.56 502.83L533.14 502.77L535.39 502.71L537.33 502.62L538.91 502.53L540.17 502.47L541.11 502.38L541.66 502.29L550.25 500.31L550.25 375.33L550.25 366.98L550.25 359.02L550.22 351.39L550.22 344.14L550.22 337.24L550.19 330.7L550.19 324.45L550.16 318.56L550.13 312.97L550.07 307.67L550.04 302.67L549.98 297.97L549.92 293.53L549.86 289.38L549.78 285.48L549.69 281.81L549.6 278.4L549.51 275.24L549.4 272.28L549.25 269.53L549.13 266.98L548.99 264.64L548.81 262.48L548.63 260.53L548.46 258.69L548.25 257.07L548.02 255.56L547.78 254.19L547.55 252.98L547.29 251.86L546.99 250.88L546.7 249.99L546.38 249.22L546.03 248.51L545.68 247.89L545.29 247.33L544.91 246.86L544.5 246.41L544.06 246L543.6 245.64L543.21 245.38L542.75 245.11L542.28 244.87L541.72 244.64L541.16 244.4L540.52 244.16L539.88 243.95L539.14 243.72L538.38 243.51L537.56 243.33L536.71 243.13L535.77 242.95L534.81 242.77L533.81 242.59L532.73 242.42L531.61 242.27L530.44 242.12L529.21 241.97L527.92 241.82L526.58 241.68L525.17 241.56L523.73 241.44L522.21 241.32L520.66 241.2L519.02 241.08L517.32 241L515.59 240.91L513.78 240.82L511.9 240.73L509.97 240.64L507.98 240.55L505.9 240.49L503.79 240.43L501.59 240.37L499.33 240.31L496.99 240.26L494.62 240.23L492.16 240.17L489.61 240.14L487.03 240.11L437.09 240.11L437.09 205.01L437.06 203.05L437.06 201.13L437.06 199.27L437.03 197.46L437 195.74L436.97 194.06L436.91 192.43L436.88 190.86L436.82 189.35L436.76 187.9L436.68 186.51L436.62 185.15L436.53 183.85L436.44 182.6L436.32 181.39L436.24 180.24L436.12 179.11L435.97 178.05L435.85 177.04L435.71 176.03L435.56 175.12L435.39 174.2L435.24 173.34L435.03 172.51L434.86 171.74L434.65 170.97L434.45 170.26L434.24 169.58L434.01 168.93L433.78 168.31L433.54 167.72L433.28 167.18L433.01 166.65L432.72 166.15L432.43 165.67L432.13 165.2L431.84 164.79L431.52 164.37L431.17 163.99L430.82 163.63L430.44 163.22L430 162.83L429.5 162.45L428.94 162.09L428.33 161.77L427.65 161.44L426.89 161.15L426.07 160.85L425.16 160.58L424.14 160.32L423.05 160.05L421.82 159.82L420.53 159.61L419.1 159.4L417.55 159.19L415.88 159.02L414.06 158.84L412.13 158.69L410.05 158.54L407.79 158.39L405.42 158.28L402.87 158.16L400.15 158.04L397.25 157.95L394.17 157.86L390.92 157.77L387.49 157.71L383.83 157.62L379.99 157.57L375.95 157.54L371.67 157.48L367.19 157.45L362.5 157.42L357.55 157.39L352.37 157.36L346.95 157.33L341.3 157.33L335.38 157.33L329.2 157.33L322.72 157.33L318.45 157.33L314.2 157.33L310.01 157.33ZM336.26 386.57L340.1 386.75L343.58 386.99L346.66 387.26L349.26 387.58L351.34 387.94L352.78 388.35L353.54 388.71L354.24 389.18L354.92 389.77L355.5 390.48L356.03 391.37L356.5 392.41L356.94 393.62L357.32 395.04L357.64 396.67L357.93 398.53L358.2 400.6L358.4 402.97L358.58 405.58L358.73 408.48L358.84 411.67L358.93 415.19L358.99 419.04L359.02 423.21L359.02 427.77L359.02 434.22L358.93 440.02L358.78 445.2L358.52 449.82L358.11 453.9L357.52 457.46L356.76 460.53L355.77 463.17L354.54 465.39L353.01 467.25L351.17 468.76L349 469.97L346.45 470.89L343.52 471.6L340.18 472.11L336.37 472.43L332.07 472.61L327.29 472.7L321.96 472.73L316.63 472.7L311.83 472.61L307.55 472.43L303.74 472.08L300.37 471.6L297.44 470.89L294.9 469.94L292.73 468.73L290.91 467.19L289.39 465.33L288.13 463.08L287.13 460.42L286.37 457.34L285.79 453.73L285.4 449.64L285.11 445L284.97 439.76L284.91 433.9L284.88 427.39L284.91 423.45L284.94 419.75L284.99 416.26L285.08 413L285.2 409.96L285.38 407.14L285.55 404.51L285.73 402.11L285.96 399.92L286.22 397.94L286.52 396.13L286.84 394.54L287.19 393.14L287.57 391.96L287.98 390.93L288.42 390.13L288.92 389.48L289.42 389.03L289.95 388.74L291.41 388.26L293.46 387.85L296.07 387.49L299.17 387.17L302.66 386.9L306.47 386.69L310.54 386.52L314.82 386.4L319.18 386.34L323.57 386.34L327.94 386.37L332.19 386.46L336.26 386.57ZM506.54 399L506.77 404.66L506.72 409.6L506.31 413.89L505.54 417.56L504.34 420.64L502.73 423.18L500.62 425.23L498.04 426.82L494.91 427.98L491.19 428.78L486.88 429.22L481.93 429.34L477.57 429.16L473.56 428.57L469.86 427.56L466.55 426.2L463.6 424.43L460.96 422.27L458.7 419.69L456.8 416.73L455.25 413.39L454.05 409.63L453.2 405.49L452.67 400.96L452.67 377.7L479.21 378.88L505.37 380.06L506.54 399ZM177.11 375.06L180.33 375.45L183 375.92L184.99 376.51L186.89 378.02L188.5 380.69L189.76 384.36L190.73 388.79L191.34 393.77L191.67 399.06L191.67 404.45L191.34 409.75L190.73 414.72L189.76 419.16L188.5 422.8L186.89 425.49L184.99 426.97L182.88 427.65L180.18 428.22L177.05 428.66L173.56 429.01L169.78 429.22L165.89 429.34L161.93 429.34L158.04 429.22L154.26 429.01L150.77 428.66L147.64 428.22L144.94 427.65L142.83 426.97L141.16 425.58L139.73 422.95L138.53 419.31L137.59 414.9L136.92 409.96L136.51 404.66L136.36 399.24L136.51 393.94L136.95 389L137.68 384.59L138.7 380.95L140.02 378.32L141.66 376.93L143.65 376.25L146.32 375.68L149.54 375.24L153.17 374.88L157.1 374.65L161.23 374.53L165.42 374.5L169.55 374.59L173.47 374.77L177.11 375.06ZM375.42 284.26L400 285.45L400 332.77L349.26 332.77L348.09 313.44L347.95 310.99L347.83 308.53L347.74 306.1L347.71 303.74L347.68 301.46L347.74 299.27L347.8 297.2L347.89 295.27L348.03 293.53L348.21 291.96L348.39 290.6L348.62 289.47L348.88 288.61L349.32 287.76L350 286.99L350.85 286.31L351.96 285.71L353.31 285.24L354.95 284.83L356.85 284.5L359.08 284.26L361.63 284.12L364.5 284.06L367.75 284.06L371.38 284.12L375.42 284.26ZM164.69 284.26L189.26 285.45L189.26 332.77L138.56 332.77L137.39 313.44L137.21 310.99L137.09 308.53L137 306.1L136.98 303.74L136.98 301.46L137 299.27L137.06 297.2L137.18 295.27L137.3 293.53L137.47 291.96L137.68 290.6L137.91 289.47L138.15 288.61L138.62 287.76L139.26 286.99L140.14 286.31L141.22 285.71L142.57 285.24L144.21 284.83L146.11 284.5L148.34 284.26L150.89 284.12L153.79 284.06L157.04 284.06L160.67 284.12L164.69 284.26ZM270.05 284.26L294.63 285.45L294.63 332.77L243.9 332.77L242.72 313.44L242.58 310.99L242.46 308.53L242.37 306.1L242.34 303.74L242.34 301.46L242.37 299.27L242.43 297.2L242.55 295.27L242.67 293.53L242.84 291.96L243.05 290.6L243.25 289.47L243.52 288.61L243.98 287.76L244.63 286.99L245.48 286.31L246.59 285.71L247.94 285.24L249.58 284.83L251.48 284.5L253.71 284.26L256.26 284.12L259.16 284.06L262.41 284.06L266.01 284.12L270.05 284.26ZM480.79 284.26L505.37 285.45L505.37 332.77L454.63 332.77L453.46 313.44L453.31 310.99L453.2 308.53L453.11 306.1L453.05 303.74L453.05 301.46L453.08 299.27L453.17 297.2L453.26 295.27L453.4 293.53L453.55 291.96L453.75 290.6L453.99 289.47L454.25 288.61L454.69 287.76L455.34 286.99L456.21 286.31L457.33 285.71L458.67 285.24L460.29 284.83L462.22 284.5L464.45 284.26L466.96 284.12L469.86 284.06L473.12 284.06L476.75 284.12L480.79 284.26ZM282.48 193.7L285.7 194.09L288.36 194.59L290.36 195.15L291.38 195.68L292.29 196.39L293.11 197.25L293.81 198.32L294.46 199.62L294.98 201.16L295.42 202.94L295.8 205.04L296.1 207.4L296.33 210.13L296.48 213.18L296.57 216.58L296.59 220.4L296.54 225.9L296.36 230.64L296.01 234.63L295.42 237.98L294.51 240.7L293.23 242.89L291.53 244.61L289.36 245.88L286.66 246.8L283.35 247.42L279.4 247.77L274.71 247.95L269.26 248.01L263.82 247.95L259.16 247.77L255.2 247.42L251.89 246.8L249.17 245.88L247 244.61L245.3 242.89L244.04 240.7L243.13 237.98L242.52 234.63L242.17 230.64L241.99 225.9L241.96 220.4L241.99 217.14L242.08 214.06L242.26 211.22L242.49 208.56L242.78 206.16L243.13 203.97L243.54 201.99L243.98 200.3L244.51 198.82L245.07 197.61L245.68 196.66L246.33 195.98L247.03 195.57L249.02 194.89L251.69 194.32L254.91 193.88L258.54 193.52L262.47 193.29L266.6 193.17L270.79 193.14L274.89 193.23L278.84 193.41L282.48 193.7ZM386.55 193.49L390.27 193.94L393.38 194.5L395.69 195.15L397.39 196.48L398.83 198.82L400.03 202.05L400.97 205.95L401.67 210.36L402.08 215.13L402.23 220.07L402.14 224.98L401.73 229.72L401.05 234.07L400.09 237.92L398.83 241.02L397.28 243.27L395.69 244.37L393.44 245.35L390.57 246.17L387.23 246.86L383.51 247.36L379.52 247.71L375.39 247.92L371.2 247.98L367.1 247.86L363.15 247.57L359.52 247.09L356.29 246.44L353.57 245.64L352.54 245.11L351.61 244.43L350.79 243.54L350.08 242.47L349.47 241.2L348.91 239.69L348.47 237.92L348.09 235.85L347.8 233.51L347.59 230.84L347.45 227.85L347.36 224.51L347.33 220.78L347.33 217.91L347.39 215.1L347.51 212.35L347.62 209.74L347.8 207.29L348 204.98L348.21 202.85L348.47 200.95L348.74 199.3L349.03 197.9L349.35 196.81L349.7 196.01L350.05 195.57L351.29 194.8L353.51 194.18L356.5 193.67L360.13 193.29L364.23 193.02L368.69 192.87L373.28 192.84L377.91 192.96L382.39 193.17L386.55 193.49Z" id="b1tqtXFsOI"></path><path d="M319.44 0.27L320.38 0.5L321.46 0.83L322.75 1.21L324.19 1.66L325.77 2.19L327.5 2.78L329.37 3.43L331.4 4.17L333.59 4.94L335.88 5.8L338.31 6.69L340.89 7.67L343.58 8.67L346.39 9.74L349.32 10.86L352.37 12.05L355.5 13.26L358.78 14.53L362.12 15.86L365.58 17.22L369.12 18.62L372.79 20.07L376.51 21.58L380.31 23.08L384.18 24.65L388.17 26.25L392.18 27.91L396.28 29.57L400.44 31.25L404.66 33L408.93 34.74L413.27 36.52L417.63 38.33L422.06 40.13L426.51 42L430.99 43.86L435.5 45.75L545.94 91.48L592.78 206.19L640 320.55L592.78 434.87L545.94 549.59L433.95 596.11L427.21 598.92L420.71 601.64L414.47 604.22L408.47 606.71L402.72 609.07L397.22 611.35L391.92 613.51L386.85 615.58L382.01 617.54L377.39 619.43L372.96 621.21L368.74 622.86L364.73 624.46L360.89 625.97L357.26 627.36L353.8 628.69L350.52 629.94L347.42 631.09L344.49 632.19L341.71 633.19L339.1 634.11L336.61 634.94L334.3 635.74L332.1 636.42L330.05 637.07L328.11 637.63L326.33 638.14L324.66 638.58L323.08 638.93L321.61 639.26L320.26 639.5L319 639.7L317.83 639.85L316.75 639.94L315.75 640L314.84 639.97L313.99 639.91L313.2 639.82L312.47 639.67L311.8 639.5L311.3 639.35L310.66 639.11L309.81 638.82L308.84 638.43L307.67 638.02L306.38 637.51L304.91 636.95L303.33 636.33L301.57 635.62L299.7 634.88L297.71 634.08L295.54 633.22L293.28 632.31L290.88 631.33L288.36 630.32L285.76 629.26L283 628.13L280.16 626.98L277.2 625.76L274.16 624.52L270.99 623.22L267.77 621.89L264.43 620.53L261 619.11L257.52 617.66L253.94 616.21L250.28 614.7L246.56 613.16L242.78 611.59L238.95 609.99L235.02 608.39L231.07 606.73L227.05 605.08L222.98 603.39L218.88 601.7L214.75 599.99L210.56 598.24L206.37 596.49L202.12 594.75L197.85 592.97L94.06 549.59L47.22 434.87L0 320.13L47.22 206.19L94.06 91.86L202.15 46.14L206.58 44.25L211 42.38L215.36 40.55L219.7 38.71L223.98 36.94L228.22 35.16L232.41 33.41L236.57 31.7L240.64 30.01L244.69 28.35L248.64 26.72L252.54 25.13L256.35 23.56L260.07 22.05L263.73 20.57L267.3 19.12L270.79 17.7L274.19 16.34L277.5 15.03L280.69 13.76L283.79 12.52L286.75 11.36L289.65 10.24L292.41 9.14L295.04 8.11L297.56 7.16L299.93 6.24L302.19 5.39L304.33 4.59L306.32 3.85L308.14 3.17L309.84 2.55L311.39 1.98L312.76 1.48L314.02 1.07L315.08 0.71L315.99 0.44L316.72 0.21L317.28 0.09L317.66 0L318.07 0.03L318.65 0.12L319.44 0.27ZM310.01 157.33L305.85 157.36L301.75 157.39L297.71 157.42L293.69 157.45L289.77 157.51L285.9 157.54L282.09 157.6L278.34 157.65L274.68 157.71L271.08 157.8L267.56 157.86L264.14 157.95L260.8 158.01L257.55 158.1L254.38 158.22L251.31 158.31L248.35 158.39L245.48 158.51L242.72 158.6L240.06 158.72L237.51 158.84L235.08 158.99L232.76 159.1L230.6 159.22L228.52 159.37L226.58 159.49L224.77 159.64L223.1 159.79L221.57 159.93L220.17 160.08L218.94 160.26L217.82 160.41L216.89 160.58L216.07 160.73L215.45 160.91L214.95 161.09L214.63 161.27L214.31 161.47L214.02 161.74L213.72 162.03L213.43 162.33L213.14 162.69L212.87 163.1L212.58 163.51L212.32 163.99L212.08 164.49L211.82 165.02L211.59 165.59L211.35 166.21L211.12 166.86L210.91 167.57L210.71 168.31L210.5 169.11L210.3 169.94L210.09 170.79L209.89 171.71L209.71 172.69L209.53 173.7L209.36 174.76L209.18 175.89L209.01 177.04L208.86 178.25L208.71 179.53L208.54 180.83L208.39 182.19L208.25 183.61L208.1 185.09L207.98 186.63L207.84 188.23L207.69 189.85L207.57 191.57L207.46 193.32L207.31 195.15L207.19 197.05L207.07 198.97L206.96 200.98L206.84 203.05L204.88 240.91L159.24 240.49L157.22 240.49L155.23 240.46L153.26 240.43L151.3 240.43L149.37 240.43L147.46 240.43L145.59 240.43L143.74 240.46L141.9 240.49L140.11 240.49L138.35 240.52L136.59 240.58L134.9 240.61L133.23 240.67L131.59 240.73L129.97 240.79L128.42 240.85L126.9 240.94L125.4 241L123.97 241.08L122.56 241.17L121.19 241.29L119.87 241.38L118.61 241.5L117.38 241.62L116.21 241.74L115.06 241.85L113.98 242L112.95 242.12L111.99 242.27L111.05 242.42L110.2 242.59L109.38 242.74L108.62 242.92L107.92 243.1L107.3 243.27L106.72 243.45L106.22 243.66L105.75 243.84L105.37 244.04L104.81 244.37L104.25 244.69L103.76 245.05L103.26 245.4L102.79 245.82L102.38 246.29L101.97 246.83L101.56 247.42L101.21 248.1L100.89 248.87L100.56 249.76L100.27 250.76L100.01 251.92L99.74 253.22L99.51 254.64L99.3 256.27L99.13 258.04L98.95 260.02L98.78 262.22L98.63 264.61L98.51 267.22L98.43 270.09L98.31 273.19L98.25 276.57L98.16 280.18L98.13 284.12L98.07 288.35L98.04 292.85L98.04 297.7L98.02 302.88L98.02 308.38L98.04 314.27L98.04 320.49L98.07 327.12L98.1 334.1L98.16 341.5L98.19 349.31L98.25 357.54L98.31 366.21L98.34 375.33L99.51 502.29L316.1 503.48L324.98 503.51L333.8 503.54L342.56 503.54L351.2 503.57L359.75 503.59L368.22 503.59L376.54 503.59L384.77 503.62L392.88 503.62L400.85 503.62L408.67 503.62L416.35 503.62L423.87 503.59L431.23 503.59L438.43 503.59L445.46 503.57L452.29 503.54L458.94 503.54L465.38 503.51L471.59 503.48L477.63 503.45L483.43 503.42L488.99 503.36L494.35 503.33L499.45 503.3L504.28 503.24L508.88 503.18L513.19 503.15L517.23 503.09L521.01 503.03L524.5 502.97L527.66 502.91L530.56 502.83L533.14 502.77L535.39 502.71L537.33 502.62L538.91 502.53L540.17 502.47L541.11 502.38L541.66 502.29L550.25 500.31L550.25 375.33L550.25 366.98L550.25 359.02L550.22 351.39L550.22 344.14L550.22 337.24L550.19 330.7L550.19 324.45L550.16 318.56L550.13 312.97L550.07 307.67L550.04 302.67L549.98 297.97L549.92 293.53L549.86 289.38L549.78 285.48L549.69 281.81L549.6 278.4L549.51 275.24L549.4 272.28L549.25 269.53L549.13 266.98L548.99 264.64L548.81 262.48L548.63 260.53L548.46 258.69L548.25 257.07L548.02 255.56L547.78 254.19L547.55 252.98L547.29 251.86L546.99 250.88L546.7 249.99L546.38 249.22L546.03 248.51L545.68 247.89L545.29 247.33L544.91 246.86L544.5 246.41L544.06 246L543.6 245.64L543.21 245.38L542.75 245.11L542.28 244.87L541.72 244.64L541.16 244.4L540.52 244.16L539.88 243.95L539.14 243.72L538.38 243.51L537.56 243.33L536.71 243.13L535.77 242.95L534.81 242.77L533.81 242.59L532.73 242.42L531.61 242.27L530.44 242.12L529.21 241.97L527.92 241.82L526.58 241.68L525.17 241.56L523.73 241.44L522.21 241.32L520.66 241.2L519.02 241.08L517.32 241L515.59 240.91L513.78 240.82L511.9 240.73L509.97 240.64L507.98 240.55L505.9 240.49L503.79 240.43L501.59 240.37L499.33 240.31L496.99 240.26L494.62 240.23L492.16 240.17L489.61 240.14L487.03 240.11L437.09 240.11L437.09 205.01L437.06 203.05L437.06 201.13L437.06 199.27L437.03 197.46L437 195.74L436.97 194.06L436.91 192.43L436.88 190.86L436.82 189.35L436.76 187.9L436.68 186.51L436.62 185.15L436.53 183.85L436.44 182.6L436.32 181.39L436.24 180.24L436.12 179.11L435.97 178.05L435.85 177.04L435.71 176.03L435.56 175.12L435.39 174.2L435.24 173.34L435.03 172.51L434.86 171.74L434.65 170.97L434.45 170.26L434.24 169.58L434.01 168.93L433.78 168.31L433.54 167.72L433.28 167.18L433.01 166.65L432.72 166.15L432.43 165.67L432.13 165.2L431.84 164.79L431.52 164.37L431.17 163.99L430.82 163.63L430.44 163.22L430 162.83L429.5 162.45L428.94 162.09L428.33 161.77L427.65 161.44L426.89 161.15L426.07 160.85L425.16 160.58L424.14 160.32L423.05 160.05L421.82 159.82L420.53 159.61L419.1 159.4L417.55 159.19L415.88 159.02L414.06 158.84L412.13 158.69L410.05 158.54L407.79 158.39L405.42 158.28L402.87 158.16L400.15 158.04L397.25 157.95L394.17 157.86L390.92 157.77L387.49 157.71L383.83 157.62L379.99 157.57L375.95 157.54L371.67 157.48L367.19 157.45L362.5 157.42L357.55 157.39L352.37 157.36L346.95 157.33L341.3 157.33L335.38 157.33L329.2 157.33L322.72 157.33L318.45 157.33L314.2 157.33L310.01 157.33ZM336.26 386.57L340.1 386.75L343.58 386.99L346.66 387.26L349.26 387.58L351.34 387.94L352.78 388.35L353.54 388.71L354.24 389.18L354.92 389.77L355.5 390.48L356.03 391.37L356.5 392.41L356.94 393.62L357.32 395.04L357.64 396.67L357.93 398.53L358.2 400.6L358.4 402.97L358.58 405.58L358.73 408.48L358.84 411.67L358.93 415.19L358.99 419.04L359.02 423.21L359.02 427.77L359.02 434.22L358.93 440.02L358.78 445.2L358.52 449.82L358.11 453.9L357.52 457.46L356.76 460.53L355.77 463.17L354.54 465.39L353.01 467.25L351.17 468.76L349 469.97L346.45 470.89L343.52 471.6L340.18 472.11L336.37 472.43L332.07 472.61L327.29 472.7L321.96 472.73L316.63 472.7L311.83 472.61L307.55 472.43L303.74 472.08L300.37 471.6L297.44 470.89L294.9 469.94L292.73 468.73L290.91 467.19L289.39 465.33L288.13 463.08L287.13 460.42L286.37 457.34L285.79 453.73L285.4 449.64L285.11 445L284.97 439.76L284.91 433.9L284.88 427.39L284.91 423.45L284.94 419.75L284.99 416.26L285.08 413L285.2 409.96L285.38 407.14L285.55 404.51L285.73 402.11L285.96 399.92L286.22 397.94L286.52 396.13L286.84 394.54L287.19 393.14L287.57 391.96L287.98 390.93L288.42 390.13L288.92 389.48L289.42 389.03L289.95 388.74L291.41 388.26L293.46 387.85L296.07 387.49L299.17 387.17L302.66 386.9L306.47 386.69L310.54 386.52L314.82 386.4L319.18 386.34L323.57 386.34L327.94 386.37L332.19 386.46L336.26 386.57ZM506.54 399L506.77 404.66L506.72 409.6L506.31 413.89L505.54 417.56L504.34 420.64L502.73 423.18L500.62 425.23L498.04 426.82L494.91 427.98L491.19 428.78L486.88 429.22L481.93 429.34L477.57 429.16L473.56 428.57L469.86 427.56L466.55 426.2L463.6 424.43L460.96 422.27L458.7 419.69L456.8 416.73L455.25 413.39L454.05 409.63L453.2 405.49L452.67 400.96L452.67 377.7L479.21 378.88L505.37 380.06L506.54 399ZM177.11 375.06L180.33 375.45L183 375.92L184.99 376.51L186.89 378.02L188.5 380.69L189.76 384.36L190.73 388.79L191.34 393.77L191.67 399.06L191.67 404.45L191.34 409.75L190.73 414.72L189.76 419.16L188.5 422.8L186.89 425.49L184.99 426.97L182.88 427.65L180.18 428.22L177.05 428.66L173.56 429.01L169.78 429.22L165.89 429.34L161.93 429.34L158.04 429.22L154.26 429.01L150.77 428.66L147.64 428.22L144.94 427.65L142.83 426.97L141.16 425.58L139.73 422.95L138.53 419.31L137.59 414.9L136.92 409.96L136.51 404.66L136.36 399.24L136.51 393.94L136.95 389L137.68 384.59L138.7 380.95L140.02 378.32L141.66 376.93L143.65 376.25L146.32 375.68L149.54 375.24L153.17 374.88L157.1 374.65L161.23 374.53L165.42 374.5L169.55 374.59L173.47 374.77L177.11 375.06ZM375.42 284.26L400 285.45L400 332.77L349.26 332.77L348.09 313.44L347.95 310.99L347.83 308.53L347.74 306.1L347.71 303.74L347.68 301.46L347.74 299.27L347.8 297.2L347.89 295.27L348.03 293.53L348.21 291.96L348.39 290.6L348.62 289.47L348.88 288.61L349.32 287.76L350 286.99L350.85 286.31L351.96 285.71L353.31 285.24L354.95 284.83L356.85 284.5L359.08 284.26L361.63 284.12L364.5 284.06L367.75 284.06L371.38 284.12L375.42 284.26ZM164.69 284.26L189.26 285.45L189.26 332.77L138.56 332.77L137.39 313.44L137.21 310.99L137.09 308.53L137 306.1L136.98 303.74L136.98 301.46L137 299.27L137.06 297.2L137.18 295.27L137.3 293.53L137.47 291.96L137.68 290.6L137.91 289.47L138.15 288.61L138.62 287.76L139.26 286.99L140.14 286.31L141.22 285.71L142.57 285.24L144.21 284.83L146.11 284.5L148.34 284.26L150.89 284.12L153.79 284.06L157.04 284.06L160.67 284.12L164.69 284.26ZM270.05 284.26L294.63 285.45L294.63 332.77L243.9 332.77L242.72 313.44L242.58 310.99L242.46 308.53L242.37 306.1L242.34 303.74L242.34 301.46L242.37 299.27L242.43 297.2L242.55 295.27L242.67 293.53L242.84 291.96L243.05 290.6L243.25 289.47L243.52 288.61L243.98 287.76L244.63 286.99L245.48 286.31L246.59 285.71L247.94 285.24L249.58 284.83L251.48 284.5L253.71 284.26L256.26 284.12L259.16 284.06L262.41 284.06L266.01 284.12L270.05 284.26ZM480.79 284.26L505.37 285.45L505.37 332.77L454.63 332.77L453.46 313.44L453.31 310.99L453.2 308.53L453.11 306.1L453.05 303.74L453.05 301.46L453.08 299.27L453.17 297.2L453.26 295.27L453.4 293.53L453.55 291.96L453.75 290.6L453.99 289.47L454.25 288.61L454.69 287.76L455.34 286.99L456.21 286.31L457.33 285.71L458.67 285.24L460.29 284.83L462.22 284.5L464.45 284.26L466.96 284.12L469.86 284.06L473.12 284.06L476.75 284.12L480.79 284.26ZM282.48 193.7L285.7 194.09L288.36 194.59L290.36 195.15L291.38 195.68L292.29 196.39L293.11 197.25L293.81 198.32L294.46 199.62L294.98 201.16L295.42 202.94L295.8 205.04L296.1 207.4L296.33 210.13L296.48 213.18L296.57 216.58L296.59 220.4L296.54 225.9L296.36 230.64L296.01 234.63L295.42 237.98L294.51 240.7L293.23 242.89L291.53 244.61L289.36 245.88L286.66 246.8L283.35 247.42L279.4 247.77L274.71 247.95L269.26 248.01L263.82 247.95L259.16 247.77L255.2 247.42L251.89 246.8L249.17 245.88L247 244.61L245.3 242.89L244.04 240.7L243.13 237.98L242.52 234.63L242.17 230.64L241.99 225.9L241.96 220.4L241.99 217.14L242.08 214.06L242.26 211.22L242.49 208.56L242.78 206.16L243.13 203.97L243.54 201.99L243.98 200.3L244.51 198.82L245.07 197.61L245.68 196.66L246.33 195.98L247.03 195.57L249.02 194.89L251.69 194.32L254.91 193.88L258.54 193.52L262.47 193.29L266.6 193.17L270.79 193.14L274.89 193.23L278.84 193.41L282.48 193.7ZM386.55 193.49L390.27 193.94L393.38 194.5L395.69 195.15L397.39 196.48L398.83 198.82L400.03 202.05L400.97 205.95L401.67 210.36L402.08 215.13L402.23 220.07L402.14 224.98L401.73 229.72L401.05 234.07L400.09 237.92L398.83 241.02L397.28 243.27L395.69 244.37L393.44 245.35L390.57 246.17L387.23 246.86L383.51 247.36L379.52 247.71L375.39 247.92L371.2 247.98L367.1 247.86L363.15 247.57L359.52 247.09L356.29 246.44L353.57 245.64L352.54 245.11L351.61 244.43L350.79 243.54L350.08 242.47L349.47 241.2L348.91 239.69L348.47 237.92L348.09 235.85L347.8 233.51L347.59 230.84L347.45 227.85L347.36 224.51L347.33 220.78L347.33 217.91L347.39 215.1L347.51 212.35L347.62 209.74L347.8 207.29L348 204.98L348.21 202.85L348.47 200.95L348.74 199.3L349.03 197.9L349.35 196.81L349.7 196.01L350.05 195.57L351.29 194.8L353.51 194.18L356.5 193.67L360.13 193.29L364.23 193.02L368.69 192.87L373.28 192.84L377.91 192.96L382.39 193.17L386.55 193.49Z" id="c1miNLPUm2"></path></defs><g><g><g><use xlink:href="#b1tqtXFsOI" opacity="1" fill="#e64e04" fill-opacity="1"></use><g><use xlink:href="#b1tqtXFsOI" opacity="1" fill-opacity="0" stroke="#000000" stroke-width="1" stroke-opacity="0"></use></g></g><g><use xlink:href="#c1miNLPUm2" opacity="1" fill="#000000" fill-opacity="0"></use><g><use xlink:href="#c1miNLPUm2" opacity="1" fill-opacity="0" stroke="#000000" stroke-width="1" stroke-opacity="0"></use></g></g></g></g></svg>